<?xml version='1.0' encoding='utf-8'?>
<svg xmlns="http://www.w3.org/2000/svg" width="13in" height="18in" version="1.1" style="shape-rendering:geometricPrecision; text-rendering:geometricPrecision; image-rendering:optimizeQuality; fill-rule:evenodd; clip-rule:evenodd" viewBox="0 0 13000 18000"> <defs> <style type="text/css">  .fil0 {fill:black}  </style> </defs> <g id="Layer_x0020_1"> <metadata id="CorelCorpID_0Corel-Layer"/> <g id="_1159344080"> <path class="fil0" d="M8745 11586l0 0zm-5 -10l5 10 -5 -10zm0 0c-13,-10 -28,-39 -30,-60l10 0c2,30 17,30 20,60zm-297 12l-49 9c1,-26 -4,-71 12,-86 21,-20 39,-34 69,-29 8,37 -19,74 -32,106zm-446 -175c31,41 44,54 130,50 59,-3 109,-23 159,-26l15 159c-109,10 -314,-4 -381,-100 12,-19 56,-72 77,-82zm971 48l0 0zm-841 -95c-10,-29 5,-64 10,-95 16,19 16,35 7,63l140 0c-37,17 -114,48 -157,32zm-229 -35c15,-17 37,-33 61,-43 38,-16 47,0 54,33l-115 10zm136 -319l30 17 -32 64 3 -81zm-317 9c-19,-25 -65,-53 -79,-83 17,4 55,15 62,24 9,11 16,44 16,59zm-148 -110c6,-15 2,-8 12,-21l36 -42 11 84 -59 -21zm-1369 -118c30,-15 83,-22 125,-22 -8,17 -74,119 -84,126 -19,-24 -48,-69 -40,-104zm1255 63c-26,-30 -44,-69 -69,-103 -16,-22 -30,-26 -44,-41 -52,-58 -19,-102 33,-147 15,-13 33,-23 49,-36 18,-15 27,-25 42,-37 11,9 18,23 27,34 30,38 55,60 63,128 -18,17 -34,30 -54,47 -15,13 -36,31 -51,42 23,18 62,18 87,35 -16,16 -32,12 -47,31l-36 46zm-286 -260l-52 118c-12,-17 -47,-66 -49,-88l101 -30zm1107 607c-7,-85 1,-171 -40,-234 -70,-110 -193,13 -272,-275 -8,-28 -14,-32 3,-54 33,-45 46,-58 117,-82l-34 92c27,17 72,10 96,41 12,15 17,75 34,106 64,118 221,151 257,301 5,20 -28,69 -45,84 -28,26 -75,21 -115,20zm-1681 -659c14,-58 35,-80 98,-76l-98 76zm1607 -141c-37,-10 -70,-9 -50,-57 7,-18 27,-56 40,-67 38,60 23,56 11,125zm-6057 -537c-40,-2 -74,13 -98,-15 -13,-15 -30,-49 -39,-70 -30,-65 -4,-125 28,-170 56,14 86,48 108,99 14,33 39,123 45,158l-44 -2zm4516 -165c100,-46 36,-29 162,-19 5,46 14,51 0,86 -32,1 -70,-11 -99,-18 -48,-12 -48,-8 -63,-49zm-2380 -216l-10 -5 10 5zm-10 -5l0 0zm3054 48c-34,-16 -40,-14 -42,-58 -5,-104 29,-154 45,-241 24,4 43,8 59,16 11,65 -49,215 -62,283zm-4222 -370c18,20 60,80 58,118 -2,39 -69,67 -107,77l49 -194zm-397 166c50,-15 150,-39 184,-65 52,-39 55,-130 78,-164 8,6 37,39 47,47l-9 112c-66,33 -230,97 -309,102 10,-17 13,-12 10,-32zm132 -281c23,54 63,186 -49,148 -46,-15 -22,-46 -8,-77 15,-31 14,-37 33,-52 4,-3 2,-1 9,-6 8,-7 7,-8 15,-14zm4181 119c-4,-42 -6,-81 24,-96 18,-9 68,-21 90,-23 -9,14 -101,111 -114,119zm208 7c11,-104 90,-157 209,-139l-56 146 -14 -49c-26,12 -28,0 -48,-12 -33,13 -57,42 -90,54zm-5179 -91c22,-8 88,-23 100,-30 23,-13 49,-48 70,-56l21 45 -27 15c-22,17 -19,74 -18,99 0,27 1,53 0,80 -1,16 0,41 -5,55 -4,10 -1,5 -7,11l-98 -172c-11,-18 -27,-32 -34,-47zm198 -32c32,-18 104,-22 147,-22 -1,1 -2,3 -3,3 -39,33 -92,39 -143,19zm966 -23c3,-23 17,-55 32,-70l36 181c-10,-52 -41,-85 -67,-111zm7222 -91l0 0zm-8191 -167l-20 91c-12,-15 -31,-39 -33,-64l53 -26zm1 -2c2,-25 13,-75 21,-95 9,-23 31,-29 71,-41l82 262c-88,-1 -93,0 -111,-42 -16,-36 -40,-62 -62,-84zm4490 26c20,-77 60,-145 127,-167 -18,94 -33,146 -127,167zm183 -4c0,-18 21,-75 27,-97 22,-81 25,-149 48,-211 25,-67 11,-35 39,-50 1,-1 12,-9 16,-11 2,82 9,218 -18,287 -22,56 -56,57 -112,82zm-4827 -173c-29,-3 -75,-8 -87,-30 -13,-24 9,-69 24,-82 20,19 53,82 63,111zm4665 -33c-46,-84 -27,-268 11,-322 35,58 37,175 16,253l-18 57c-8,16 -2,6 -8,12zm-3678 419c-113,-30 -137,-183 -138,-284 -1,-108 46,-248 140,-286 -16,94 -64,187 -67,286 -3,111 42,191 65,284zm917 -539c26,-34 25,-135 50,-174 13,153 -45,310 -80,443 -56,213 -42,258 -18,459 -91,-13 -181,-72 -222,-120 -56,-65 -83,-143 -79,-255 6,-178 94,-283 178,-410 11,-16 20,-34 30,-47 72,16 93,71 141,103zm3527 -113c5,-77 2,-156 9,-232 5,-55 25,-144 57,-176 9,108 12,170 38,270 51,198 49,264 -115,435 -75,78 -106,149 -132,171 -27,-43 7,-48 -55,-86 -19,35 -24,125 -39,170 -47,-14 -65,-45 -131,-31 -44,10 -85,22 -132,32 -42,9 -104,136 -150,176 -33,-14 -72,-39 -114,-56 -10,17 -11,28 -23,46 -9,-96 34,-157 74,-215 70,5 50,32 87,28 57,-6 156,-122 188,-167 47,-65 116,-176 58,-252 -43,-56 -40,-40 -61,-54l-8 -102c24,9 68,17 83,38 18,24 27,49 49,68 18,-24 41,-58 62,-77 23,-21 58,-37 81,-59 4,-9 -13,-211 58,-280 19,34 20,157 31,206 10,44 53,135 86,147zm-5463 -1c-23,-24 -7,-62 23,-67 7,19 5,24 -3,43 -7,17 -6,18 -20,24zm1922 -123c-16,-100 -28,-192 -12,-297 13,-81 49,-185 96,-229 3,3 4,3 8,9 4,5 1,1 4,6 2,4 6,10 9,16 7,13 12,20 19,31 53,88 62,82 44,134 -27,77 -65,143 -85,213 -20,70 -3,97 -83,117zm3091 -77c-36,-95 -57,-208 7,-290 40,-52 146,-116 239,-135 -4,149 2,120 -58,196 -22,-3 -57,-18 -83,7 -37,34 -21,158 -105,222zm250 -429c16,-29 44,-61 63,-88 15,12 24,35 23,57 -18,17 -59,24 -86,30zm298 -93c13,-66 24,-83 93,-92 -30,24 -67,76 -93,92zm-3066 -115l-3 11 3 -11zm3424 -85l0 0zm-5676 126c6,-36 57,-256 71,-276 13,56 19,110 0,165 -10,28 -37,79 -59,101 -12,12 -1,3 -13,10zm4282 -76c-24,-8 -56,-13 -47,-42 4,-15 36,-42 47,-48 14,7 12,6 20,20 14,-7 14,-29 36,-7 9,9 14,25 14,42 -24,-5 -25,-17 -44,-24 -4,40 -3,40 -27,59zm154 -80c37,2 38,-4 67,-9 -21,43 -35,66 -88,78l21 -69zm-1095 -124c8,-9 27,-30 37,-37 17,-13 35,-10 50,0l-88 37zm-2804 643c21,-107 84,-320 129,-416 27,-59 62,-127 96,-178 31,-47 25,-34 73,-61 38,-22 38,-43 67,-68 -13,47 -64,135 -86,188 -28,65 -52,125 -76,193 -39,108 -85,291 -203,342zm3079 -699c-1,-32 18,-22 5,-58l109 -1c-10,47 0,28 7,58 -33,6 -90,9 -121,1zm-3885 18c-22,-36 12,-66 36,-99l-24 112 -12 -13zm4312 -95l54 1 15 45 -69 -46zm-4205 834c19,-21 51,-81 67,-110 37,-64 61,-126 116,-153 63,-31 51,47 115,-153 60,-188 89,-394 247,-462 -7,36 -27,87 -36,129 -30,135 -46,286 -85,413 -42,141 -77,231 -159,344 -13,17 -23,31 -36,49 -6,8 -11,16 -16,23l-21 23c19,-137 77,-189 54,-358 -18,5 0,7 -21,5 -14,-1 2,0 -10,-2l-5 -1c0,-1 -2,-1 -3,0 -35,73 -59,219 -80,307 -31,126 -74,150 -227,156l34 -275c18,-5 41,0 60,3l8 62zm120 -622c-2,-83 55,-239 171,-247 -101,54 -27,25 -63,58l-27 21c20,77 25,59 36,65l-5 19c0,0 -4,-7 -6,-9 -8,-9 3,0 -9,-7 -90,31 -57,28 -99,100zm5718 75c3,-30 81,-233 102,-267l83 -141c-1,67 -88,255 -121,322 -20,39 -28,63 -63,86zm-3405 -393l0 0zm5 -10l-5 10 5 -10zm1598 -23c31,10 43,30 36,68 -22,-9 -38,-42 -36,-68zm1985 18l3 -11 -3 11zm-2048 52l-67 5 -9 -81c56,10 70,15 76,76zm-3648 -102c-24,92 -77,3 0,0zm5765 -100l1 1c0,0 -2,-1 -1,-1zm85 -5l1 1c0,0 -2,-1 -1,-1zm-75 -5l0 0zm80 -5l1 1c0,0 -2,-1 -1,-1zm5 -10l1 1c0,0 -2,-1 -1,-1zm-572 406c-56,-65 -17,-197 16,-261 28,-54 104,-176 139,-200 -7,37 -146,450 -155,462zm-1718 -446c1,-21 5,-36 30,-32 26,5 -1,7 35,25 -2,23 -9,33 -32,36l6 -43 -39 14zm5561 -36l0 0zm5 -10l-5 10 5 -10zm-7710 -290c116,-3 108,167 99,264 -8,91 -29,135 -77,202l-33 48c-1,1 -2,4 -3,3 0,-1 -2,2 -4,3l18 -521zm-1819 656c-3,-132 130,-324 215,-425 -12,44 -124,251 -159,328l-57 97zm3344 -623c96,152 -35,433 -108,492l108 -492zm101 -104c50,67 46,209 31,301 -11,66 -54,225 -91,265l60 -566zm578 275c-20,-8 -33,-51 -37,-73 15,9 18,20 26,32 9,12 15,18 11,41zm-3677 1550c-15,-56 4,-83 34,-115 95,-100 125,-154 206,-267 33,-47 30,-51 38,-121 5,-47 10,-95 16,-143 12,-114 25,-236 46,-347 11,-57 24,-52 78,-81 60,-33 82,-57 121,-118 3,-4 41,-44 70,-85 21,-30 242,-342 266,-360l-96 353 63 27 -63 74c-29,28 -103,115 -111,153 -12,51 -7,53 -37,92 -40,52 -53,39 -75,59 -40,37 -91,225 -107,281 -43,149 -78,235 -180,343l-138 126c-44,37 -121,122 -131,128zm5129 -1332c-17,-67 -1,-161 22,-217 17,-42 73,-129 109,-144 -1,27 -10,81 -20,103 -27,58 -42,-4 -111,258zm814 -391c-3,11 -123,206 -134,254 -77,0 -78,-4 -101,53 -13,32 -40,72 -73,81 -5,-23 -15,-31 -15,-60 28,-13 44,-18 70,-35 -17,-33 -60,-90 -65,-110 29,-15 139,-69 174,-70 -2,-28 -13,-22 -15,-50 40,-19 73,-7 159,-65zm5 -5l-5 5 5 -5zm5 -10l-5 10 5 -10zm966 -10l0 0zm0 0c4,-19 11,-31 15,-50 4,-19 6,-37 10,-54 84,0 65,18 41,41 -21,20 -44,49 -66,63zm-6481 104c6,-53 57,-140 82,-171 33,-41 80,-88 131,-115 -12,25 -195,271 -213,286zm5097 -324l14 36c-24,18 -22,23 -38,40l-6 -65 30 -11zm-4075 2c23,5 61,17 72,34 -9,13 -33,27 -46,43 -16,19 -29,58 -30,56 0,-1 -1,2 -2,3l6 -135zm403 -35c79,86 113,518 30,605l-30 -605zm3532 262c-34,-16 -35,-26 -30,-74l87 -640c20,145 30,422 -3,570 -14,65 -33,93 -55,144zm209 1131c30,-130 42,-119 77,-217 16,-44 32,-60 54,-95 10,-16 18,-30 28,-47 10,-17 17,-31 27,-48 29,-47 103,-203 140,-269l40 -74c58,-107 132,-213 219,-299 26,-26 50,-48 79,-70 60,-44 115,-79 190,-109 61,-24 161,-56 242,-56 0,-39 -5,-31 72,-58 30,-10 55,-21 83,-31l164 -60c-25,38 -42,45 -63,66l-77 58c-83,53 -207,112 -298,150 -108,44 -144,44 -255,99l-109 70c-56,46 -87,74 -133,131 -102,129 -127,192 -196,341l-79 184c-42,96 -118,278 -203,335zm1717 -1454l0 0zm5 -5l-5 5 5 -5zm-1503 702l68 -146c50,-92 137,-250 212,-326 19,-19 31,-41 54,-56 5,14 42,33 58,37 25,6 52,-12 82,-12 -6,-22 -48,-72 -55,-100 87,-59 250,-144 363,-144 -64,96 -255,174 -274,199l333 -85c-12,18 -24,35 -35,55 -126,0 -337,105 -437,200 -108,103 -129,127 -218,260 -12,18 -51,90 -62,98 3,-13 5,-15 10,-25 -16,0 -50,4 -61,8 -20,8 -23,26 -38,36zm-5868 -79c12,-114 166,-301 237,-390 43,-54 157,-177 200,-218 213,-201 159,-67 268,-141 42,-29 68,-84 102,-103 -14,123 -132,265 -218,351 -17,17 -39,42 -57,57 -290,240 -132,124 -305,372 -45,65 -160,191 -231,220 50,-125 208,-146 233,-368 -126,43 -196,186 -229,220zm5774 -758c12,-22 59,-101 75,-114 -7,79 -48,214 -75,284 -30,77 -76,191 -146,213 5,-64 26,-151 38,-216 8,-44 26,-182 42,-208l9 37 56 4zm-3969 -69c0,-125 20,-228 82,-332l25 -32c6,139 -18,317 -29,458 -12,152 -18,309 -17,464 2,270 4,346 -75,647 -27,104 -94,328 -149,398l-9 -25c-51,-348 203,-493 204,-1055 0,-177 -31,-348 -32,-523zm4192 533c1,-13 20,-69 25,-80 -30,3 -100,35 -126,48 -49,24 -73,34 -73,106 -24,-6 -34,-15 -55,-20 9,-13 22,-19 34,-31l113 -111c1,-1 2,-2 3,-2 80,-67 67,-49 134,-100 96,-72 206,-171 314,-219 111,-50 153,-42 260,-133l367 -300c-6,70 -35,81 -65,104 -130,96 -143,131 -279,239 -22,18 -42,33 -65,50 -79,59 -55,33 -156,73 -17,7 -24,11 -38,17 -7,3 -14,6 -20,9 -257,135 -345,329 -373,349zm1578 -856l0 0zm-3821 433c45,-16 136,-210 142,-294 2,-26 -2,-92 2,-109 4,-17 121,-95 168,-155 78,-99 65,-154 191,-242 69,-48 198,-113 289,-144 137,-47 250,-34 338,47 92,83 89,167 145,288 48,102 73,45 55,150 -10,60 -21,120 -32,181 -7,41 -1,60 -32,78l-202 121 70 179c-35,33 -102,58 -131,89 33,-6 84,-31 104,-47 55,-42 56,-113 149,-224 5,-6 11,-13 16,-18 14,-14 6,-9 24,-16 -7,116 -54,211 -105,288 -55,82 -70,55 -72,123 -1,60 0,126 -6,185 -11,-17 -25,-83 -94,-116 -13,23 -36,50 -52,76 -51,82 -91,166 -122,261 -67,207 -48,261 -58,450 -22,-32 -49,-154 -62,-199l-331 45c-17,-18 -54,-83 -68,-108 -81,-142 -92,-226 -145,-373 -72,-200 -141,-239 -180,-507 -16,11 -10,7 -26,41 -7,14 -12,31 -17,48 -15,50 -3,130 -40,214 -9,21 -43,70 -46,74l16 -341c-26,9 -38,27 -66,36 -23,8 -59,15 -83,19 -17,280 -111,681 -275,805 8,-21 12,-19 21,-30 6,-7 2,0 6,-9 21,-42 -12,-101 -16,-112 -40,-128 41,-676 99,-777 5,50 0,139 -1,193 -1,66 -1,134 -3,199 -4,103 -62,259 -23,342 54,-60 77,-223 91,-321 13,-94 24,-159 66,-241 5,-10 16,-25 19,-31 12,-27 4,-4 0,-12 -5,-10 -7,16 -5,-12 1,-14 105,-255 119,-289 14,-32 120,-231 145,-261 6,33 3,65 6,99 4,40 33,25 21,70 -12,45 -62,92 -84,119l54 69c15,29 17,66 20,101zm3607 -563l0 0zm-6418 93c-10,-79 14,-71 91,-107 -9,18 -7,22 -13,39l-48 52c-14,12 -28,13 -30,15zm5033 264c45,-27 111,-113 144,-159 18,-25 28,-33 47,-52 9,-9 17,-20 27,-28l77 -73c21,-22 80,-88 101,-99 -11,20 -25,37 -39,57 -14,20 -25,37 -37,58 -19,32 -51,88 -58,128 57,-17 158,-79 198,-123 31,-34 22,-37 89,-33 -75,34 -97,38 -141,95 -28,36 -63,105 -74,162 204,-39 407,-313 537,-326l-199 175c-49,46 -315,266 -332,291 109,-18 222,-103 310,-159 30,-20 63,-46 95,-59 -15,31 -40,55 -60,79 -47,55 -159,142 -223,185 -50,33 -306,180 -352,194 55,-120 170,-146 220,-234 -154,23 -197,117 -281,150 58,-134 -35,-137 -46,-226zm1131 -291c11,-32 49,-69 73,-88 21,-17 70,-51 97,-62 -17,21 -160,146 -169,150zm200 -175l0 0zm-698 55c10,-61 14,-52 75,-58 -17,16 -53,49 -75,58zm-2824 73c15,-50 78,-145 108,-171 -5,33 -27,75 -44,100 -20,30 -53,56 -65,71zm1878 259c-39,-43 -23,-185 -11,-246 15,-81 38,-145 63,-219l-51 465zm2043 -481l10 0c-9,13 -5,16 -10,0zm10 0l10 -6 -10 6zm1827 -10l-10 6 10 -6zm-1862 388c3,-38 29,-47 71,-78 172,-129 458,-257 661,-324 19,-6 43,-13 59,-21l0 40c-45,11 -168,57 -218,75 -188,69 -364,165 -529,277 -16,11 -29,21 -44,31zm25 -378c-35,3 -69,27 -105,30 26,39 8,29 35,30 -10,14 -23,22 -36,34 -15,14 -25,21 -40,35 -18,16 -23,15 -39,36 -11,15 -20,27 -32,43l-99 120c-11,10 -37,17 -54,21 26,-110 116,-157 124,-189 -10,1 -6,1 -12,3 -23,8 -57,35 -87,42 9,-39 91,-143 100,-174 -126,29 -115,56 -154,65 3,-13 18,-34 27,-48 11,-19 23,-29 28,-52 -60,29 -100,32 -192,87 -31,18 -59,32 -88,52 -29,19 -56,37 -84,56 4,-16 31,-53 42,-68 18,-24 34,-40 53,-61l28 -27c12,-12 14,-15 29,-26 74,-55 130,-87 225,-113l110 -25c45,-10 46,1 46,-44 41,0 97,17 134,20 2,20 14,55 20,75 6,21 19,57 20,80zm-333 861c6,-24 26,-68 28,-95 2,-20 -11,-5 10,-26 76,-78 145,-180 200,-229 90,-79 153,-118 250,-183 16,-11 35,-21 53,-31 20,-11 34,-19 54,-30 86,-47 147,-72 233,-111 96,-43 283,-105 384,-133l420 -98c35,-7 32,3 54,21 14,12 42,27 51,39 -44,0 -334,75 -394,94 -43,13 -83,24 -126,39l-240 84c-81,31 -155,64 -231,98 -168,75 -364,190 -509,307 -99,80 -88,82 -158,170 -20,26 -53,68 -79,85zm-2140 300c2,-102 38,-222 53,-321 18,-116 13,-232 25,-349 30,-277 171,-479 178,-559 2,37 -23,112 -34,151 -30,114 -62,369 -73,484 -13,144 -1,512 -150,594zm-2325 278c-50,-49 -76,-319 -82,-413 -10,-156 -9,-318 4,-474 33,-385 115,-418 150,-586 10,-49 22,-38 69,-55 28,-10 61,-23 89,-31 -8,33 -114,273 -137,327 -46,111 -75,244 -86,374 -18,223 37,291 19,426 -20,146 -26,279 -27,431zm5750 -1499c13,-55 54,-51 125,-69l158 -36 35 35 -319 70zm-1080 393c32,-48 256,-200 314,-234 39,-23 79,-45 119,-65 178,-89 275,-125 456,-186 23,-8 53,-14 72,-23 13,20 29,25 40,40 -75,6 -390,133 -471,166l-123 61c-142,76 -209,113 -338,214 -14,11 -52,22 -68,26zm1214 -528l-10 6 10 -6zm-732 -5l0 0zm0 0l-1 -6c14,5 17,1 1,6zm-2786 19c-4,-32 11,-39 41,-42 -5,23 -17,43 -41,42zm-2307 41c7,-35 7,-60 40,-72 22,-9 64,-17 90,-16 2,14 -8,41 -11,60l-119 28zm5825 -55c5,-5 -2,0 9,-6 5,-3 3,-2 10,-5 43,-22 56,-26 72,-3 -34,1 -55,15 -90,15zm-1294 493c5,-18 85,-114 99,-125 84,-67 125,-105 218,-166 105,-69 184,-106 292,-161 19,-9 33,-14 51,-23 71,-35 62,34 157,-57 16,-15 77,-36 98,-41 17,11 59,40 65,60 -24,1 -117,37 -140,44 -93,31 -240,94 -330,138 -81,41 -223,124 -293,175l-128 101c-50,40 -29,40 -90,54zm129 -503l-95 20c0,-38 5,-57 5,-90 26,-6 70,-15 100,-15 0,18 -6,69 -10,85zm-4089 247c11,-38 93,-139 132,-172 46,-39 110,-106 142,-158 -29,83 -97,214 -115,315l92 -78c20,-19 72,-66 85,-86l-356 701c-38,-18 -26,-49 -13,-88 15,-48 72,-224 74,-250 -95,119 -112,162 -150,319 -16,-21 -46,-50 -50,-83 -3,-29 13,-78 11,-117 -25,57 -52,119 -79,177 -16,36 -61,153 -81,175l36 -310c-53,39 -155,455 -190,504l51 -527c-53,57 -67,255 -84,344 -8,43 -19,72 -31,110 -3,-4 -3,-3 -6,-11l-5 -35c-21,-218 1,-388 72,-596 17,-49 82,-252 122,-276 20,-12 74,-27 100,-30l-158 467c9,-21 24,-45 35,-71 72,-173 75,-300 220,-437 29,-28 22,-27 65,-42 22,14 16,32 52,76l5 -6c1,-1 2,-2 2,-3l7 -14c12,-31 7,-48 31,-59 13,-6 78,-24 93,-28 -3,97 -76,215 -110,290zm1654 472c-8,-102 57,-401 90,-489 50,-133 120,-256 242,-326 -20,34 -76,102 -115,170 -118,206 -133,323 -182,540 -5,21 -17,78 -29,96 -4,7 -3,5 -7,9zm2342 -795c-6,-51 15,-79 45,-94l-45 94zm524 75l-175 47 -38 -118c18,-11 29,-18 41,-32 41,-48 22,-13 61,-79 10,-17 15,-31 28,-44l110 42c-72,61 -48,13 -84,114 27,41 47,46 58,69zm-1495 158c22,-21 46,-48 69,-72l279 -283c82,-84 62,-85 122,-76l183 27c-8,90 -67,93 -91,177 33,-6 76,-38 100,-53 39,-25 64,-32 119,-33 -3,28 -20,86 -17,106 3,21 23,60 30,85 -15,14 -31,23 -48,36 -86,68 -246,198 -364,202 29,-47 121,-109 143,-155l-269 112c20,-72 94,-107 158,-142 51,-28 126,-90 140,-151l-140 64 111 -200c-83,13 -266,161 -337,220 -65,54 -124,90 -187,137zm-2225 -135c-8,-53 -1,-47 30,-66 72,-45 153,-120 196,-192 14,-23 27,-36 44,-51 20,-18 28,-25 54,-40l57 -35c-13,114 -120,227 -200,285 -61,44 -109,69 -180,100zm2034 -258c28,-20 55,-100 204,-89 116,8 103,-47 234,-56 -8,27 -37,63 -53,84 -60,75 -160,53 -200,187 34,-5 90,-33 117,-50 63,-42 83,-90 129,-125 46,-36 115,-65 175,-76 -34,201 -483,390 -626,536 -65,66 -91,163 -178,203 3,-37 47,-124 63,-154 25,-43 61,-90 94,-120 19,-17 36,-34 59,-51 53,-40 139,-94 161,-158 -156,30 -301,196 -383,310 -20,27 -78,117 -102,131 12,-77 52,-164 87,-221 35,-58 112,-155 125,-181 -37,10 -97,42 -128,58 -40,21 -79,51 -100,84 -31,49 -56,206 -107,257 16,-154 97,-240 115,-304 10,-33 27,-77 31,-111 -36,15 -38,35 -74,-2 -101,126 -196,360 -208,563 -18,-175 56,-368 130,-487 43,-69 74,-123 159,-154 42,-15 69,-33 97,-57 6,-5 16,-14 21,-19 45,-55 34,-31 58,-58l100 59zm3286 -133c29,-30 82,-47 133,-50 63,-5 101,10 149,31 -7,37 -16,35 -53,45 -26,7 -52,15 -81,15 -42,1 -123,-22 -148,-42zm-1108 -30c8,-10 10,-10 18,-18l18 -18c15,15 28,41 31,63 -11,3 -22,8 -31,13 -14,-8 -30,-17 -37,-40zm-4159 160c7,-14 37,-44 49,-55 14,-13 40,-31 57,-43 40,-28 64,-64 127,-72 -15,133 -98,155 -233,170zm4525 -131c120,-5 146,26 178,22 60,-7 220,-120 266,-128 55,-10 112,30 132,58 -15,5 -175,67 -191,79 30,28 84,56 110,85 -46,29 -174,9 -237,16 0,0 -16,27 -16,27 -4,11 2,14 8,29 8,20 15,44 21,63 63,1 233,-88 280,-116 33,-20 33,-17 69,1 57,29 147,63 199,94 -15,30 -79,84 -103,107 -44,-20 -81,-70 -100,-77 -25,38 -20,67 -18,116l-22 -17c-13,12 -5,12 -25,16 -29,-31 -8,-66 -54,-93 -33,87 -35,118 -85,186 -88,-57 -86,-115 -105,-143 -50,53 -20,89 -85,91 -15,-18 -27,-37 -39,-62 -31,-63 -1,-76 -151,-134 -11,-126 -28,-143 -34,-220zm-962 32c-12,38 -52,90 -91,103 -137,47 -186,-252 -117,-390 60,73 31,254 24,353 89,-5 116,-51 183,-65zm-3056 -148c1,-27 2,-108 8,-129 6,-26 52,-45 77,-54 8,21 56,247 55,270 -34,-16 -113,-77 -139,-87zm-591 208c18,-67 85,-132 124,-165 35,-30 130,-86 187,-99 -1,94 -15,30 -150,136 -44,34 -102,108 -161,127zm3870 -49c3,-69 10,-116 30,-178 56,-177 53,-164 141,-156 270,25 464,175 749,145 34,-4 174,-22 182,11 1,6 0,3 2,9 4,13 4,5 9,22 -125,21 -191,39 -326,16 -100,-17 -192,-47 -292,-66 -198,-36 -279,-27 -398,111 -18,21 -69,72 -97,86zm-4926 -115c-12,-16 -21,-61 -26,-81 -7,-26 -16,-56 -20,-82l112 27c-9,17 -12,11 -27,25 -7,7 -16,17 -21,29 -6,14 -16,64 -18,82zm353 -45c-13,-22 -27,-75 -26,-107 1,-37 31,-28 99,-27 -3,24 -21,50 -33,67 -52,69 -16,25 -39,67zm3479 7c-12,-12 -47,-72 -54,-89 -24,-65 -10,-52 -1,-114 95,5 179,4 273,3 44,-1 90,-1 131,6 27,5 85,27 96,43 31,44 -16,359 -91,455l-6 -418c-39,-1 -80,-3 -116,-12 -39,-9 -62,-25 -93,-36 -14,32 -26,82 -49,104 -11,10 -74,51 -90,58zm-1554 -232c48,39 111,135 -43,140 16,-38 29,-35 51,-60l-8 -80zm1022 15c5,28 17,46 28,67 -82,54 -106,-1 -124,-74l97 6zm-2566 186c-46,-6 -41,-60 -46,-73 -21,-54 -149,-115 -209,-151 45,1 101,10 148,15 27,3 107,3 123,38 6,53 -8,120 -16,172zm-618 -260c22,3 50,24 62,38 -21,14 -41,31 -68,38l6 -76zm6347 26c16,-34 7,-22 20,-31l62 24c-19,9 -57,10 -81,8zm-3770 231c2,-56 22,-143 32,-202 15,-91 8,-122 72,-155 29,69 14,143 -15,203l-89 155zm-2421 -252c3,-12 27,-26 39,-29 43,-9 129,34 158,57l-197 -28zm1843 28c1,35 -13,67 -19,100 -53,-20 -39,16 -60,-55 -7,-23 -22,-66 -23,-89 26,17 26,5 38,-1 19,15 47,29 64,45zm-1046 23c29,-21 54,-51 99,-70 155,-63 201,16 47,57 -22,6 -47,10 -71,13 -6,1 -68,9 -72,1 -1,-2 -3,-1 -4,-2zm3308 152c-17,-156 -46,-140 -80,-215l129 64c-4,28 -38,127 -49,152zm-5016 -64c-13,-43 3,-94 23,-135 19,-39 44,-65 98,-70l-86 208 -35 -3zm5683 -193c38,14 90,28 116,47 -69,67 -217,-36 -236,-63 31,-37 74,0 120,16zm-5094 11c0,-1 1,-2 1,-3 4,-15 3,-9 -3,-31l95 37c-9,16 -3,19 -9,29l-87 -23 2 -9zm2051 -55c-15,73 -55,110 -109,142 -31,18 -58,-7 -81,-24 -27,-21 -33,-33 -44,-75l234 -42zm4570 -63c10,-12 25,-28 35,-34 26,31 13,42 82,126 11,13 6,5 13,20 -36,-2 -77,-1 -104,-19 -17,-11 -52,-39 -61,-54l34 -39zm-6820 90c-17,-12 -48,-36 -61,-55 38,9 48,24 61,55zm6614 7c-16,-18 -26,-38 -33,-63l42 -1 -9 65zm-3328 286c-10,-42 -19,-84 -28,-126 -18,-86 -7,-76 -53,-96 -95,-41 -95,-66 -101,-209 192,38 227,353 182,432zm1536 -122c8,-20 53,-56 77,-58 29,-3 39,12 60,-8 52,-47 61,-170 140,-205 -5,51 -31,164 -27,204 21,21 63,49 75,79 11,28 -8,97 -17,128 -200,26 -141,35 -262,66 0,-28 -2,-116 11,-132 14,-14 81,-4 128,-36l-186 -38zm-2207 -246c25,-48 115,-75 191,-59l7 63c-30,14 -61,40 -103,31 -21,-5 -81,-25 -95,-35zm1806 1c-11,30 -15,32 -43,45 -19,9 -40,17 -62,23 -55,16 -106,9 -163,9 -111,0 -103,25 -146,-6 -21,-15 -35,-17 -47,-38 -9,-16 -23,-44 -28,-61 104,4 404,11 489,28zm889 -23c-6,-42 26,-81 74,-63 31,12 66,47 79,71l-152 -7zm-4825 123c-65,-6 -87,-16 -129,-47l-91 -78c51,5 90,25 130,44 54,27 61,9 90,81zm5064 77c88,-6 183,-8 228,-61 41,-47 69,-126 117,-170l-17 298c83,-9 63,-24 155,1 43,11 70,25 99,55l12 19c-66,23 -88,33 -169,24 -57,-7 -112,-22 -165,-34 -54,-12 -109,-22 -163,-36 -27,-7 -52,-14 -69,-31 -11,-12 -28,-46 -29,-65zm-6392 -211c16,-11 55,-39 81,-34l71 40c0,-1 2,2 3,3 -90,73 -107,49 -154,-9zm2127 -87c40,-8 81,-24 127,-9 46,15 118,143 -67,91 -55,-16 -54,-25 -61,-82zm2245 165c97,4 126,29 185,71 79,55 80,87 171,78l15 -39c-36,-37 -156,-94 -218,-116 -98,-35 -152,-55 -163,-176 156,14 260,83 343,160 35,32 90,76 106,143 15,66 -29,144 -68,171 -11,-6 -32,-27 -45,-38 -126,-107 -289,-111 -325,-254zm-754 -163c27,-74 164,-46 238,-36 -10,52 -43,132 -63,182 -15,37 -56,147 -80,163l-2 -270c-23,-10 -76,-23 -93,-39zm3622 -65c26,0 30,5 50,10 -5,21 -14,30 -20,55 -14,-10 -27,-46 -30,-65zm697 48c-10,0 -26,3 -32,-6 -2,-3 0,-25 1,-28 3,-12 27,-26 40,-34 40,-25 85,3 125,15 -14,30 -21,9 -7,49l-128 5zm-1338 25l-67 216 -208 -22c3,-31 39,-103 61,-107 29,-5 47,33 139,4 -14,-13 -70,-33 -86,-40 -182,-70 -201,-35 -217,-149 205,-8 258,68 379,97zm-1197 -83c71,33 60,39 72,89 -30,23 -111,48 -149,18 -31,-24 -48,-88 -55,-139 46,6 94,15 132,32zm-4597 -16c42,-59 218,-71 246,144 -24,-8 -67,-36 -93,-50l-26 -19c6,-14 17,-22 26,-30l-153 -44zm5205 175c5,-61 44,-172 46,-198l73 8c-8,34 -29,78 -41,113 -25,75 -6,53 -78,77zm-2773 -69c25,-53 105,-72 171,-93 55,-18 147,-54 202,-65 -12,32 -41,48 -72,66 -27,16 -57,29 -88,41 -55,21 -149,51 -214,51zm-2006 -190c19,17 27,42 47,48 15,4 60,-8 81,-11 48,-5 128,-12 177,-9 -10,32 -19,15 -12,59 -113,54 -211,69 -344,34l51 -121zm4483 32c-23,14 -45,28 -72,37 4,-16 1,-10 -2,-29l74 -7zm1746 -70c-1,29 -9,67 -25,84 -23,1 -79,-33 -91,-49l117 -36zm236 -8l-10 79c-17,-9 -38,-29 -36,-61l46 -19zm-7685 45c1,-27 12,-37 17,-67 16,7 25,14 33,34 -11,11 -29,28 -50,33zm968 -29c10,-49 21,-66 53,-89 137,-103 113,39 65,66 -11,6 -99,20 -118,24zm6260 -105c-4,-80 -12,-124 22,-188 7,45 31,147 12,179 -17,27 2,-11 -34,10zm-6674 -7c-169,-30 -78,-261 -52,-285 20,36 41,222 52,285zm1849 -178l-10 -46c14,7 12,7 23,18l19 25 -32 2zm-970 528c20,-10 93,-25 121,-32 41,-10 81,-21 121,-33 82,-26 141,-60 203,-101 38,-25 76,-43 82,-72l70 -390 92 14c0,17 -16,36 -27,49 -16,21 -28,19 -41,34 -17,19 -18,102 -20,134l309 0c-10,43 -68,115 -96,139 -45,38 -93,50 -163,66 -14,83 -37,140 -29,230 39,22 185,67 205,86 -86,47 -132,33 -226,9 -89,-22 -100,5 -164,-114 -18,7 -27,23 -46,36 -148,101 -355,6 -393,-55zm3576 -605c146,46 102,17 102,127 -89,10 -118,-8 -181,-42 -51,-27 -102,-43 -119,-107 76,-19 130,1 199,22zm-3705 262c-123,-32 -123,-162 -153,-283 25,45 53,93 77,139 21,40 64,106 76,144zm3858 -94c12,-17 39,-40 55,-54 20,-16 34,-33 54,-50 47,-40 36,-76 121,-96l-68 285 -162 -85zm-2834 -201c27,14 48,49 57,53 -60,-4 -51,-27 -57,-53zm-1389 -78c14,-22 61,-64 70,9 -13,0 -23,-1 -36,-2 -5,0 -14,-1 -18,-2l-16 -5zm1434 473c13,-139 102,-146 151,-228 28,-47 33,-84 46,-143 11,-51 33,-90 41,-146 28,9 37,20 75,24 -15,30 -79,65 -47,172 36,120 49,75 125,107 -34,11 -33,-39 -141,73 79,22 250,-5 283,119 -34,13 -63,44 -115,41 -37,-2 -86,-21 -126,-27 -120,-19 -184,11 -294,9zm-182 -512c18,-14 40,-37 59,-48 31,29 32,61 85,75 2,27 -1,61 -11,83 -15,-3 -33,-12 -48,-17 -28,-10 -16,-5 -31,-29 -15,-24 -39,-42 -54,-63zm194 -29c122,23 105,30 79,130 -35,-15 -34,-19 -55,-51 -19,-29 -20,-37 -24,-78zm-1032 -56l34 71c1,0 3,-2 4,-2 16,-7 16,-14 28,19 55,153 8,196 187,296 34,19 143,83 152,121 12,49 -102,113 -136,131l-62 -57c-152,-154 -136,-283 -182,-416 -37,-108 -65,-79 -46,-124 5,-11 15,-30 21,-40zm2926 165c17,-5 60,-27 74,-36 19,-12 22,-49 36,-73 14,-24 29,-42 45,-64 19,-24 16,-30 72,-42l-91 274 -301 40c84,34 338,61 447,76 74,11 155,15 226,33 57,14 134,50 156,102 -123,71 -221,48 -358,10 -100,-28 -265,-63 -371,-23 91,52 375,81 502,121 128,40 378,94 389,229 -103,-3 -211,-15 -313,-25 -47,-4 -96,-18 -129,-40 -42,-28 -45,-52 -64,-100 -19,9 -29,22 -44,35 -17,14 -25,16 -18,43 -65,-5 -164,-60 -234,-72 -13,22 -22,58 -33,83 -49,114 -64,109 -72,273 -11,-7 -126,-136 -132,-150 14,-23 31,-44 58,-59 28,-16 57,-24 48,-69 -125,-9 -159,19 -205,21 -33,1 -117,-73 -131,-92 7,-10 29,-27 41,-36 22,-16 152,-41 170,-53 11,-7 27,-49 31,-62 -140,-45 -179,-4 -276,59 -20,13 -38,24 -59,36 -34,20 -28,16 -64,0 -41,-18 -88,-35 -130,-54 -30,15 -57,58 -142,81 -65,17 -127,16 -194,25 -69,9 -117,29 -159,65 -34,29 -74,77 -122,97 -55,23 -106,41 -158,66 -212,100 -93,79 -211,30 -80,-33 -91,9 -200,-74 -6,-5 -11,-8 -17,-13l-10 -11c0,-2 -2,-2 -2,-3 119,-81 509,-92 625,-178 53,-39 77,-84 155,-109 -3,-30 -32,-76 -44,-105 17,-8 31,-8 50,-14 21,-7 22,-14 40,-21l-22 104c102,-4 110,-4 158,54 36,-9 88,-35 126,-50 82,-31 67,-13 88,-84l-205 22c-17,-65 -25,-127 11,-179 14,-19 91,-99 106,-109 0,42 -6,87 -26,119 -12,18 -16,25 -31,39 -9,9 -23,19 -29,34 147,11 117,31 162,-66 34,9 72,50 145,66 -21,-98 -210,-307 -218,-348l243 136c28,15 29,0 86,-18 112,-36 327,-62 456,-52 20,23 55,82 69,110zm747 -274c-19,26 -151,109 -189,134 -77,51 -132,95 -229,95 -1,-32 -3,-10 -10,-35 36,-8 66,-30 109,-25 23,2 18,8 36,10 29,2 81,-55 109,-74 -5,-18 -5,-6 -10,-25 10,-14 10,-7 15,-25 -50,0 -194,29 -244,30 12,-52 48,-67 81,-83 76,-36 73,-46 114,-17 108,76 90,72 160,42 22,-9 35,-21 58,-26zm5 -5l-5 5 5 -5zm301 127c49,-96 139,-130 280,-131 -31,21 -98,47 -139,67 -40,19 -103,51 -141,64zm-301 -127l0 0zm15 -10l0 0zm5 -5l-5 5 5 -5zm5 -5l-5 5 5 -5zm5 -5l-5 5 5 -5zm10 -5l-10 5 10 -5zm5 -5l-5 5 5 -5zm-1632 -4c-12,31 -26,28 -34,66 -9,43 -12,39 1,60 6,10 2,2 6,10 -28,-17 -11,-1 -18,-22 -11,-35 -32,-27 -49,-69l94 -45zm1637 -1l-5 5 5 -5zm5 -5l-5 5 5 -5zm5 -5l-5 5 5 -5zm5 -5l-5 5 5 -5zm5 -5l-5 5 5 -5zm-816 -50l0 0zm357 50c8,-51 9,-51 50,-71 26,-13 59,-24 92,-30 -16,69 -72,84 -142,101zm-1373 -75c12,-11 18,-14 35,-15l0 10c-17,0 -19,3 -35,5zm-924 -1c2,-55 49,-62 99,-69 -15,17 -30,23 -49,36 -13,9 -38,27 -50,32zm1571 -74l0 0zm1087 -131c-12,16 -38,31 -54,40l2 -19 -19 -13 70 -8zm-1952 -15c-6,13 -1,6 -11,17l-74 65 -6 -61 91 -20zm1342 -43c-10,43 -30,38 -70,35l70 -35zm0 0l0 0zm-4091 -40l0 0zm2720 -71c40,-56 161,-192 217,-217 -40,81 -21,112 -21,113l120 -2 37 -71c-1,21 -3,50 -19,63 -20,16 -6,-11 -42,38 -56,76 -169,184 -255,225 56,-133 148,-102 161,-175 2,-10 5,-43 3,-52 -2,-10 6,-8 -25,-31 -125,38 -95,66 -177,110zm597 -369c55,10 50,11 63,61l-58 0 -5 -61zm-87 -8c-4,19 -20,45 -35,55 -6,-13 -15,-31 -15,-50 22,0 23,-5 50,-5zm0 0l0 0zm-187 63c32,-64 65,-102 138,-129l-6 72 -132 57zm650 -182l0 0zm-10 10c-24,2 -28,13 -55,15 20,-38 5,-67 55,-124 0,32 -8,93 0,110zm-1148 292c37,-102 297,-309 385,-350 -17,58 -137,158 -180,191l-205 159zm-1020 -443c37,-30 44,-64 139,-79 -18,17 -125,74 -139,79zm5194 2256c-17,0 -19,-4 -35,-5 -15,-1 -29,1 -44,-1 -21,-2 -59,-7 -80,-9 0,-82 -1,-150 -18,-216 -14,-53 -28,-144 -77,-157 -5,23 -17,48 -24,70 -23,71 -59,146 -149,138 -74,-75 -145,-133 -245,-173 -75,-30 -255,-78 -338,-80l-94 145c-33,54 -95,192 -118,250 -5,13 -7,22 -12,33 -108,-25 -95,-29 -107,-67l-47 -127c63,0 111,5 169,5 0,-39 -5,-59 -5,-100 0,-35 0,-70 0,-105 72,-48 92,-14 206,-147 11,-13 18,-17 23,-32 -93,0 -148,50 -175,11 -20,-28 4,-21 -34,-41l-51 103c-7,13 -12,24 -18,36 -21,-11 -38,-26 -65,-29 -40,-5 -56,4 -76,23 -45,44 -52,80 -123,46 0,-83 87,-147 149,-184 15,-9 25,-17 43,-26l181 -93c37,-19 258,-113 274,-134 -174,0 -227,19 -380,93 -16,8 -54,39 -73,-3 -9,-21 6,0 -5,-25 -77,0 -126,20 -179,20 0,-59 31,-87 45,-110 39,-61 -8,-112 44,-115 117,-7 98,-24 156,-83 12,-12 29,-30 34,-46l-139 20c56,-83 83,-63 154,-105 13,-8 44,-24 50,-40 -140,33 -178,37 -330,88l-216 68c-106,33 -119,50 -157,122 -15,29 -38,65 -63,81 0,-143 42,-151 154,-209 100,-52 109,-75 241,-127 96,-38 233,-85 338,-115 26,-8 48,-12 71,-23 22,-10 112,-50 121,-63 -25,0 -66,8 -92,13l-519 123c-22,4 -70,14 -96,14 4,-15 -1,-6 12,-18 38,-34 121,-59 167,-71 37,-10 67,-20 100,-35 31,-14 59,-33 85,-55 -132,0 -244,41 -334,84 -24,11 -47,23 -69,36 -79,46 -62,44 -96,113 -12,24 -23,53 -43,66 0,-26 6,-38 15,-55 -26,-6 -40,-18 -75,-20 -54,-3 -43,12 -75,20 39,-73 86,-114 157,-156 158,-95 298,-117 457,-170 31,-11 213,-61 232,-87 -262,0 -400,73 -638,138 -24,7 -69,21 -94,21 60,-90 236,-174 324,-174l0 -5c-161,0 -383,83 -529,148 -108,48 -364,171 -455,227 -26,16 -106,57 -135,64l61 -58c32,-32 59,-61 97,-87 130,-86 151,-89 278,-150l358 -134c34,-10 61,-20 95,-30 86,-25 420,-118 500,-118l0 -5c-28,0 -43,3 -69,5 -19,2 -46,3 -69,6l-132 17c-124,16 -259,40 -371,82 -89,33 -125,51 -224,75l-125 29c23,-97 120,-114 217,-146l193 -76c12,-6 19,-8 32,-13 6,-3 12,-6 17,-8l15 -10c-74,0 -180,27 -239,44l-428 144c-112,42 -158,93 -188,100 5,20 11,15 8,38 -2,17 -8,24 -8,42 -167,0 -357,147 -383,154 20,-74 269,-227 351,-277 30,-18 112,-65 127,-87l-132 47c-43,18 -82,35 -123,56 -216,108 -407,258 -614,382 -15,9 -46,29 -61,33 33,-49 138,-125 191,-162 128,-89 108,-172 287,-286 10,-6 16,-10 28,-17 20,-13 34,-24 53,-37 60,-41 94,-73 138,-130 17,-22 45,-36 0,-31 -92,9 -184,48 -254,100 -203,152 -227,123 -283,155 -49,28 -103,86 -143,126l-175 183c0,-70 9,-60 10,-90 -27,6 -53,14 -80,20 30,-45 71,-77 102,-122 41,-59 93,-143 157,-176 55,-28 174,-97 189,-154l-100 25c51,-96 64,-70 84,-110 8,-15 13,-34 20,-50 16,0 98,4 98,4 17,-4 86,-90 100,-109l31 -43c10,-11 1,-9 19,-11 13,27 -8,25 -15,50 33,-3 56,-15 95,-15 -7,-26 -15,-9 -14,-34 0,-9 10,-28 14,-36l-20 0c1,-1 3,-3 3,-2 1,1 3,-1 4,-1 38,-15 33,-22 68,-87 10,8 29,37 39,51 3,4 5,7 9,11 1,1 2,2 2,3l10 10c15,16 4,15 24,21l20 -175c5,-29 9,-34 -51,-26 -33,5 -56,6 -86,13 -85,22 -203,95 -291,103 0,155 -5,50 -20,105 -26,-12 -73,-28 -108,-13 -22,10 -55,50 -61,73 -17,-12 -15,-17 -15,-45 -16,6 -7,-11 -10,15 -22,0 -24,2 -40,-5 25,-37 225,-162 254,-179 86,-50 199,-98 307,-126 123,-32 232,-43 389,-44 109,-1 268,24 353,25 26,0 28,5 50,5 -10,-13 -10,-10 -29,-16l-31 -14c29,2 124,32 158,42 79,23 293,100 370,138 23,12 47,21 71,33 48,24 88,45 134,70l312 196c59,42 45,25 30,45 10,1 20,2 30,5 22,4 10,0 26,14l67 53c9,7 16,11 22,18 7,8 18,47 19,61 81,0 20,-23 111,53l346 361 232 305c100,151 221,332 300,491 27,56 64,115 92,177 16,35 107,214 114,244l30 -6 0 80c-15,4 -115,70 -124,85 91,44 94,5 108,46 5,15 10,28 11,43 -66,0 -115,-6 -179,-5 -53,1 -51,8 -50,-45 1,-32 -5,-52 -5,-90zm-2235 -2419c0,0 1,1 1,1 0,0 1,1 1,1l-2 -2zm-2800 73c35,-33 48,-79 127,-81l-127 81zm2591 -113c37,0 77,12 115,19 9,2 8,1 17,3 2,0 6,2 8,2 11,4 5,1 10,5 -26,0 -56,-6 -80,-10l-70 -20zm0 0l-20 0c9,-6 -11,-6 10,-4 11,1 4,1 10,4zm-35 -10c5,-5 19,8 6,3 0,0 -14,6 -6,-3zm-1304 302c41,-88 257,-202 354,-242 126,-53 328,-112 483,-109 -42,47 -350,114 -438,159 -69,35 -123,70 -191,108 -58,32 -131,75 -208,84zm-413 192c16,-49 122,-164 163,-201 158,-138 485,-369 701,-377 -35,35 -178,93 -238,124 -190,97 -274,163 -435,287 -35,27 -63,56 -96,83 -33,27 -62,61 -95,84zm-67 -599c-5,4 -51,29 -59,31l-3 -56 61 25zm940 15c15,-20 42,-27 67,-35 43,-14 39,-15 88,-12 -9,23 -133,60 -155,47zm-1942 177c57,-109 415,-217 557,-256 74,-20 40,-8 93,0l-7 48 227 -49c-9,32 -12,38 -39,51 -42,19 -179,46 -220,48 23,-10 43,-8 25,-48 -61,-4 -129,15 -173,39 -2,20 -4,25 5,39 -36,5 -36,12 -65,6 -37,-7 -206,111 -402,122zm-1445 833c5,-19 10,-13 15,-35 -17,11 -49,35 -47,58l2 11c-1,8 -43,65 -50,75l-107 152c-38,53 -72,100 -101,158 -23,46 -43,82 -73,121 -44,57 -58,21 -99,-17 -12,-11 -18,-13 -30,-25 -14,-14 -12,-16 -34,-21 -13,56 -74,211 -95,264 -26,66 -88,190 -139,224 0,-50 13,-116 8,-156 -4,-29 -9,-43 -25,-60 -12,-14 -36,-30 -58,-32 0,88 -30,169 -30,259 -32,-22 -48,-62 -79,-85 -44,-32 -67,-26 -125,-40 2,27 116,265 139,309 -73,0 -148,-12 -217,12 -25,8 -35,17 -61,23 10,39 112,47 144,50 64,6 114,17 169,30 -36,69 -40,45 -68,76 -23,25 -68,141 -71,173 41,0 130,-10 155,-24 36,-19 50,-73 84,-96 -10,43 -10,97 -20,139l179 -10c-11,21 -17,24 -32,43 -79,101 -178,191 -214,319 -11,38 -27,73 -44,105 -32,60 -70,139 -124,179 -157,116 -109,148 -195,263 -98,131 -26,-75 -138,230 -30,82 -13,18 -85,54 -49,24 -98,60 -119,110 -9,21 -17,25 -33,42 -39,39 -55,32 -25,92 11,21 22,24 33,41 -34,23 -50,55 -80,75 0,-19 4,-40 11,-49 8,-11 8,5 4,-6l-26 -3c-14,-4 -13,-8 -29,-11 -40,27 -114,96 -153,131l-158 136c-25,19 -26,28 -46,48 -18,18 -32,32 -50,50 -35,34 -74,43 -110,80 -48,49 -104,87 -149,140 -14,17 -26,41 -39,60 -58,87 -80,103 -142,171 -1,1 -2,2 -2,3 -121,130 -96,66 -193,260 -11,22 -21,40 -31,63 -61,147 -107,297 -111,466l-6 93c-7,50 -13,124 -58,136l0 70 20 0c-13,26 -1,44 0,70l-15 0c2,74 37,42 9,303 -6,58 -28,117 -29,135 -4,50 0,118 0,169 -25,-17 -85,-88 -35,-5 65,109 60,294 35,414 17,-13 29,-38 41,-55 11,-17 24,-41 35,-53 26,31 33,63 -3,86l-83 56 -5 10c-17,33 -22,58 -34,85 17,26 26,27 19,83 -12,85 6,160 64,222 13,14 0,7 17,13l24 -280c11,-88 -14,-59 53,-97 92,-51 78,-25 113,-41 -2,23 -31,90 -41,113 -41,94 -66,136 -53,255 5,45 4,98 4,150 10,6 212,152 214,169 1,11 -40,49 -49,56 -20,15 -44,24 -67,37l-138 76c0,186 32,309 214,309 16,-30 35,-53 54,-81l43 -61c12,-13 7,-2 18,-17 -7,-14 -30,-48 -44,-55l-20 -4c-28,-27 -6,-93 43,-121 15,-9 26,-19 41,-23 0,-37 0,-73 0,-110 0,-43 -5,-65 -5,-104 0,-35 -2,-75 0,-110 2,-28 9,-72 10,-100 119,0 210,22 299,-25 0,106 -14,74 -48,91 -32,15 -62,55 -81,77l172 -36 -96 138 53 9 2 46 -46 -1 -9 -52c-31,14 -48,70 -78,81 -55,-36 -19,-105 -2,-179 -40,38 -87,115 -86,169 1,75 69,133 80,179 18,-5 20,-14 34,-26 40,-36 78,-44 136,-44l40 -110 267 8c122,-18 111,-9 206,-73 40,21 72,82 108,49 12,-11 56,-100 61,-119 17,11 34,35 46,54 53,84 17,232 -21,235 -23,-2 -34,-21 -62,-28 -29,-7 -60,1 -82,3 5,20 34,78 48,91 15,14 28,15 49,7 29,-12 85,-44 109,-66 25,-23 59,-72 67,-107 16,12 15,23 20,45 34,0 25,7 50,20 21,-44 7,-58 30,-70 15,-8 68,-9 90,-15 0,150 -36,108 -141,142 -37,12 -64,27 -98,42 -23,10 -78,37 -105,40l23 97c19,95 19,203 96,272l68 51c103,68 158,24 248,56 21,7 27,15 48,17l30 -139c33,8 74,34 105,35 4,-18 31,-62 40,-80 10,-21 35,-63 40,-85 -84,45 -165,121 -274,105 -41,-6 -61,-18 -94,-35 31,-134 103,-115 184,-154 -9,-38 -35,-74 -45,-114 5,-7 52,-46 70,-69 54,-67 90,-82 166,-123 23,-12 64,-48 77,-67l-74 25c-19,6 -58,16 -75,24l-22 -102c-15,-57 -156,-146 -205,-173 -138,-77 -177,-114 -231,-276 -123,-367 151,-437 220,-732 -32,21 -204,247 -240,287 -42,48 -88,223 -89,295 -1,58 4,93 16,139 19,71 60,140 110,194 62,67 131,120 201,177 16,13 28,24 44,36 83,65 100,104 77,206 -18,84 -102,109 -109,199 -55,-5 -152,-34 -174,45 -13,46 -17,98 -35,145 -5,15 -11,28 -15,45 -18,-5 -63,-31 -72,-48 -15,-30 -7,-76 -2,-110 12,-82 41,-111 103,-146 103,-59 219,-64 219,-279 -54,-12 -207,-134 -256,-177 -9,-8 -16,-15 -23,-22 -107,-111 -162,-251 -138,-427 13,-100 31,-204 53,-300 -40,27 -89,117 -104,170 -11,40 -15,73 -23,116 -8,43 -19,73 -28,112 -17,-13 -10,-42 -14,-66 -20,-150 46,-336 123,-452 -85,0 -127,50 -164,115 -31,54 -55,111 -71,173l-7 22c0,1 -1,2 -2,3 0,-128 59,-255 114,-329l94 -125c32,-43 58,-99 41,-174 -36,19 -60,38 -88,66 -25,25 -54,58 -80,79 -60,48 -164,120 -214,175 -123,134 -101,261 -101,442 -31,-35 -30,-111 -30,-154 0,-65 15,-107 33,-156 31,-88 91,-173 111,-262 -31,3 -106,58 -126,78 -22,22 -32,30 -48,56 -10,15 -31,58 -40,65l0 -114c-27,1 -59,11 -78,21 -27,15 -27,40 -30,74 -4,41 3,149 -31,174 -5,-23 -12,-35 -17,-62 -37,-202 141,-394 272,-524 133,-131 193,-298 252,-475 33,-99 83,-180 135,-268 63,-107 127,-166 187,-296l25 -55c0,-1 1,-2 2,-3 -1,60 -61,186 -84,235 -35,74 -75,142 -110,213 -49,100 -144,243 -102,360 15,42 34,76 67,98 21,-14 61,-67 70,-94 4,-11 9,-59 10,-75 0,-15 0,-23 2,-38l5 -30c0,-1 1,-3 1,-4 0,-1 1,-2 1,-4 11,48 35,287 35,324l10 0c2,-29 20,-63 28,-92 54,-213 5,-279 70,-418l126 -247c68,-138 106,-199 125,-367 16,-143 -12,-251 3,-356 6,-42 -3,-79 6,-118 22,25 28,66 37,98 63,233 -27,530 -93,757 -5,17 -12,40 -13,57 57,-13 64,-41 90,-60 -11,47 -19,104 -24,155 -9,77 -17,352 23,414 9,13 10,13 22,22 10,8 20,15 29,21l13 -171c24,-161 -24,-177 70,-437 6,-15 10,-20 11,-39 25,7 3,9 35,10 -5,10 -9,28 -13,42 -70,215 -51,207 -62,436l-20 254c-9,110 21,183 20,259 -1,99 -148,307 -207,405 -9,14 -14,25 -22,38 -41,68 -88,151 -95,234 -12,153 102,264 198,359l237 206c59,45 212,142 306,142l-10 -15c22,5 19,8 20,15 1,6 -15,-8 2,8 14,13 30,1 47,-3 0,22 -10,67 -14,86 -7,31 -15,52 -32,72 -20,23 -35,20 -51,53 -10,21 -17,58 -17,87 48,-11 114,-71 140,-119 30,-56 45,-138 18,-209 -12,-32 -25,-61 -45,-84 -11,-13 -18,-22 -31,-34 -58,-53 -91,-47 -153,-106 -28,-27 -28,-14 -34,-36 54,-14 27,-63 20,-145 -3,-37 3,-61 5,-89 2,-33 -9,-60 -10,-89 -19,13 -14,23 -33,20 0,0 -1,-1 -2,0 -31,134 -30,51 -30,209 0,36 8,42 10,70l-44 -36c-14,-16 -11,-41 -15,-64 -32,-189 -33,-313 44,-487 64,-145 36,-226 78,-331 12,-31 40,-86 62,-102l25 199c26,-19 50,-118 73,-171 9,-21 21,-36 26,-58 28,7 36,-4 58,-22 48,-38 101,-94 114,-159 31,-146 82,-357 158,-484l107 -172c16,-27 58,-89 65,-119 -13,9 -22,25 -36,39 -15,14 -25,25 -40,40 -47,47 -115,101 -155,153 -53,68 -34,50 -63,92 2,-110 169,-319 224,-413 83,-143 119,-371 96,-539l-6 -312c0,-414 78,-418 124,-757 3,-23 10,-53 10,-74 -17,13 -78,196 -85,218 -61,198 -64,330 -64,543 0,50 0,100 0,149l-21 357c-30,232 -22,320 -179,508l-54 60c-26,29 -63,80 -93,101 10,-123 107,-231 161,-337 104,-204 74,-430 73,-664l10 -239c2,-75 29,-277 30,-343 0,-39 10,-79 10,-119 -8,12 -38,135 -42,152 -58,232 -43,315 -43,555 0,197 3,364 -54,538 -12,36 -45,110 -70,129 16,-67 31,-47 52,-202 16,-115 7,-250 8,-371 0,-82 -10,-159 -10,-244 0,-43 0,-86 0,-129 0,-35 2,-84 7,-117 3,-20 2,-40 5,-60 13,-88 32,-174 58,-261 10,-32 20,-63 30,-95 11,-33 20,-63 32,-98 22,-66 37,-132 53,-201 -19,13 -41,41 -55,60 -92,127 -119,289 -146,442 -11,65 -10,152 -18,221 -8,68 -1,374 -1,467l-11 223c-4,30 -8,71 -16,104 -8,34 -21,61 -28,92l-11 -59c-2,-17 -3,-47 -6,-68l-8 -141c1,-100 0,-199 0,-299 0,-104 5,-194 5,-294 0,-50 0,-100 0,-149 0,-55 -5,-91 -5,-144l-10 0c-5,22 -10,36 -17,58 -57,188 -42,433 -43,634 0,52 5,93 5,149l-5 259c0,26 4,19 -10,29 -4,-17 -9,-22 -16,-39 -5,-14 -10,-30 -14,-45 -78,-296 -19,-906 52,-1188 18,-72 80,-302 137,-341 14,30 48,113 70,129 16,-69 22,-135 66,-188 15,-19 24,-33 44,-46 18,12 30,42 34,66 3,21 -5,35 11,46 0,0 2,1 2,1l9 5c31,21 -26,-8 8,6 6,-71 100,-138 154,-174 0,46 -15,85 -15,134l110 -60c0,88 -53,154 -60,239 13,-10 88,-138 95,-164 39,0 91,-3 129,0 68,6 52,-8 105,20 -71,107 -165,426 -187,550 -31,172 -32,292 -32,461 0,258 58,528 -83,763l-138 236c-16,27 -29,50 -43,76l-69 116c-59,97 -178,285 -151,399 8,35 18,62 24,100 6,38 7,76 7,118 0,39 -2,80 -6,119 -5,45 -29,182 -29,220 48,13 132,181 139,214l10 0c2,-19 14,-56 21,-74l47 -152c8,-29 15,-49 22,-78 57,-13 131,-30 189,-35 -7,14 -20,72 -24,90 -22,97 -47,190 -62,292 -9,64 -20,137 -34,200 -7,30 -14,61 -22,93 -7,28 -22,71 -22,97 14,-9 92,-79 97,-92l14 -225c11,-83 28,-191 83,-255 0,176 4,322 -39,489 -6,23 -15,39 -16,64 146,-98 91,-226 112,-366 39,-257 117,-175 191,-286 -28,7 -61,33 -90,40 5,-21 17,-86 26,-98 16,-22 58,-35 73,-56 -12,-18 -35,-30 -55,-40 0,-32 14,-42 29,-60 15,-18 28,-34 46,-49l6 4c15,7 -9,3 18,6 6,-24 62,-110 78,-137 29,-48 47,-96 85,-134 24,-24 35,-24 36,-68l10 -319c10,2 28,7 38,12 19,8 16,8 22,28 7,22 19,53 35,65 4,-45 38,-130 52,-177 10,-32 16,-57 26,-88 9,-28 16,-65 27,-88 75,36 25,-11 82,63 9,12 15,15 23,27l138 -26c35,-9 100,-29 140,-29 12,17 14,48 30,60 20,16 156,100 174,105 -1,-48 -34,-85 -70,-110 4,-19 11,-21 15,-40 56,5 74,56 99,96 73,120 30,243 9,375l-13 137c24,7 91,49 114,65 6,-14 13,-43 18,-61 7,-24 11,-42 19,-66 30,-92 62,-216 148,-270 18,-11 38,-17 58,-27 13,-6 35,-21 49,-31l84 -86c45,-64 102,-257 137,-281 0,98 -10,196 -10,299l52 -13c30,-18 67,-43 103,-52 -2,-28 -19,-50 -27,-77 -27,-94 -33,-182 -33,-286 36,52 78,199 93,255 23,82 56,197 56,298 -7,-2 -14,-3 -20,-5 -43,-13 -59,-78 -104,-90 0,48 -6,87 -11,134 -9,88 -34,138 -93,196 -21,21 -54,59 -76,73 3,-33 33,-95 45,-129 15,-42 30,-90 49,-130 -50,4 -123,50 -161,78 -114,85 -116,205 -139,339 -8,49 -20,94 -40,139l-14 30c-3,5 -6,8 -9,11l-39 -120c-10,-28 -46,-81 -75,-89l0 125c3,47 13,79 10,129 -3,55 -55,279 -71,347 -10,42 -13,74 -28,111 -7,18 -12,31 -23,46 -24,34 -59,17 -105,104 -77,144 -111,283 -8,418 21,27 39,54 62,77 15,15 18,23 32,37 56,58 116,127 136,213 -12,8 -14,12 -28,22 -12,8 -17,12 -29,21 -41,30 -89,47 -139,60 -16,4 -25,6 -40,10 -19,5 -29,4 -38,17 30,7 60,25 86,38 37,18 47,25 68,56 -50,1 -115,17 -165,24 -29,4 -30,4 -8,29 101,112 -8,92 -26,161 38,0 62,5 105,5l-18 37c-8,13 -13,21 -23,32 -22,23 -59,32 -64,51 31,3 72,20 95,35 -3,38 -6,28 4,66 7,26 19,35 21,59 -85,20 -124,51 -157,131 -29,70 -29,122 -65,224l-96 262c-10,26 -7,29 -33,42 -26,13 -78,42 -101,48 5,17 44,50 65,45 27,-18 44,-69 60,-100 25,0 50,7 73,12l105 21c38,7 41,-18 87,-42 -6,-28 -25,-52 -6,-95 7,-16 129,-95 147,-107 120,-80 233,-165 383,-185 21,-3 70,3 82,10 34,17 14,150 82,201 36,27 80,47 117,72 -14,22 -59,44 -83,61 -33,24 -49,46 -71,78 22,15 63,67 95,68 19,1 0,1 17,-4l17 -4 -26 -79 145 -5c0,-19 -1,-39 1,-58 2,-15 8,-38 9,-56 59,43 48,121 149,129 0,139 5,263 5,403 72,-48 3,-47 144,-80l100 119c40,-21 75,-54 114,-75 5,11 8,28 13,42 13,38 25,88 42,123 -18,12 -37,34 -54,51 -17,18 -28,48 -31,79 75,0 132,-5 204,-5 -7,26 -36,47 -51,69 -10,14 -9,14 -9,36 90,21 112,34 166,-43 14,-20 19,-33 48,-37 85,-12 210,-21 289,-40 2,20 5,23 5,50 54,4 16,33 79,-5 24,-14 50,-31 75,-45 0,-46 9,-179 -5,-209 30,1 12,1 23,7 22,13 45,17 67,28 7,-29 17,-65 25,-94 10,-32 24,-68 24,-100 24,6 146,127 288,-6 15,-14 50,-62 56,-84 -101,-54 -65,-45 -115,-123 -32,-50 -70,-88 -119,-120l0 -279c-17,4 -80,20 -92,27 -25,16 -28,55 -32,88 -19,174 41,212 137,329 49,60 34,120 -28,153 -13,-24 -19,-47 -28,-76 -8,-27 -15,-51 -30,-74 -33,-49 -89,-64 -150,-64 -7,-30 -25,-234 -35,-244 -18,-18 -119,70 -134,129l-10 0c-25,-108 -39,-90 38,-206 20,-30 36,-54 56,-84 10,-15 17,-27 27,-43 10,-17 18,-30 19,-56 -14,-8 -22,-11 -35,-20 -47,41 -100,68 -157,122l-46 49c-12,13 -17,21 -30,35 -13,14 -16,23 -31,34 0,-122 30,-233 40,-354 11,-136 -11,-257 -29,-364 -21,-123 -16,-252 29,-343 12,-23 22,-43 35,-64 20,-34 119,-155 124,-174 -100,23 -135,29 -200,103 -16,19 -30,40 -47,57l-49 50c-11,9 -16,14 -25,25 -11,15 -14,16 -26,29 -29,31 -61,85 -96,108 27,40 10,76 0,139 -19,114 -44,173 -11,290 31,109 41,163 -21,266 -56,93 -93,135 -61,254 11,41 33,97 33,136 -60,-44 -100,-162 -100,-234 -13,3 -15,7 -26,13 -34,20 -57,24 -58,76 -16,-19 -34,-49 -40,-75l132 -62c20,-14 29,-32 38,-56 7,-18 22,-57 23,-76 -10,5 -20,9 -31,14 -58,30 -109,68 -159,110 -14,12 -8,14 -29,15 -7,-82 -77,-175 46,-263 16,-12 29,-16 46,-28 48,-35 37,-36 62,-88 26,10 32,50 58,61 8,4 91,22 101,23 -4,-48 -34,-101 -62,-137 -34,-43 -90,-57 -147,-27 10,-36 43,-41 55,-65l5 -15c10,-51 16,-94 15,-144 -1,-43 -7,-36 5,-74 6,-19 23,-50 24,-70 -66,32 -101,-13 -110,64 -2,16 -6,36 -8,52 -5,37 -11,66 -21,98 -42,131 -137,304 -293,304 6,-26 6,-14 0,-40 18,-4 34,-15 52,-23 27,-13 23,-18 39,-40 41,-55 24,-48 18,-116 -6,-71 6,-125 37,-188 9,-18 19,-36 38,-41 1,28 13,72 30,85 8,-17 15,-78 15,-105 -48,-1 -134,-16 -190,4 -48,18 -83,66 -84,120 17,-19 34,-40 58,-51 11,-5 74,-22 86,-23 0,129 -74,140 -98,245 -8,33 -15,64 -29,90 -39,67 -183,40 -212,9 -1,-1 -13,-17 -13,-17 -10,-18 1,-39 9,-69 4,-15 9,-31 20,-40 27,7 35,55 68,13 19,-24 44,-66 47,-98 -53,0 -101,-10 -159,-10 14,-30 37,-85 40,-125 5,-62 -10,-107 -10,-159 21,0 49,6 66,9 44,5 186,13 213,26 -9,-35 -50,-46 -78,-61 -112,-62 -91,-39 -57,-128 18,-46 8,-125 36,-168 7,-11 13,-18 23,-26 10,-8 21,-18 31,-24 24,102 -23,151 7,242 17,53 77,136 117,162 37,23 72,15 120,10 61,-6 47,-26 62,-78 12,-41 62,-183 63,-221 -22,0 -17,4 -40,5 -19,1 -31,-2 -45,5 -22,7 -1,-2 -11,15 -6,10 -13,14 -16,23 -7,17 -3,46 -13,67 -16,-11 -11,-8 -20,-25l-18 17c0,1 -1,2 -2,3 -19,-81 -17,-93 12,-182 7,-20 13,-37 18,-57l-75 -75 37 -103c12,-36 22,-73 38,-106 -33,3 -85,28 -105,44 -26,21 -60,50 -89,65 21,-89 80,-139 136,-203 13,-15 17,-22 32,-37 24,-24 40,-53 56,-83 -31,1 -124,40 -154,55 8,-33 16,-61 28,-91 12,-29 21,-57 35,-85 47,-98 121,-240 136,-347 19,-139 -18,-316 39,-444 38,-88 102,-119 138,-166 43,-55 78,-67 133,-111 15,-12 17,-17 28,-31 191,-237 229,-546 417,-793 19,-25 35,-41 54,-65 29,-38 90,-87 130,-114 96,-62 244,-122 365,-122 0,-15 -2,-18 -5,-30 53,0 85,0 90,50 20,-5 16,-8 25,-25 13,9 14,11 30,20 -11,-48 -24,-49 11,-79 13,-12 6,-11 24,-16 9,17 9,23 24,36 9,8 24,20 36,24 -6,21 -20,23 -36,39l-82 72c-38,37 -84,77 -116,118 -47,59 -97,112 -138,176 -64,101 -120,212 -121,347 0,52 15,88 15,139 1,98 -4,184 -39,270 -40,100 -37,157 -13,264 24,113 60,221 98,330 6,17 1,17 18,21 0,-57 -14,-117 -20,-170 -19,-171 -37,-337 24,-503 96,-265 70,-227 70,-487 0,-67 31,-122 61,-177 94,-168 273,-282 436,-375 79,-45 136,-121 176,-202l33 -62c5,-7 42,-34 52,-43 26,-21 158,-141 171,-163l2 -12c0,-6 -9,8 1,-13 32,-62 141,-141 196,-182l59 -41c59,-36 115,-75 177,-106 85,-42 166,-87 254,-124 207,-86 412,-162 642,-219 105,-26 198,-48 309,-70 48,-10 30,-3 75,6 52,11 122,10 174,-1 27,-6 52,-20 78,-22 0,56 9,116 10,169 1,78 -11,261 -24,335 -33,194 -77,390 -150,572 -43,107 -87,212 -139,314 -33,65 -123,247 -170,283 -31,23 -78,49 -104,76 -58,63 -51,123 -77,192 -39,103 -25,168 -36,238 -7,48 8,112 1,171 -9,78 -10,174 -14,255 -1,28 -5,49 -5,85 0,35 -5,48 -5,84 0,38 -5,56 -5,89 0,161 26,165 -57,301 -30,49 -37,65 -37,142 1,122 -28,260 -90,363 -14,24 -25,31 -52,37 -281,67 -272,-39 -304,-193 -19,-91 -71,-173 -168,-190 -55,-10 -112,13 -167,13 -9,-17 -17,-36 -25,-54 -18,-40 -69,-127 -79,-165 -20,15 -52,89 -60,119 -7,25 -13,47 -5,75 11,37 29,36 35,59 -34,9 -71,52 -80,85 57,13 49,15 76,59 63,104 87,205 29,315 -44,0 -85,2 -116,-23 -10,-8 -19,-15 -28,-22 -44,-31 -85,-50 -144,-50 -9,-18 -20,-48 -25,-70 -80,0 -129,22 -194,35 -35,7 -67,18 -95,-1 -25,-17 -58,-21 -85,-34 -43,64 -114,81 -114,204l120 34c105,25 214,43 316,78 20,7 41,18 62,18 0,53 -5,91 -5,139 -240,56 -235,-44 -344,10 -17,9 -71,41 -77,57 -9,22 -4,110 3,127 10,22 41,40 58,77 53,115 27,189 132,207 65,11 54,-17 91,113 21,75 38,142 38,236 0,83 -25,158 -58,211 -29,49 -19,41 -77,58 -35,10 -72,27 -110,30 -1,-28 -12,-65 -15,-95 -34,0 -75,-9 -111,-14 -92,-13 -104,59 -188,59 -36,0 -68,-23 -109,-19 -17,2 -26,10 -32,28 -4,13 -9,37 -6,53 6,34 27,62 43,87 79,117 92,244 126,381 7,27 51,187 49,201 -4,27 -77,137 -98,155 -44,37 -117,56 -198,56 34,-51 112,-54 162,-152 11,-21 33,-94 32,-122 -1,-31 -30,-96 -50,-110l-35 259c-16,0 -35,5 -52,7 -23,4 -38,1 -62,3 -35,2 -76,7 -114,10 -171,13 -242,104 -184,278 26,79 58,95 159,95l0 -129c-19,2 -13,4 -35,5 -5,-17 -3,-9 -13,-22l-52 -68c66,-5 71,-46 184,10 94,46 178,48 283,14l160 -79c14,-10 41,-52 50,-69 140,-269 -259,-469 60,-682 4,9 6,16 10,25 63,-30 43,-17 108,-56l93 -72c28,-27 68,-83 86,-118 91,-183 47,-389 -22,-570 -17,-45 -4,-31 -45,-30 -7,-30 -23,-52 -31,-89 -9,-44 -1,-70 1,-110 3,-70 -15,-52 125,-119 45,-22 28,-26 51,-69 32,-59 72,-101 121,-148 16,-15 33,-26 47,-47 -43,-1 -101,-20 -144,-20 -3,15 1,7 -10,15 0,-49 -30,-88 -30,-164l94 45c49,21 132,52 189,56 24,2 5,5 23,-4 46,-24 10,-15 91,-48 121,-49 125,1 166,-43 26,-27 88,-81 93,-117 7,-47 -27,-68 -45,-94 38,3 35,45 62,72 43,43 143,111 197,142 8,5 13,7 23,12 104,58 230,-23 300,-93 19,-19 39,-70 41,-98 -13,1 -14,2 -25,5 101,-191 64,-380 88,-435 47,-108 86,-71 86,-267 0,-30 0,-60 0,-90l30 -587c0,-35 -5,-50 -5,-80 -1,-53 13,-184 31,-233 30,-83 55,-60 80,-99l170 -268c30,-40 84,-87 103,-166l-15 10 83 -176c50,-107 94,-234 132,-346 6,-19 22,-63 24,-85 25,0 31,-5 60,-5 -4,-16 -23,-25 -45,-40 2,-30 14,-64 21,-94 20,-85 54,-318 54,-404l0 -219c0,-21 -3,-90 -15,-104l131 -98c55,-44 110,-82 175,-108 42,-18 60,2 102,57 18,24 74,116 104,125 0,-203 -85,-285 -100,-463 53,-1 182,-65 239,-70 -13,-17 -77,-43 -100,-55 7,-28 25,-27 29,-55 13,-86 21,-65 -66,-56 -24,3 -37,-18 -57,-28 25,-47 47,-56 70,-90 33,18 296,164 299,40l-123 -56c-41,-20 -77,-42 -116,-63 5,-11 20,-206 20,-234 29,-2 125,-48 161,-63 17,-7 36,-17 53,-21 -6,-21 -67,-78 -86,-93 -24,-19 -60,-33 -88,-46l-35 -15c1,-31 14,-66 15,-100 -79,2 -77,53 -174,-10 -9,-6 -18,-11 -28,-17 -17,-10 -47,-24 -66,-28 6,-12 8,-22 13,-37 12,-34 39,-89 42,-123l-209 55c14,-62 65,-202 65,-254 -26,-6 -27,0 -45,15 -49,38 -84,88 -121,138 -41,56 -64,26 -148,26 -25,0 -50,0 -75,0 60,-125 18,-146 5,-204l-20 0c-1,16 -23,68 -30,85 -8,20 -22,65 -37,78 -12,10 -65,22 -86,29 -30,10 -53,26 -81,33 -10,-45 -127,-214 -154,-259 -10,-17 -16,-25 -27,-42l-293 -394c-106,-126 -220,-244 -341,-356 -13,-12 -21,-23 -35,-34 -17,-13 -22,-18 -37,-33l-72 -67c-19,-18 -22,-17 -42,-28 -25,-14 -15,-32 -54,-46 -13,-5 -10,-2 -23,-12 -110,-80 -221,-151 -338,-220 -213,-126 -449,-216 -687,-284 -98,-28 -354,-92 -466,-92l0 25c-32,-15 -43,-14 -110,-49 -19,-10 -38,-13 -61,-19 -24,-7 -39,-13 -65,-20 -174,-50 -335,-111 -514,-143 -48,-9 -102,-4 -150,-15 -48,-11 -80,-34 -126,-38l31 34c-46,1 -95,5 -138,-1 -23,-3 -40,-4 -61,-9 -113,-27 -31,-20 -195,-19 -60,0 -170,-26 -254,-30 -59,-3 -75,-11 -120,-25 -18,-6 -38,-7 -58,-12 -58,-14 -408,37 -446,44 -76,14 -153,31 -222,62 -31,14 -61,33 -92,47 -25,12 -30,1 -53,17 -54,37 -181,100 -240,123 -39,15 -78,14 -117,22 -18,4 -58,55 -74,70l-126 83c-13,6 -40,16 -51,24 -12,8 -24,24 -35,35 -13,12 -26,19 -39,30 -37,30 -71,74 -109,105 -29,23 -58,70 -107,107l-165 119c-28,21 -59,34 -86,53l-80 64c-53,42 -92,97 -144,140 -37,31 -39,107 -124,164z"/> <path class="fil0" d="M10173 7121c22,-33 89,-55 144,-55 56,0 108,11 161,18 45,6 54,-13 53,36 -1,37 5,54 5,85l-65 40c2,20 16,31 35,60 -85,-20 -289,-118 -333,-184zm154 -348l403 -2 69 161c-51,28 -32,31 -69,31 -89,0 -113,47 -167,11 -23,-15 -40,-29 -72,-31 -63,-4 -150,-3 -214,-2 -104,1 -102,-3 -147,-64 42,-48 157,-68 193,-105 -60,0 -231,20 -295,20 6,28 20,38 31,59 10,21 9,50 19,71 -32,8 -74,19 -98,42 -71,66 22,241 63,312 10,17 19,40 35,50 0,-22 -34,-123 -44,-170 -6,-28 -10,-75 -8,-95 5,-51 8,-50 41,-68 12,22 20,46 30,70 29,71 5,34 5,80 -1,86 176,160 239,179 64,19 100,25 184,25 -15,182 -211,147 -229,154 4,12 0,4 9,11l50 24c23,8 49,17 85,14 96,-8 135,-108 157,-187 8,-28 2,-17 5,-35 5,-27 28,-38 46,-53 20,-16 31,-33 51,-48 11,-8 13,-11 24,-21 11,-11 16,-12 27,-22 164,-143 89,43 324,-159 15,-13 109,-67 128,-71 0,-77 16,-62 1,-90 -13,-24 -28,-47 -60,-54 22,-33 81,-93 85,-139 -36,42 -19,39 -92,83 -86,52 -75,11 -127,7 3,-13 49,-64 61,-78 14,-17 53,-66 59,-86l-114 100c-12,8 -54,34 -70,34 -10,0 -70,-24 -80,-29 13,-19 32,-29 68,-82 21,-31 38,-63 47,-103l-100 114c-101,82 -66,45 -149,45 23,-34 114,-109 119,-179 -11,8 -16,19 -24,31 -8,11 -14,20 -24,30 -17,18 -39,41 -58,56 -89,69 -51,57 -172,57 10,-15 24,-20 39,-36 31,-33 82,-112 86,-153 -15,17 -37,57 -71,93 -14,15 -27,23 -43,37 -96,84 -210,93 -255,163z"/> <path class="fil0" d="M2652 9625c7,26 142,178 185,194 30,11 74,19 99,30 -24,103 15,50 -76,128l-30 29c-13,10 -21,-1 -28,27 85,0 167,-29 192,-23 41,9 67,128 67,163 0,57 -50,76 -60,119l120 -44c28,-10 29,-13 29,-36 0,-23 -2,-42 -7,-63 -6,-26 -18,-33 -23,-52 13,-19 90,-64 90,-75 0,-23 -19,-83 -20,-114 22,-10 50,14 50,-105 0,-20 -8,-27 -20,-35 -21,14 -77,91 -89,115 -5,10 -11,24 -14,36 -5,22 -3,67 -72,82l-17 -13c-56,-52 -32,-210 -6,-265 22,-48 21,-12 50,-74 13,-27 10,-6 18,-27 -118,10 -210,72 -244,80 -20,-13 -18,-14 -26,-39 -22,-67 -41,-72 139,-102 29,-5 53,-8 83,-17 30,-9 62,-25 78,-27l0 -10c-89,0 -222,-53 -332,36 -37,30 -84,66 -136,78z"/> <path class="fil0" d="M6762 6001c24,-38 161,-81 168,-101 -71,-2 -257,-25 -306,-8 -103,36 -122,193 -117,211 31,3 29,-12 72,-1 -9,-117 -45,-174 104,-164 43,59 32,127 6,189 -42,101 4,121 -6,212 -90,-16 -151,-45 -189,-134l-16 75c3,19 109,113 131,134 103,98 55,96 103,161 12,16 27,26 40,44 91,-16 125,-69 86,-160 -28,-67 -62,-128 -72,-208 -3,-25 -5,-104 9,-123 31,-43 271,-53 324,-91 -94,-1 -280,8 -339,-36z"/> <path class="fil0" d="M10557 6419c61,0 369,4 425,13 90,15 96,23 161,58l227 141c21,13 78,50 98,51 68,-293 -271,-348 -538,-348 -158,0 -194,35 -335,63 -26,5 -26,3 -38,21z"/> <path class="fil0" d="M3459 7957c15,-18 138,-389 144,-418 13,10 11,20 15,40 3,15 7,35 9,51 28,201 -14,193 -14,268 0,80 -15,76 50,119 5,-20 7,-55 9,-75l16 -154c9,-139 6,-154 -9,-295 -6,-55 -10,-113 -15,-164 -3,-25 -4,-59 -5,-79 -3,-50 -10,-38 -29,-9 -135,205 -131,417 -162,634 -3,21 -8,64 -8,82z"/> <path class="fil0" d="M9651 8958c15,-4 92,-34 154,-50 74,-19 110,-94 156,-148l94 -110c38,-43 -6,-61 -6,-61 -26,0 -42,25 -68,56 -9,10 -11,14 -20,25 -9,10 -10,13 -18,22 -9,10 -13,12 -21,24 -13,17 -31,27 -37,48 -5,-4 -16,-10 -21,-14 -14,-12 -4,-10 -19,-21 28,-42 46,-54 68,-81 11,-13 12,-17 25,-30 9,-9 15,-16 25,-25 12,-11 16,-12 27,-22 56,-50 52,-43 44,-81 -14,-7 -21,-10 -34,-5 -42,18 -167,161 -191,193 -50,68 -67,95 -107,167 -23,40 -27,-1 -42,68 -4,18 -9,23 -10,45z"/> <path class="fil0" d="M6727 5521c57,-2 97,-9 143,-30 58,-27 87,-2 139,11l-7 288c22,-1 102,-15 121,-22 91,-35 -36,-252 -66,-293 -72,-96 -161,-137 -266,-40 -17,15 -52,58 -63,85z"/> <path class="fil0" d="M9277 9053c11,-8 18,-22 31,-34l72 -62c35,-29 24,-38 84,-50 178,-37 110,2 166,7 0,-14 -4,-87 -12,-103 -10,-20 -5,-4 -18,-22l50 -159c-13,5 -5,-8 -27,33 -36,68 -71,140 -135,179 -18,11 -69,30 -93,32 60,-90 83,-121 168,-205 18,-18 86,-79 92,-97 6,-20 -14,-48 -45,-30 -46,28 -201,208 -226,242 -26,36 -51,75 -71,118 -14,31 -38,118 -38,152z"/> <path class="fil0" d="M8068 9491c-121,0 -98,-47 -129,45 -6,19 -19,49 -20,69 86,-20 98,-32 151,29 10,12 9,12 24,16 0,-52 -10,-99 -10,-149 47,0 60,-3 105,-89 47,-91 -14,-87 -30,-95 -15,28 -30,55 -45,85 -13,26 -38,61 -45,90z"/> <path class="fil0" d="M8590 9884c0,162 16,158 51,307 8,33 19,88 40,110 18,19 65,49 94,56l-174 -488c-8,6 -10,1 -10,15z"/> <path class="fil0" d="M4977 6345l10 0c1,-9 27,-84 34,-175 10,-117 -3,-302 20,-398 9,-36 35,-149 35,-179 -24,18 -49,111 -58,151 -45,204 -42,395 -42,600z"/> <path class="fil0" d="M2922 7290c-19,2 -36,5 -56,5 -10,0 -19,-2 -27,-3l-19 2c-23,62 -75,240 -36,309l139 -313z"/> <path class="fil0" d="M8222 2462c26,-2 305,-139 324,-164 -40,-3 -55,-7 -110,4 -33,7 -64,19 -91,34 -56,31 -93,70 -123,126z"/> <path class="fil0" d="M9890 8963c51,0 27,-65 139,-114 51,-22 63,-9 50,-65 -6,-2 -14,-5 -15,-5 -81,0 -199,111 -197,154 0,9 15,30 23,30z"/> <path class="fil0" d="M8635 10476c-27,51 -61,87 -50,134 53,0 81,-27 129,-55 14,-8 26,-16 35,-30 -11,-4 -17,-12 -18,-25 0,-7 6,-25 8,-35 -37,3 -57,10 -105,10z"/> <path class="fil0" d="M6455 8067c0,125 51,156 65,214l10 0c8,-35 11,-30 13,-76 4,-87 -58,-192 -63,-213 -17,12 -25,46 -25,75z"/> <path class="fil0" d="M4330 8988c14,-10 30,-21 45,-30 36,-21 124,-64 124,-105 0,-25 -33,-45 -55,-50 -19,12 -18,22 -42,43 -41,35 -71,79 -72,142z"/> <path class="fil0" d="M9218 9207c33,3 30,19 70,10 17,-73 -33,-146 -52,-212 -12,-43 -1,-47 -18,-67l0 269z"/> <path class="fil0" d="M10477 3517c0,24 9,35 0,55 22,-2 36,-11 59,-16 61,-14 47,2 110,-40 18,-12 35,-18 41,-39 -32,8 -209,8 -209,40z"/> <path class="fil0" d="M9073 2273c-22,0 -266,67 -299,75 9,14 48,39 68,38 49,-3 157,-73 192,-91 8,-4 12,-5 20,-10l18 -12z"/> <path class="fil0" d="M6499 6513c-4,21 -22,100 -18,118 5,19 55,53 73,61 4,-73 5,-138 -55,-179z"/> <path class="fil0" d="M8536 10436c31,7 66,5 105,5l-50 -74c-22,-30 -39,-65 -59,-70l5 139z"/> <path class="fil0" d="M10183 2780c65,0 139,-21 191,-38l182 -52c-50,0 -231,38 -294,49 -30,5 -66,21 -79,41z"/> <path class="fil0" d="M5709 11546c0,-53 -5,-93 -5,-149 -23,6 -27,25 -43,41 -96,99 -22,53 10,77l38 31z"/> <path class="fil0" d="M4897 12532c-19,4 -68,29 -102,36 -11,2 -5,0 -15,3 -16,4 3,1 -17,6 9,19 4,21 0,40 55,0 129,-23 134,-85z"/> <path class="fil0" d="M8904 2467c16,-1 59,-19 75,-24 26,-9 53,-19 79,-26l0 -10c-82,0 -138,-9 -154,60z"/> <path class="fil0" d="M3130 6952l-20 72c57,-19 57,-17 79,-86 -21,7 -32,13 -59,13z"/> <path class="fil0" d="M10357 8291c33,8 74,5 114,5 -10,-14 -92,-46 -110,-50 12,24 0,25 -5,45z"/> <path class="fil0" d="M4156 9844c-12,3 -120,62 -129,75 54,-13 75,-13 106,-44 12,-12 19,-14 24,-31z"/> <path class="fil0" d="M11552 4249c14,-10 51,-40 55,-55 -17,4 -26,7 -45,10 -32,5 -14,7 -4,20 -1,13 -2,14 -5,25z"/> <path class="fil0" d="M4897 12532c17,-1 20,8 20,-55l-5 0c0,20 -11,38 -15,55z"/> <path class="fil0" d="M1707 9013l20 6 0 -30c-11,4 -5,-1 -12,8 -7,8 -5,7 -8,17z"/> <path class="fil0" d="M5415 8311c19,-2 17,-4 30,-10 19,-9 13,0 25,-15 -20,5 -44,10 -55,25z"/> <path class="fil0" d="M5360 8356c10,-7 10,-9 19,-16 13,-10 10,-4 21,-19 -20,5 -35,15 -40,35z"/> <polygon class="fil0" points="9073,2273 9078,2273 9074,2267 "/> <polygon class="fil0" points="4106,9461 4111,9461 4107,9455 "/> <polygon class="fil0" points="5415,8311 5410,8311 5414,8317 "/> <polygon class="fil0" points="4842,7186 4847,7186 4843,7180 "/> <polygon class="fil0" points="11134,6589 11139,6589 11135,6583 "/> <polygon class="fil0" points="4156,9844 4161,9844 4156,9838 "/> <polygon class="fil0" points="9830,5454 9835,5454 9831,5448 "/> <polygon class="fil0" points="9277,9053 9272,9053 9277,9058 "/> <polygon class="fil0" points="11134,6589 11129,6593 "/> <polygon class="fil0" points="10850,6494 10856,6484 "/> </g> </g> </svg>