<svg xmlns="http://www.w3.org/2000/svg" viewBox="0 0 5583 6986" width="5583" height="6986">
	<style>
		tspan { white-space:pre }
		.shp0 { fill: #0d0d0d } 
	</style>
	<path id="Layer" fill-rule="evenodd" class="shp0" d="M1776 4484L1782 4527L1687 4527C1642 4587 1546 4999 1489 5085L1380 5094C1374 5025 1489 4750 1527 4647C1591 4466 1597 4509 1412 4501L1412 4441L1437 4432L1450 4423C1469 4398 1469 4398 1508 4406L1578 4406C1597 4415 1584 4423 1591 4441C1623 4432 1616 4432 1623 4389C1622.05 4389 1621.07 4389.01 1620.05 4389.02C1621.43 4387.66 1623.28 4385.04 1629 4389C1629 4312 1731 4157 1738 4062L1450 4045C1399 4045 1386 4028 1361 4071C1399 4071 1501 4079 1540 4079C1578 4079 1693 4071 1712 4097C1699 4105 1731 4105 1687 4105L1610 4105C1533 4105 1386 4114 1329 4079C1297 4097 1278 4097 1265 4122C1323 4122 1642 4140 1680 4157C1667 4165 1687 4165 1655 4165L1335 4157C1265 4148 1291 4148 1239 4131L1220 4165C1303 4217 1623 4157 1667 4208C1642 4226 1418 4208 1367 4208C1374 4277 1399 4329 1393 4423C1386 4492 1367 4552 1361 4621C1380 4638 1393 4647 1399 4673C1406 4724 1399 4699 1412 4742C1393 4862 1208 4888 1137 4793C1099 4742 1099 4681 1131 4630C1169 4578 1220 4570 1278 4561L1278 4501L1067 4484C1048 4535 971 4535 920 4561C875 4578 812 4621 767 4613C735 4561 812 4544 805 4475L620 4475C620 4509 658 4509 697 4552C882 4793 416 4931 396 4681C384 4509 499 4544 518 4466C460 4466 409 4466 345 4458C307 4449 256 4484 237 4432C269 4398 320 4380 364 4337C416 4286 409 4234 396 4174C371 4097 352 4088 288 4054C256 4036 269 4028 218 4019C166 4011 160 4019 147 3968C211 3976 173 3985 218 3993L256 3976C301 4045 269 4036 460 4036C607 4036 601 4062 658 4028L1125 4062C1144 4054 1156 4045 1150 4028C1010 4011 843 4011 703 4019L435 4002C499 3942 1073 4011 1208 4002L1233 3942C1201 3933 1188 3925 1150 3916C1073 3899 978 3899 895 3890C633 3856 690 3830 626 3778C588 3787 582 3796 550 3821L518 3839C447 3873 409 3925 345 3942C358 3899 531 3796 582 3761C671 3701 607 3727 658 3649C716 3563 856 3581 1029 3434C1169 3305 1246 3434 1297 3460L1303 3357C1252 3348 1271 3374 1233 3366C1233 3331 1271 3331 1303 3314C1297 3245 1271 3228 1252 3168C1233 3108 1259 3090 1252 3022C1182 2953 1220 2936 1208 2867C1176 2841 1163 2858 1156 2807C1131 2609 1137 2712 1035 2575C990 2514 1003 2454 990 2385C965 2265 1010 2265 1041 2205L971 2188L978 2136C933 2136 882 2127 856 2093L888 2041C716 2024 773 1973 652 1947C633 1930 575 1904 588 1801C645 1801 601 1826 658 1852C697 1878 863 1861 971 1878C971 1801 990 1818 1048 1801C1073 1766 1105 1749 1137 1740C1137 1637 1208 1672 1348 1663L1367 1620C1437 1629 1508 1663 1565 1654C1674 1637 1674 1637 1719 1715C1808 1732 1776 1706 1821 1775C1897 1792 2019 1629 2127 1715C2115 1766 2089 1740 2051 1775C2019 1809 2057 1818 2000 1852C1948 1887 1993 1955 1865 1964C1827 1947 1808 1930 1814 1887C1834 1895 1834 1921 1840 1947C1961 1938 1923 1895 1987 1826C2012 1809 1987 1826 2012 1783C2025 1758 2044 1758 2063 1732C2012 1723 1987 1732 1936 1758C1910 1766 1865 1801 1846 1809C1795 1801 1802 1775 1770 1749L1687 1740C1667 1697 1687 1680 1629 1672C1623 1672 1623 1680 1623 1680L1616 1689C1616 1697 1610 1697 1610 1697L1610 1706C1572 1689 1604 1680 1546 1680C1533 1706 1540 1706 1514 1715L1482 1663C1450 1663 1406 1654 1374 1672L1393 1723C1361 1723 1361 1706 1335 1689C1220 1706 1208 1680 1169 1697C1176 1766 1208 1723 1227 1775C1195 1775 1144 1758 1105 1775C1073 1792 1073 1826 1054 1852C1016 1844 1054 1844 997 1835L1022 1921C965 1921 927 1887 837 1887C697 1895 760 1895 639 1878C645 1921 658 1930 703 1938C773 1955 760 2007 856 2016C920 2016 882 2033 939 2041L971 1998C1003 2016 1003 2050 978 2059C952 2076 933 2067 914 2067C888 2076 901 2076 888 2084C927 2127 997 2102 1054 2127C1029 2145 1022 2127 1003 2170C1067 2196 1086 2170 1086 2239C1163 2256 1112 2282 1105 2334C1131 2351 1163 2368 1182 2377C1201 2385 1220 2411 1246 2437C1316 2489 1335 2489 1425 2463C1597 2428 1661 2618 1757 2532C1750 2497 1667 2420 1667 2377C1699 2385 1750 2480 1776 2506C1827 2514 1814 2506 1859 2497C1814 2471 1808 2506 1776 2463C1795 2454 1776 2454 1834 2454L1853 2420L1872 2463C1942 2463 1891 2299 1872 2248L1827 2170C1802 2102 1750 2093 1731 2024C1782 2024 1757 2050 1802 2076C1795 2041 1795 1990 1834 1973C1827 2110 1840 2102 1891 2213C1917 2274 1948 2385 1929 2454C1897 2471 1891 2463 1885 2506C1961 2532 1929 2532 1980 2557C2012 2583 2044 2583 2044 2635C1961 2704 2006 2704 2006 2781L1948 2781C1942 2850 1936 2867 1891 2927L1865 2918C1859 2884 1885 2867 1904 2841C1929 2807 1904 2781 1904 2747L1961 2747C1942 2678 1968 2669 2006 2626C1993 2600 1993 2600 1968 2592C1942 2618 1961 2618 1936 2626C1923 2600 1936 2583 1942 2549C1891 2523 1904 2523 1846 2514C1814 2557 1808 2532 1763 2557C1712 2592 1725 2592 1661 2583C1616 2532 1508 2454 1437 2497C1437 2540 1450 2540 1457 2566L1425 2583L1425 2626L1399 2609C1399 2583 1399 2583 1425 2566L1412 2514C1380 2506 1335 2497 1303 2506L1303 2566L1348 2592C1329 2609 1335 2618 1303 2592C1297 2583 1284 2575 1278 2566L1284 2489C1271 2480 1271 2480 1252 2463C1220 2446 1195 2411 1163 2394C1099 2351 1073 2351 1073 2274L1029 2265C1010 2360 1035 2368 1035 2446C1041 2523 1048 2540 1093 2592C1137 2635 1163 2643 1169 2712C1182 2772 1182 2807 1227 2850C1239 2927 1208 2944 1278 2987C1284 3022 1284 3047 1297 3065C1316 3090 1348 3133 1310 3159L1284 3168L1278 3168C1335 3237 1316 3254 1329 3331C1348 3460 1335 3434 1316 3512C1342 3538 1342 3529 1361 3563C1278 3563 1291 3486 1227 3443C1125 3357 990 3495 907 3555C863 3589 799 3598 741 3624C697 3649 645 3727 665 3778C703 3864 965 3864 1048 3873C1137 3890 1182 3907 1252 3925C1271 3864 1348 3830 1367 3787C1284 3787 1195 3796 1125 3761C990 3701 1022 3692 907 3701C946 3615 1073 3710 1125 3735C1188 3761 1252 3761 1323 3761C1361 3761 1354 3761 1374 3787C1393 3770 1418 3744 1444 3727C1584 3632 1738 3589 1897 3546C1948 3529 1961 3434 1980 3383C2032 3219 2230 2747 2249 2635L2121 2618C2108 2712 2140 2678 2070 2755C2076 2790 2076 2764 2083 2798C2102 2850 2083 2833 2076 2833C2025 2798 2032 2764 2063 2721C2102 2661 2057 2626 2121 2583C2166 2583 2217 2592 2255 2609C2261 2600 2261 2609 2268 2592L2504 1930C2402 1706 2319 1517 2300 1267C2287 1130 2344 1044 2376 923C2389 846 2389 605 2332 554C2134 648 2185 898 2057 984C1948 1052 1910 1035 1782 1027C1731 1018 1655 1018 1610 1027C1584 1035 1572 1044 1552 1052C1508 1078 1514 1061 1501 1104C1616 1113 1629 1061 1699 1052C1687 1095 1693 1070 1648 1095C1418 1233 1406 1001 1655 992L1795 992C1917 1001 1936 1035 2032 958C2089 915 2063 949 2095 872C2115 820 2127 795 2134 760C2146 717 2166 691 2178 657C2153 657 2102 683 2076 691C2025 726 1910 760 1853 743C1808 734 1802 717 1770 691C1699 700 1699 769 1642 820C1559 880 1495 837 1425 812C1374 872 1284 889 1227 837C1208 863 1220 855 1195 855C1182 795 1201 752 1252 709C1284 717 1271 717 1297 717C1316 726 1323 717 1348 717C1374 726 1393 734 1412 752C1482 803 1431 812 1540 812C1597 812 1629 795 1655 752C1770 545 1802 717 1885 717C1910 717 1987 691 2019 683C2102 666 2159 605 2230 562C2242 511 2261 356 2364 399C2389 433 2376 442 2383 485C2434 537 2459 511 2523 502L2849 442C2875 433 2907 433 2932 425C2958 425 2983 425 3002 408C2970 390 2887 356 2849 347C2804 399 2772 365 2740 339C2740 270 2747 210 2811 184C2926 175 2875 201 2894 270L3073 330C3098 287 3117 150 3162 124C3162 132 3175 115 3168 158C3156 218 3105 304 3117 356C3162 330 3156 184 3207 150C3220 184 3175 330 3156 365C3181 382 3296 425 3328 433C3341 425 3366 408 3398 399C3533 459 3398 597 3303 588C3264 554 3277 545 3277 502L3143 459C3162 537 3226 640 3264 709C3315 812 3347 863 3386 958C3411 958 3418 966 3437 984C3481 984 3469 975 3507 966C3558 1001 3533 1044 3526 1095C3577 1113 3686 1207 3756 1035C3820 889 3890 932 4024 941C3973 795 4165 795 4139 915C4114 1027 3967 975 3897 966C3794 966 3814 1070 3737 1130C3622 1224 3558 1138 3507 1104L3469 1138C3475 1190 3520 1242 3577 1250C3699 1267 3743 1121 3903 1207C3967 1242 3960 1276 3999 1319C4165 1233 4133 1465 4005 1371C3960 1345 3960 1336 3935 1285C3897 1216 3794 1199 3724 1242C3647 1293 3564 1310 3494 1250C3481 1242 3437 1181 3424 1164C3392 1121 3411 1095 3411 1044L3335 1018C3341 1130 3149 1405 3251 1517C3354 1637 3647 1474 3756 1525C3833 1551 3865 1611 3903 1680C3929 1715 3992 1844 4024 1869C4095 1930 4197 1844 4242 1818C4299 1783 4433 1758 4491 1809C4497 1835 4491 1904 4471 1938C4446 1973 4452 1938 4446 1990C4440 2016 4433 2016 4408 2016C4395 1998 4408 1990 4376 1973C4350 1955 4337 1964 4312 1955C4248 1921 4254 1938 4190 1947C3807 2033 3782 1783 3545 1861C3475 1887 3488 1895 3405 1878L3481 2076C3596 2265 3750 2136 3877 2222C3960 2282 3986 2213 4101 2222C4158 2299 4178 2282 4254 2317C4248 2403 4133 2428 4063 2411C3992 2394 3941 2299 3884 2308C3852 2317 3820 2342 3782 2351C3743 2360 3692 2360 3654 2368C3335 2394 3392 2127 3079 2067C2945 2050 2772 2084 2664 2050C2626 2041 2606 2016 2568 1998C2542 2016 2466 2265 2453 2317C2421 2420 2370 2532 2338 2643L2447 2643C2498 2643 2498 2626 2555 2652C2600 2618 2657 2600 2721 2600C2792 2609 2766 2600 2817 2592C2843 2583 2894 2592 2919 2592C2990 2566 2983 2566 3066 2557C3105 2497 3162 2514 3226 2523C3290 2480 3303 2506 3360 2514C3411 2514 3449 2489 3501 2489C3539 2489 3616 2489 3654 2497C3718 2497 3724 2480 3801 2506C3852 2514 3865 2523 3903 2566C4024 2686 3967 2609 4043 2747C4075 2807 4069 2790 4127 2824C4152 2901 4127 2876 4184 2927C4229 2961 4235 2979 4242 3030C4363 3030 4523 3047 4650 3056C4842 3065 5225 3073 5391 3142C5500 3185 5576 3280 5557 3400C5532 3417 5538 3434 5532 3460L5487 3469L5487 3512C5410 3512 5423 3520 5366 3563C5263 3624 5148 3718 5053 3796L4440 4251C4318 4355 4152 4441 4024 4552C3992 4578 3954 4604 3897 4604C3839 4604 3775 4595 3718 4595C3711 4699 3679 4776 3558 4776C3469 4776 3379 4690 3405 4595C3366 4587 3188 4578 3143 4578C3156 4647 3181 4664 3156 4742C3117 4862 2913 4871 2855 4733C2843 4707 2830 4707 2824 4681C2862 4656 2862 4630 2881 4578L2626 4570C2568 4802 2274 4785 2268 4544C2223 4544 2115 4535 2076 4544C2063 4587 2070 4638 2025 4664C1936 4716 1859 4707 1802 4621C1776 4570 1795 4527 1795 4484L1776 4484ZM1620.05 4389.02C1619.34 4389.73 1618.75 4390.1 1617.81 4389.06C1618.58 4389.05 1619.32 4389.03 1620.05 4389.02ZM1617.81 4381.96C1569.36 4383.06 1456.27 4404.77 1437 4372C1463 4355 1572 4363 1610 4372C1614.33 4377.67 1616.44 4380.44 1617.81 4381.96ZM3117 4621C3111 4613 3111 4613 3105 4595C3053 4518 2926 4535 2894 4621C2824 4785 3066 4871 3124 4733C3137 4690 3137 4656 3117 4621ZM684 4595C652 4527 582 4501 511 4527C422 4561 428 4630 435 4707C524 4879 760 4750 684 4595ZM3603 4501C3539 4484 3462 4509 3443 4578C3424 4638 3437 4707 3507 4733C3596 4767 3628 4733 3679 4681C3686 4604 3679 4527 3603 4501ZM2587 4535C2555 4363 2274 4380 2300 4578C2319 4750 2626 4742 2587 4535ZM1827 4509C1770 4656 1987 4724 2032 4587C2076 4449 1878 4372 1827 4509ZM1814 4475C1846 4449 1834 4441 1878 4423L1885 4346C1834 4337 1789 4355 1763 4329C1782 4320 1782 4312 1821 4312C1846 4312 1859 4320 1885 4320C1885 4286 1891 4269 1878 4234C1878 4234 1840 4234 1814 4217C1821 4217 1821 4208 1821 4208L1834 4208C1853 4200 1827 4208 1846 4200L1878 4200C1878 4174 1859 4191 1827 4165L1865 4157L1853 4105C1910 4097 1936 4088 1987 4114C2044 4243 1987 4303 1961 4415C2000 4432 2063 4466 2070 4518C2082.59 4513.8 2094.81 4511.68 2106.94 4510.86C2102.73 4510.62 2098.73 4510.05 2095 4509C2063 4501 2076 4484 2076 4484C2108 4475 2236 4475 2261 4484C2261 4509 2268 4492 2249 4509C2293 4518 2268 4527 2287 4492C2319 4432 2364 4415 2370 4398C2383 4355 2389 4277 2364 4243C2338 4234 2223 4234 2185 4234C2146 4226 2044 4243 2025 4208C2076 4183 2313 4234 2364 4208C2332 4191 2236 4200 2191 4191C2153 4191 2044 4208 2032 4165C2051 4157 2166 4165 2198 4165C2230 4174 2249 4174 2281 4174L2364 4165C2338 4122 2249 4131 2204 4131C2146 4131 2083 4131 2025 4122L2019 4105C2089 4097 2428 4114 2485 4131C2523 4208 2504 4312 2511 4398C2587 4458 2587 4432 2626 4544L2798 4544C2862 4544 2887 4570 2926 4535C2881 4535 2830 4527 2785 4527C2747 4527 2689 4535 2677 4509C2702 4492 2900 4501 2951 4501L2939 4217C2907 4217 2536 4217 2523 4183C2549 4165 2881 4183 2939 4191C2939 4148 2945 4157 2951 4114C3092 4097 3009 4286 3060 4355C3130 4389 3437 4355 3488 4398C3462 4432 3130 4389 3060 4398C3053 4432 3066 4492 3073 4535C3098 4570 3328 4544 3386 4552C3309 4535 3130 4570 3085 4527C3124 4492 3194 4518 3245 4518C3303 4518 3360 4518 3411 4527C3411 4561 3418 4544 3418 4544C3456 4509 3456 4501 3501 4475C3494 4449 3501 4432 3526 4415C3558 4432 3545 4423 3552 4475C3567.04 4467.01 3569.27 4468.52 3569.38 4469.66C3569.92 4468.43 3571.73 4465.22 3577 4458C3603 4415 3590 4277 3571 4234C3571 4226 3558 4217 3552 4208C3520 4191 3526 4208 3526 4208C3533 4251 3558 4355 3533 4389C3501 4372 3501 4363 3501 4303C3501 4226 3469 4226 3513 4165L3590 4191C3635 4269 3616 4398 3609 4484C3647 4492 3660 4509 3686 4535C3769 4535 3852 4544 3935 4544C3954 4535 3980 4492 3980 4475C3986 4449 3973 4398 3992 4389C3935 4372 3877 4372 3820 4372C3794 4372 3750 4380 3718 4372C3667 4355 3711 4372 3686 4346L3973 4346C3973 4312 3960 4329 3973 4303C3916 4294 3858 4303 3794 4294C3756 4294 3660 4303 3641 4277C3679 4251 3871 4277 3935 4269L3941 4260L3935 4251C3909 4200 3839 4148 3826 4140C3839 4088 3954 4028 3999 4002L4523 3624C4644 3546 4765 3460 4880 3374C4938 3331 4995 3288 5059 3254L5238 3133L4235 3056C4203 3125 4216 3125 4222 3194L4273 3228C4267 3271 4254 3254 4267 3305C4350 3305 4299 3237 4388 3280C4401 3288 4408 3288 4420 3288C4414 3305 4414 3297 4414 3314C4401 3348 4414 3323 4401 3348C4363 3348 4376 3340 4363 3288L4312 3314C4312 3331 4318 3348 4318 3357C4312 3391 4312 3374 4299 3383C4273 3366 4286 3374 4280 3331L4235 3331L4242 3262L4184 3185C4190 3125 4178 3142 4178 3082C4184 3065 4222 3047 4203 2996C4190 2961 4158 2953 4133 2927C4101 2901 4107 2876 4082 2841C4063 2815 4043 2807 4024 2772C3948 2661 4031 2747 3909 2626C3865 2575 3820 2523 3743 2523L3743 2600C3814 2600 3839 2592 3877 2652C3897 2669 3903 2704 3922 2712C3960 2729 3973 2712 3980 2755C3916 2755 3890 2729 3852 2669C3807 2609 3782 2635 3711 2600C3718 2557 3737 2557 3699 2532L3699 2609C3660 2609 3686 2557 3635 2514L3616 2575C3596 2566 3596 2549 3590 2523C3475 2514 3469 2497 3430 2549L3277 2523L3258 2557C3200 2557 3188 2532 3117 2549L3105 2575C3105 2575 3098 2575 3098 2583C3053 2583 2996 2575 2964 2609L2977 2643C2945 2635 2964 2626 2926 2618C2875 2600 2862 2609 2824 2643C2766 2626 2677 2643 2600 2652L2613 2678C2542 2712 2568 2669 2498 2678C2517 2721 2562 2721 2594 2738L2594 2755C2530 2764 2491 2712 2453 2678C2402 2669 2370 2678 2338 2652C2300 2738 2070 3417 2051 3477C2115 3452 2115 3400 2159 3391C2159 3434 2127 3469 2102 3486C2038 3538 2044 3520 1987 3538L1744 3615C1591 3658 1342 3796 1271 3942C1214 4054 1112 4105 1054 4208C1035 4243 946 4406 933 4415C895 4441 875 4449 856 4501C843 4535 799 4552 792 4587L927 4527C958 4518 971 4518 1003 4501C1061 4466 1035 4458 1035 4449L958 4441L958 4406L1022 4423C1093 4363 1112 4269 1163 4191C1169 4183 1182 4165 1182 4165C1182 4165 1188 4165 1188 4157L1195 4148C1239 4079 1316 4071 1367 4019C1469 3907 1450 3882 1629 3839C1744 3804 1802 3839 1897 3821C2012 3804 2057 3770 2146 3770C2242 3770 2319 3761 2415 3744C2498 3727 2536 3649 2600 3649C2594 3692 2523 3727 2491 3753C2396 3813 2198 3787 2095 3804C2070 3804 2044 3821 2019 3830C1987 3847 1955 3847 1923 3847L1859 4028C1904 4036 2734 4062 2836 4071C2913 4079 3002 4071 3079 4071C3200 4079 3762 4097 3801 4122C3788 4157 3718 4131 3686 4131C3481 4131 3283 4114 3079 4114C2836 4105 2581 4079 2332 4079C2210 4071 1948 4054 1846 4062C1821 4097 1789 4226 1770 4277C1757 4320 1693 4458 1706 4492L1757 4501C1738 4466 1744 4492 1725 4458L1795 4484C1814 4475 1814 4501 1814 4475ZM2123.12 4510.47C2154.64 4510.97 2186.34 4518 2223 4518C2189.61 4498.71 2152.91 4508.05 2123.12 4510.47ZM2106.94 4510.86C2112.04 4511.14 2117.45 4510.93 2123.12 4510.47C2117.73 4510.39 2112.34 4510.49 2106.94 4510.86ZM313 4423C339 4449 396 4432 435 4432C390 4423 377 4415 339 4398L313 4423ZM837 4363C805 4346 671 4346 626 4346L626 4441C665 4449 786 4449 831 4449C792 4423 729 4441 690 4441C639 4432 665 4432 652 4423C671 4406 633 4415 684 4406C722 4398 831 4423 869 4432C895 4398 907 4432 927 4355L863 4355C863 4363 856 4363 856 4363L856 4389C824 4398 786 4398 767 4380C786 4363 741 4363 837 4363ZM531 4320L531 4286L435 4277C428 4329 422 4312 403 4346L364 4398C409 4398 416 4389 460 4398C435 4363 441 4406 428 4363C505 4346 499 4380 492 4432C454 4423 479 4432 467 4441L524 4441C524 4406 531 4380 518 4355C492 4355 441 4355 422 4337C447 4303 486 4329 531 4320ZM2983 4363C2983 4501 2983 4509 3034 4527C3022 4449 2996 4286 2996 4217C2996 4174 3009 4157 2970 4148C2970 4226 2983 4294 2983 4363ZM1284 4226L1303 4234C1316 4269 1323 4363 1323 4406L1310 4544C1310 4595 1310 4561 1323 4578C1342 4561 1335 4587 1342 4544L1348 4406C1348 4337 1348 4286 1342 4217C1310 4200 1227 4200 1195 4200C1163 4217 1112 4346 1099 4389C1080 4432 1067 4398 1073 4458L1278 4466C1278 4441 1284 4449 1259 4449C1208 4449 1156 4466 1125 4441C1156 4406 1239 4423 1284 4423L1278 4372C1246 4380 1227 4372 1195 4372C1150 4372 1137 4380 1125 4355C1163 4329 1233 4346 1284 4346C1278 4303 1265 4269 1284 4226ZM2408 4389L2472 4380C2485 4337 2479 4208 2459 4165L2402 4157C2408 4251 2415 4286 2408 4389ZM1917 4251C1923 4312 1917 4346 1910 4398C1948 4380 1955 4337 1968 4277C1980 4217 1974 4191 1955 4122L1897 4122C1897 4165 1917 4208 1917 4251ZM895 4114C946 4114 1067 4140 1093 4088L690 4079C645 4131 633 4243 633 4329C709 4329 869 4312 939 4346C958 4320 1010 4234 1016 4200L677 4191L677 4165C741 4157 812 4165 869 4165C901 4165 939 4174 971 4174C1086 4174 1048 4165 1054 4148C1035 4140 901 4140 863 4140L760 4140C722 4140 697 4148 690 4114C729 4097 843 4114 895 4114ZM601 4269C614 4208 639 4114 639 4062C575 4105 543 4432 556 4484L582 4484C588 4449 594 4320 601 4269ZM422 4114C416 4165 441 4191 441 4260L543 4260L556 4183C531 4183 499 4174 479 4165C505 4148 524 4157 556 4165C588 4122 588 4114 582 4062L364 4054C390 4097 371 4105 422 4114ZM1482 4991L1782 4165C1802 4114 1814 4062 1834 4011C1853 3942 1891 3899 1865 3856C1834 3873 1840 3882 1827 3925L1425 5042C1495 5034 1476 5025 1482 4991ZM1814 3847C1687 3821 1476 3890 1418 4011C1450 4019 1731 4036 1757 4028L1814 3847ZM4593 4105L4970 3813C4989 3796 5014 3778 5034 3770C5065 3753 5072 3753 5091 3718C5046 3735 4107 4423 4075 4466C4101 4458 4535 4140 4593 4105ZM5263 3176C5295 3168 5308 3176 5359 3194C5398 3211 5417 3228 5455 3245C5430 3176 5315 3151 5244 3142L5232 3219L4899 3452C4874 3469 4842 3486 4816 3503L4082 4028C4037 4062 3960 4131 3909 4140C3922 4105 3929 4097 3967 4079L4082 3993C4101 3976 4120 3968 4139 3950C4178 3925 4350 3804 4376 3778L4120 3959C4082 3985 4037 4002 3992 4036C3960 4062 3903 4105 3871 4131C3909 4200 4018 4226 4018 4449C4056 4449 4082 4415 4120 4389L4382 4191C4491 4105 4625 4011 4740 3925C4950 3787 5104 3658 5283 3529C5353 3486 5404 3417 5481 3426L5474 3357L4931 3735C4899 3761 4874 3778 4848 3804L4657 3933C4631 3950 4599 3976 4567 3993C4497 4045 4075 4363 4031 4363C4031 4329 4331 4131 4382 4097C4497 4011 4631 3925 4746 3830C4804 3787 4880 3744 4938 3701C5014 3641 5423 3366 5468 3305C5417 3297 5238 3443 5187 3477C5161 3495 5155 3503 5142 3512C5123 3529 5123 3512 5091 3538C4976 3632 4861 3710 4740 3796L4197 4174C4184 4183 4184 4183 4178 4200C4139 4234 4146 4208 4107 4243C4082 4260 4050 4286 4018 4294C4024 4251 4146 4183 4184 4157C4350 4036 4567 3890 4714 3778C4823 3692 4957 3615 5065 3529C5123 3486 5391 3314 5410 3271L5359 3245C5327 3297 5091 3452 5014 3495C4957 3529 4906 3581 4842 3624C4676 3735 4503 3873 4331 3985C4229 4054 4158 4114 4075 4165L4005 4217C3967 4226 3992 4217 3986 4208C3999 4174 4574 3778 4657 3718L5002 3477C5091 3400 5315 3262 5340 3228C5295 3211 5257 3219 5263 3176ZM5097 3262C5180 3202 5148 3262 5180 3211C5148 3228 5097 3262 5072 3271C5085 3280 5078 3288 5097 3262ZM5263 3589C5244 3589 5244 3598 5238 3615L5263 3589ZM1284 3125C1303 3108 1303 3133 1284 3099C1284 3099 1259 3090 1284 3125ZM4069 4466L4012 4484L4005 4518C4024 4501 4043 4501 4069 4466ZM4210 2334C4190 2325 4158 2317 4133 2308C4114 2291 4050 2222 3960 2299C4043 2446 4190 2377 4210 2334ZM2063 3340L2338 2549C2408 2334 2447 2222 2530 2007C2549 1964 2536 1973 2530 1964C2517 1981 1974 3477 1974 3512C2032 3512 2025 3452 2063 3340ZM4337 1921C4420 1947 4350 1912 4433 1921C4433 1861 4420 1895 4382 1878C4356 1878 4286 1818 4242 1869C4210 1904 4210 1887 4184 1912C4267 1904 4216 1887 4337 1921ZM4427 1826C4414 1818 4408 1818 4376 1818C4344 1818 4344 1818 4325 1826C4344 1844 4401 1852 4427 1826ZM2638 1611C2670 1672 2536 1869 2549 1921C2645 2041 2734 2033 2881 2024C3347 2007 3315 2239 3494 2308C3584 2342 3826 2334 3871 2274C3807 2188 3539 2308 3430 2067C3411 2016 3398 1955 3373 1912C3277 1740 3251 1809 3085 1775C3009 1758 2836 1689 2836 1603C2868 1603 2900 1654 2945 1689C3117 1792 3303 1697 3373 1844C3411 1844 3443 1852 3481 1844C3526 1835 3603 1758 3743 1835C3858 1895 3941 1938 4088 1930C4024 1895 3986 1912 3941 1826C3756 1457 3737 1551 3481 1594C3322 1611 3175 1577 3188 1396C3200 1242 3290 1138 3315 1001L2389 571C2408 691 2440 812 2408 941C2376 1052 2319 1138 2325 1267C2332 1379 2459 1801 2523 1878C2549 1852 2581 1706 2606 1637C2626 1603 2613 1620 2638 1611ZM3494 1018C3456 1018 3437 1070 3437 1104C3481 1104 3507 1061 3494 1018ZM4088 872C4069 872 4050 880 4056 906C4063 941 4056 915 4069 932C4095 915 4101 906 4088 872ZM1418 803C1399 786 1367 760 1348 752C1233 743 1239 906 1393 812L1418 803ZM3322 923C3315 872 3137 528 3105 494C3092 528 3015 760 3009 786L3322 923ZM4069 1345C4063 1345 4063 1336 4050 1336C4024 1336 4037 1336 4024 1345C4050 1353 4063 1371 4069 1345ZM3373 984C3335 975 3335 966 3309 949C3264 932 3213 915 3168 889C3085 846 2990 795 2907 760L2357 519C2383 554 2447 571 2485 588C2530 605 2581 631 2619 648C2696 691 2804 734 2887 769C2932 786 2977 820 3022 837C3149 872 3322 992 3430 1018C3418 1001 3398 992 3373 984ZM3373 519C3392 494 3411 476 3411 442C3373 442 3360 442 3341 476C3328 502 3315 519 3315 554C3341 562 3341 554 3373 519ZM3009 683C3015 657 3028 631 3034 605C3047 580 3053 545 3066 519L3085 459C3085 442.51 3085.73 435.85 3086.08 433.77C3085.36 436.02 3082.29 441.8 3073 433C3053 451 3009 614 2983 674L2964 734C2961.77 753.31 2960.37 759.52 2960.1 760.57C2960.5 759.24 2963.48 750.76 2970 760C2996 743 2977 760 3009 683ZM2498 537C2511 571 2568 580 2600 597C2638 605 2677 623 2709 640C2766 666 2887 734 2932 734L3022 485C3034 451 3028 468 3022 451L2498 537ZM2344 433C2300 433 2313 442 2293 476C2268 528 2255 511 2274 545C2319 537 2338 476 2344 433ZM3200 442C3239 459 3283 485 3309 468C3296 451 3335 468 3264 442C3245 442 3226 433 3213 425L2907 313C2862 296 2887 313 2881 313C2919 347 3130 416 3200 442ZM2855 210C2817 210 2811 210 2798 253C2785 279 2779 296 2792 322C2843 304 2855 253 2855 210ZM1227 4819C1316 4836 1329 4776 1367 4742C1354 4673 1354 4621 1284 4595C1201 4570 1188 4621 1150 4664C1144 4733 1156 4793 1227 4819Z" />
	<path id="Layer" fill-rule="evenodd" class="shp0" d="M4925 4544C5034 4604 5142 4699 5110 4845C5148 4871 5148 4853 5193 4871L5180 4845C5327 4742 5468 4853 5525 4862L5557 4905C5583 4931 5583 4931 5583 4965C5532 4965 5545 4931 5481 4931C5449 4931 5398 4948 5353 4956C5263 4965 5200 4888 5123 4888C5091 4905 4957 5077 4912 5120C4899 5137 4906 5128 4893 5146C4938 5146 4931 5146 4970 5137C5021 5120 5142 5128 5187 5146C5238 5171 5244 5189 5283 5214C5308 5232 5359 5275 5359 5300C5327 5326 5327 5309 5308 5292C5276 5266 5283 5292 5244 5275C5212 5214 5251 5249 5232 5206C5206 5206 5212 5214 5180 5214C5174 5197 5168 5197 5161 5189C5142 5163 5168 5180 5142 5163C5110 5180 5142 5171 5104 5189L5072 5154L5046 5171C5014 5154 5034 5154 4995 5163C4995 5197 5014 5171 5008 5206C4989 5197 4970 5180 4950 5163L4906 5189C4925 5206 4919 5197 4957 5197L4957 5249C4989 5257 5065 5257 5097 5266C5142 5266 5117 5275 5155 5283C5200 5283 5187 5275 5232 5266C5212 5309 5168 5300 5123 5300C5091 5292 5034 5292 4995 5283C4938 5275 4880 5180 4836 5197L4669 5300C4650 5318 4638 5361 4625 5386C4606 5421 4580 5447 4567 5472L4631 5533C4574 5567 4548 5584 4497 5619C4510 5662 4523 5662 4516 5705C4471 5722 4452 5705 4401 5722C4363 5730 4331 5748 4293 5739C4216 5730 4152 5679 4178 5601C4171 5593 3916 5687 3865 5713C3890 5730 3929 5739 3960 5756C4063 5799 4158 5894 4273 5851C4433 5799 4452 5782 4612 5834C4669 5859 4676 5834 4721 5834C4701 5928 4478 5988 4369 5963C4325 5954 4273 5928 4235 5920C4242 5954 4273 6040 4293 6057C4344 6092 4376 6100 4427 6117C4535 6178 4497 6221 4523 6307C4529 6341 4542 6350 4542 6384C4497 6393 4459 6350 4433 6315C4401 6272 4376 6246 4344 6203C4286 6117 4222 5971 4203 5945C4203 6031 4222 6143 4210 6221C4197 6272 4184 6281 4146 6307C4107 6341 4031 6332 3992 6298L3992 6255L4056 6255L4088 6212C4075 6143 4043 6092 4088 6031C4158 5954 4127 6031 4197 5894C4107 5885 3960 5765 3839 5748C3769 5730 3699 5773 3622 5782C3552 5799 3456 5799 3386 5808C3418.82 5846.04 3576.84 5807.86 3699.84 5896.82C3723.58 5768.09 3935.83 5885.45 3999 5920C3999 5963 3980 5971 3960 5997C3986 6049 4018 6023 4024 6109C3973 6160 3967 6135 3922 6152C3929 6212 3999 6264 3935 6341C3903 6332 3916 6324 3897 6315C3839 6281 3884 6341 3756 6221L3756 6324C3667 6324 3660 6186 3616 6143C3590 6160 3564 6169 3533 6169C3513 5954 3526 5971 3660 5920C3616 5868 3430 5851 3354 5834C3309 5859 3303 5868 3245 5894C3239 5920 3232 5928 3207 5945C3200 6023 3188 6049 3105 6031C3098 6143 3098 6152 2977 6126C2990 6332 2894 6289 2868 6350C2932 6418 3009 6298 3137 6350C3175 6367 3175 6367 3213 6393C3271 6436 3335 6513 3405 6539C3456 6556 3469 6582 3469 6625C3424 6633 3443 6616 3418 6590C3392 6565 3213 6547 3168 6539C3041 6513 2996 6461 2894 6427C2894 6479 2951 6625 2951 6728C2951 6823 2894 6891 2862 6986L2836 6986C2824 6960 2836 6926 2824 6883C2811 6840 2798 6797 2798 6754C2798 6685 2855 6599 2881 6547C2887 6504 2862 6479 2862 6436L2849 6384C2836 6401 2785 6461 2772 6487C2760 6513 2606 6599 2530 6590C2491 6590 2428 6556 2434 6513C2542 6487 2530 6522 2619 6418C2664 6367 2721 6307 2798 6307L2760 6212C2721 6229 2702 6272 2651 6238C2600 6203 2613 6152 2613 6100C2562 6135 2511 6229 2428 6212C2415 6169 2428 6152 2428 6109C2376 6117 2325 6126 2293 6083C2293 6057 2319 6006 2376 5945C2344 5937 2325 5911 2287 5902C2134 5877 2108 5937 1993 6014C1929 6049 1885 6074 1814 6109C1782 6126 1750 6143 1719 6160C1680 6178 1648 6203 1610 6195L1623 6169C1597 6169 1572 6212 1572 6238C1623 6238 1680 6246 1719 6203L1770 6203C1782 6238 1763 6272 1757 6307C1814 6298 1808 6289 1853 6255C1897 6221 1891 6169 1936 6160C1948 6203 1936 6255 1987 6272C2063 6212 2025 6092 2044 6014C2089 6014 2083 6040 2083 6083C2083 6152 2076 6212 2038 6264C1993 6315 2032 6324 1993 6341L1955 6298C1936 6281 1929 6255 1917 6238C1827 6255 1865 6341 1719 6341C1719 6272 1738 6281 1744 6229C1699 6238 1604 6281 1501 6289C1501 6264 1572 6160 1591 6135C1604 6117 1616 6100 1623 6074L1559 6040C1508 6023 1482 6031 1437 6049C1380 6109 1425 6238 1437 6298C1437 6341 1425 6393 1406 6427C1367 6496 1406 6513 1386 6565C1316 6556 1278 6384 1278 6324C1284 6152 1361 6152 1386 6066C1278 6083 1291 6109 1227 6169C1182 6221 1188 6289 1156 6358C1131 6401 1054 6444 1016 6470C946 6530 978 6608 869 6590L869 6530C965 6496 907 6496 978 6341C1086 6109 1374 6049 1380 6031C1342 6014 1291 6040 1246 6040C1176 6049 1080 5980 1048 5920C1016 5859 984 5877 971 5834C1035 5808 1182 5851 1220 5877C1271 5920 1278 5877 1323 5945C1329 5954 1342 5980 1354 5988C1374 6006 1374 5997 1399 6023L1584 6006C1597 6023 1604 6031 1629 6049L1667 6031C1687 6049 1674 6049 1661 6066L1687 6083L1629 6117L1648 6152C1680 6152 1674 6143 1693 6117L1731 6126C1731 6117 1738 6100 1738 6100L1750 6083C1802 6109 1840 6066 1885 6040C1923 6023 1993 5988 2012 5963L1980 5954L1974 5920L1917 5928L1917 5911C1885 5859 1763 5902 1763 5902C1750 5920 1750 5885 1750 5937C1725 5945 1750 5937 1719 5937C1738 5971 1776 5971 1814 5997L1846 5971C1853 5997 1846 6006 1840 6031L1802 6031C1802 6066 1808 6049 1795 6074L1738 6057C1750 6014 1744 6049 1763 6014C1674 5954 1725 5997 1642 5997C1629 5988 1597 5980 1572 5980L1699 5963L1687 5928C1706 5894 1731 5894 1763 5885C1846 5851 1872 5859 1961 5894C2000 5911 2083 5963 2121 5877C2038 5834 1840 5808 1731 5791C1680 5773 1648 5756 1604 5756C1584 5773 1489 5816 1463 5825C1412 5842 1316 5851 1271 5825C1265 5782 1271 5808 1284 5773C1182 5679 1029 5696 997 5687C984 5619 1118 5601 1163 5576C1137 5550 1137 5567 1118 5550C1080 5533 1105 5524 978 5472C863 5429 907 5567 652 5670C607 5687 473 5748 435 5730C428 5696 467 5696 486 5670C537 5584 492 5627 582 5524C633 5472 780 5429 856 5429C837 5395 812 5386 780 5378C665 5335 684 5300 524 5404C307 5541 435 5464 249 5498C211 5498 186 5524 160 5533C154 5481 281 5361 320 5335C441 5266 518 5292 639 5300C601 5257 524 5223 473 5171C416 5146 371 5249 134 5060C109 5042 45 4956 39 4922C26 4879 0 4759 0 4724C39 4724 51 4802 179 4836C313 4871 364 4888 422 5034C454 5128 550 5232 645 5257C642.01 5231.59 645.23 5229.51 646.12 5229.5C645.31 5229.1 642.01 5226.62 633 5214C620 5197 614 5189 601 5171C550 5094 524 4896 620 4862C645 4871 697 4982 703 5008C671 5034 677 5008 671 5051C658 5077 665 5085 658 5111L639 5111C637.19 5111.51 635.62 5111.94 634.27 5112.29C635.16 5112.93 633.67 5114.98 626 5120C621.9 5122.42 618.79 5124.09 616.49 5125.16C615.71 5126.05 614.89 5127 614 5128C633 5154 626 5137 652 5154L652 5206L690 5197L690 5232C716 5197 735 5171 729 5128C716 5094 729 5120 716 5111L697 5094L690 5094C709 5051 697 5068 697 5025C741 5034 760 5094 760 5146C767 5240 716 5206 729 5300C748 5326 869 5386 907 5404C901 5361 907 5378 882 5352C869 5343 863 5326 850 5300C837 5275 837 5275 837 5240C831 5189 773 5060 863 4931L888 4931L895 4991C901 4991 978 5111 990 5128C1048 5223 1010 5240 1010 5326C1061 5335 1105 5326 1150 5352C1195 5369 1208 5412 1252 5421C1246 5361 1220 5343 1271 5300C1316 5309 1342 5352 1380 5378C1393 5361 1386 5343 1399 5318C1450 5309 1559 5412 1584 5455C1610 5490 1636 5601 1642 5653C1642 5687 1636 5696 1636 5730C1687 5756 1885 5808 1942 5808C2032 5808 2204 5877 2268 5859L2274 5816C2261 5808 2102 5739 2063 5653C1974 5662 1923 5696 1840 5653C1789 5627 1719 5576 1731 5515L1776 5498C1757 5455 1731 5464 1719 5412C1719 5395 1706 5318 1712 5300L1872 5326C1865 5257 1846 5257 1859 5189C1872 5146 1878 5111 1923 5111C1936 5137 1936 5146 1948 5163C1955 5180 1968 5189 1974 5206L2063 5197C2140 5266 2108 5326 2134 5386L2185 5395C2204 5481 2134 5576 2095 5636C2108 5679 2230 5765 2281 5782C2319 5782 2281 5748 2440 5756C2415 5696 2357 5705 2408 5576C2453 5464 2504 5507 2568 5481L2574 5421C2549 5404 2517 5404 2491 5378C2421 5326 2428 5257 2421 5180C2408 5128 2383 5137 2370 5103C2402 5085 2479 5137 2555 5171C2645 5206 2664 5240 2664 5343C2747 5343 2715 5361 2779 5369C2792 5404 2779 5395 2811 5404C2849 5343 2843 5275 2939 5343C3009 5386 3009 5447 3002 5524C3047 5507 3073 5472 3130 5490C3188 5507 3168 5558 3175 5593C3264 5610 3245 5593 3264 5687C3341 5687 3347 5705 3379 5773C3424 5756 3647 5541 3679 5498C3526 5533 3564 5318 3603 5266C3660 5266 3641 5292 3686 5300C3705 5240 3731 5163 3794 5137L3833 5171C3903 5068 3903 5111 3954 5060C3986 5042 3954 5042 3999 5034C4018 5077 4005 5128 4012 5171C4018 5232 4037 5223 4018 5292L4069 5300C4069 5361 4018 5404 3999 5464L4056 5481C4056 5619 3769 5730 3724 5524C3667 5541 3571 5662 3513 5705C3488 5730 3449 5748 3449 5773C3584 5782 4037 5636 4152 5567C4133 5507 4075 5481 4146 5352C4165 5309 4197 5206 4254 5197C4267 5249 4293 5343 4222 5352C4216 5309 4210 5318 4242 5309C4216 5283 4229 5292 4235 5257C4197 5275 4184 5343 4184 5386L4158 5412L4184 5429C4158 5447 4184 5447 4152 5438C4127 5610 4254 5507 4337 5481C4325 5472 4325 5472 4318 5447L4337 5438C4350 5464 4344 5455 4363 5464L4388 5447L4369 5421C4388 5412 4395 5412 4408 5412C4427 5404 4408 5404 4420 5404L4446 5421C4484 5386 4497 5404 4497 5343C4554 5361 4542 5343 4586 5318L4580 5361C4523 5378 4491 5429 4427 5455C4369 5481 4318 5524 4254 5550C4158 5593 4210 5748 4369 5696C4408 5687 4446 5687 4478 5670C4478 5653 4459 5627 4440 5627C4401 5610 4395 5644 4356 5619C4388 5584 4452 5601 4491 5584C4503 5576 4567 5533 4574 5515L4510 5481C4523 5464 4510 5481 4529 5464C4542 5455 4535 5464 4548 5447C4586 5412 4638 5335 4625 5275C4510 5266 4510 5343 4452 5378L4440 5343C4376 5335 4401 5343 4369 5300L4344 5275L4286 5300C4299 5232 4388 5197 4408 5223C4440 5266 4414 5266 4420 5309C4484 5343 4471 5292 4516 5275C4529 5266 4657 5223 4663 5240L4669 5249L4676 5257C4676 5266 4682 5266 4682 5266C4721 5240 4810 5189 4829 5154C4791 5051 4727 5085 4727 4939C4727 4896 4727 4828 4721 4785C4714 4742 4676 4707 4695 4681C4727 4681 4836 4802 4855 4836C4931 4965 4880 5051 4867 5111C4931 5094 4957 5025 5008 4974C5078 4905 5117 4879 5027 4828C4970 4793 4919 4742 4906 4673C4893 4638 4887 4604 4874 4570C4842 4484 4816 4561 4816 4492C4867 4484 4867 4501 4899 4527C4906 4527 4919 4535 4925 4544ZM3699 5902C3701.14 5901.61 3703.17 5901.18 3705.09 5900.71C3703.34 5899.38 3701.59 5898.09 3699.84 5896.82C3699.52 5898.5 3699.25 5900.23 3699 5902ZM3705.09 5900.71C3744.89 5930.94 3780.71 5975.01 3807 6040L3833 6014C3833 6057 3820 6006 3826 6066C3890 6057 3839 6049 3877 6031C3897 6057 3871 6040 3858 6100L3801 6100C3769 6031 3743 5980 3692 5937L3679 5963C3628 5963 3603 5954 3571 5997C3558 6031 3558 6083 3577 6117C3596 6117 3584 6117 3603 6109C3609 6109 3616 6100 3616 6100C3635 6074 3616 6040 3667 6049C3667 6100 3647 6186 3711 6238C3724 6221 3724 6178 3756 6169C3775 6178 3782 6212 3826 6238C3852 6255 3897 6281 3922 6281C3929 6246 3922 6255 3916 6221C3890 6229 3897 6238 3884 6229C3871 6195 3865 6186 3877 6143L3858 6109C3884 6092 3897 6092 3916 6074C3935 6117 3916 6092 3941 6109L3909 6006C3858 6006 3903 6006 3865 6014C3865 5971 3871 5971 3897 5945L3890 5894C3858 5877 3833 5877 3794 5868C3739.78 5868 3742.56 5891.53 3705.09 5900.71ZM2862 6737L2830 6762C2862 6780 2855 6788 2907 6788C2894 6754 2900 6780 2887 6745C2913 6728 2900 6754 2913 6719L2843 6702L2862 6737ZM2900 6685L2894 6608L2894 6651L2862 6668C2875 6685 2868 6685 2900 6685ZM2523 6547C2530 6539 2517 6539 2517 6547C2517 6565 2523 6556 2523 6547ZM2568 6547C2594 6565 2594 6547 2600 6547C2581 6522 2587 6522 2555 6522C2555 6530 2562 6547 2568 6547ZM3258 6513C3264 6504 3271 6513 3271 6496C3271 6479 3264 6487 3264 6479C3226 6470 3220 6496 3258 6513ZM2606 6470C2606 6479 2600 6522 2632 6522C2645 6479 2619 6487 2632 6453C2606 6470 2619 6444 2606 6470ZM3041 6461.49L3022 6453C3030.12 6457.45 3036.11 6460.12 3041 6461.49ZM3041 6453C3054.78 6456.86 3059.81 6458.91 3079 6453L3066 6418C3047 6427 3053 6418 3041 6453ZM2702 6436C2651 6427 2702 6427 2657 6418C2651 6461 2657 6513 2702 6496C2702 6453 2689 6513 2696 6453C2728 6453 2728 6470 2747 6470L2740 6418L2779 6427L2779 6350C2696 6375 2696 6341 2702 6436ZM3117 6418C3117 6393 3124 6427 3130 6393C3105 6375 3111 6367 3079 6384C3073 6410 3085 6393 3098 6444C3101.73 6454.04 3105.46 6458.32 3108.13 6459.93C3105.03 6460.89 3099.88 6463.6 3092 6470L3079 6479L3117 6496L3149 6470L3168 6504L3200 6504C3207 6418 3200 6496 3168 6453C3175 6427 3162 6436 3200 6427L3156 6401L3156 6410L3149 6436L3143 6453C3130 6453 3111 6453 3117 6418ZM3053 6367L2990 6375C2996 6410 3015 6410 2990 6427C2964 6410 2970 6384 2939 6410C2964 6427 2983 6444 3022 6453C3022 6401 3041 6410 3053 6367ZM1348 6332L1316 6350L1323 6393L1354 6410L1335 6427L1348 6470C1374 6453 1361 6436 1367 6410C1380 6375 1386 6393 1374 6358C1399 6341 1393 6341 1406 6315C1342 6307 1374 6298 1335 6272C1323 6307 1342 6289 1348 6332ZM4459 6264C4440 6298 4452 6281 4471 6289C4484 6264 4478 6272 4478 6238C4471 6246 4459 6255 4459 6264ZM4082 6281C4127 6281 4095 6298 4107 6255L4082 6281ZM4459 6212C4461.28 6209.96 4463.31 6208.29 4465.1 6206.94C4465.04 6205.74 4465 6204.43 4465 6203C4427 6186 4459 6195 4427 6195L4414 6255L4459 6212ZM1374 6195C1386 6152 1367 6169 1361 6160C1303 6246 1348 6264 1393 6272C1386 6229 1386 6238 1354 6221C1361 6212 1374 6195 1374 6195ZM4178 6178C4133 6178 4165 6178 4120 6195C4120 6212 4114 6221 4114 6229C4114 6246 4114 6246 4120 6255L4139 6255C4152 6238 4146 6238 4146 6203C4171 6195 4171 6203 4178 6178ZM1195 6152C1150 6186 1099 6203 1093 6264C1048 6281 1067 6264 1029 6298L1035 6350C997 6367 1003 6358 990 6401C1010 6436 997 6427 1035 6427L1035 6384L1080 6384C1073 6350 1080 6358 1112 6350L1112 6315C1163 6281 1093 6315 1150 6255L1125 6229C1156 6212 1150 6229 1169 6221L1195 6152ZM4382 6203C4446 6195 4395 6195 4433 6160C4414 6135 4395 6135 4356 6135C4382 6178 4369 6169 4382 6203ZM4331 6117C4331 6109 4325 6109 4325 6117C4325 6126 4325 6135 4331 6117ZM3980 6066L3948 6031C3941 6057 3954 6066 3980 6066ZM4165 6023C4139 6023 4146 6031 4127 6049C4120 6066 4127 6092 4127 6109C4120 6152 4120 6100 4114 6160L4178 6143C4171 6092 4171 6126 4146 6092C4158 6074 4146 6092 4165 6083L4178 6066L4158 6057C4158 6057 4158 6057 4152 6049L4165 6023ZM2728 5971C2664 6023 2645 6100 2651 6186L2670 6212L2715 6203C2715 6186 2779 6100 2798 6092C2811 6109 2817 6057 2804 6143C2785 6255 2830 6281 2849 6307C2881 6289 2887 6289 2907 6272C2970 6203 2919 6083 2919 6083C2932 6049 2939 6074 2939 6023C2990 6014 2958 6040 2996 6074C3073 6152 3105 6031 3034 5971C3002 5937 2977 5945 2951 5928C2939.09 5915.61 2945.79 5920.93 2951.97 5926.22C2950.12 5924.58 2947.82 5922.53 2945 5920L2939 5911C2798 5980 2772 5920 2728 5971ZM3954 5963C3935 5920 3929 5920 3916 5920C3916 5963 3922 5963 3954 5963ZM1137 5911C1144 5894 1144 5902 1144 5877L1086 5868C1093 5945 1080 5911 1150 5980L1195 5971L1201 6006L1278 6014C1284 5971 1284 5997 1297 5963C1259 5937 1291 5954 1246 5954L1252 5911C1214 5885 1220 5885 1169 5885C1169 5911 1169 5928 1144 5945C1131 5920 1137 5945 1137 5911ZM4471 5937C4516 5937 4625 5911 4638 5877C4548 5859 4535 5825 4433 5834C4395 5834 4280 5868 4261 5902C4312 5928 4414 5945 4471 5937ZM2415 5954C2389 6023 2325 6031 2338 6074C2440 6109 2498 6023 2536 6014C2530 6092 2472 6057 2459 6169C2511 6169 2619 6040 2651 5997C2670 5971 2683 5963 2702 5937C2696 5920 2657 5894 2638 5868C2600 5808 2415 5782 2338 5782L2313 5816C2306 5911 2364 5885 2415 5954ZM2638 5791C2651 5834 2638 5834 2670 5868C2760 5954 2894 5920 2977 5834L3066 5687C2951 5696 2983 5705 2913 5765C2855 5816 2843 5868 2817 5885C2785 5842 2811 5799 2747 5756C2709 5730 2664 5705 2613 5705C2619 5748 2632 5748 2638 5791ZM3143 5593L3130 5524C3073 5507 3034 5533 2990 5576C3028 5662 3079 5662 3149 5679C3143 5713 3098 5696 3047 5782C3028 5808 3041 5816 3009 5851C2990 5868 2970 5885 2958 5902C3028 5911 3060 5937 3098 5988L3168 5997L3162 5954C3175 5937 3194 5911 3207 5894L3111 5885L3111 5851C3162 5851 3194 5859 3251 5851C3290 5842 3315 5816 3347 5791C3341 5739 3335 5756 3315 5730C3213 5696 3207 5799 3130 5799C3130 5765 3143 5765 3175 5748C3200 5730 3200 5713 3226 5696L3220 5636C3175 5619 3175 5644 3124 5644C3117 5610 3117 5610 3143 5593ZM2581 5679C2581 5644 2613 5610 2632 5576C2600 5524 2517 5490 2472 5541C2396 5619 2440 5662 2440 5739C2504 5748 2536 5791 2613 5799C2613 5748 2587 5722 2581 5679ZM684 5627C786 5567 786 5584 792 5515L831 5507C837 5481 837 5490 831 5464C799 5455 760 5472 729 5481C658 5498 645 5515 633 5524C575 5567 607 5524 562 5593C543 5627 524 5653 518 5687C550 5679 665 5644 684 5627ZM2779 5756C2811 5748 2792 5748 2817 5748C2836 5773 2824 5773 2862 5782L2849 5739L2900 5730C2900 5713 2970 5679 2996 5670L2977 5627L2919 5644C2932 5601 2932 5636 2951 5593L2932 5576C2913 5576 2919 5584 2900 5584C2900 5541 2945 5593 2900 5541C2868 5541 2887 5567 2855 5550C2875 5515 2868 5558 2875 5524C2824 5498 2830 5524 2779 5515C2779 5481 2798 5438 2747 5404C2709 5378 2677 5369 2638 5395C2600 5429 2594 5472 2619 5515C2651 5567 2689 5550 2740 5550C2740 5593 2747 5593 2734 5610L2709 5593L2709 5584C2657 5584 2638 5610 2619 5653L2632 5662C2689 5730 2696 5705 2747 5687C2740 5739 2747 5722 2760 5730L2785 5705C2785 5739 2779 5722 2779 5756ZM2855 5490C2887 5498 2919 5524 2951 5524C2970 5498 2977 5498 2970 5481C2970 5429 2945 5369 2887 5361C2830 5395 2843 5429 2855 5490ZM1022 5455C1029 5447 1035 5481 1029 5429C1022 5429 1016 5412 1016 5404C997 5343 1035 5378 990 5335C971 5378 971 5438 1022 5455ZM1310 5395C1291 5404 1297 5404 1284 5421C1291 5447 1303 5464 1297 5490C1265 5481 1284 5481 1265 5472C1233 5455 1214 5472 1182 5404L1131 5412L1125 5378C1086 5369 1086 5369 1054 5378C1061 5515 1208 5533 1208 5601C1163 5619 1099 5610 1067 5653C1093 5670 1118 5653 1208 5696C1278 5730 1265 5730 1348 5748L1348 5782L1297 5791C1310 5834 1329 5816 1374 5816C1412 5816 1552 5773 1572 5722L1616 5722C1616 5696 1604 5550 1584 5524C1572 5490 1578 5533 1559 5472L1514 5481L1521 5438C1508 5421 1514 5429 1501 5421C1501 5412 1482 5395 1482 5395L1476 5395C1476 5395 1469 5404 1437 5412C1444 5421 1457 5447 1476 5464C1495 5429 1469 5447 1501 5438C1482 5515 1495 5481 1476 5498C1457 5515 1469 5515 1457 5533C1455.26 5534.36 1453.76 5535.55 1452.48 5536.58C1452.47 5535.37 1448.98 5535.78 1437 5541C1431 5507 1437 5507 1444 5472C1412 5455 1412 5447 1406 5421C1342 5404 1335 5378 1291 5343C1278 5361 1284 5326 1278 5361C1278 5386 1278 5378 1284 5395C1297 5378 1291 5361 1310 5395ZM2619 5352C2574 5361 2594 5352 2587 5386C2619 5378 2600 5404 2619 5352ZM1450 5386C1437 5361 1457 5369 1425 5369C1437 5386 1406 5378 1450 5386ZM2498 5335C2511 5361 2498 5343 2523 5361L2523 5326L2498 5335ZM594 5326C588 5318 626 5318 575 5318C537 5318 569 5318 556 5326C575 5343 575 5335 594 5326ZM460 5361L435 5335C352 5343 333 5378 301 5404C275 5429 269 5412 281 5455C352 5464 294 5429 345 5404C352 5438 313 5447 371 5455C384 5421 377 5421 371 5378C396 5386 390 5395 409 5429L441 5421L428 5386L467 5404L473 5395C537 5318 531 5386 531 5326C492 5309 492 5318 447 5326C473 5343 467 5343 460 5361ZM4388 5283C4376 5257 4395 5266 4363 5266L4388 5283ZM2466 5223C2491 5197 2479 5214 2472 5197C2453 5214 2466 5223 2466 5223ZM1917 5214L1936 5206L1910 5180C1872 5223 1897 5249 1897 5309L1936 5309C1929 5343 1929 5335 1923 5361C1955 5361 1948 5352 1961 5386C1929 5386 1929 5378 1910 5369C1885 5395 1840 5335 1763 5352C1750 5369 1757 5395 1763 5412C1789 5481 1859 5438 1885 5515C1846 5533 1802 5524 1757 5524C1763 5576 1814 5610 1859 5636C1910 5653 1974 5644 2032 5636C2025 5593 2019 5636 2019 5584C2076 5601 2012 5601 2083 5610C2108 5558 2146 5498 2153 5429L2127 5447C2089 5369 2070 5438 2038 5438C2030.37 5439.81 2025.8 5441.25 2023.23 5442.26C2025.19 5440.14 2026.27 5435.89 2019 5429C2025 5412 2044 5369 2076 5386L2083 5318L2057 5361C2051 5352 2038 5352 2057 5326C2076 5292 2070 5343 2076 5300C2057 5275 2025 5283 2012 5240C1987 5249 1955 5257 1948 5223L1923 5232C1897 5240 1917 5232 1904 5232C1910 5223 1917 5214 1917 5214ZM978 5189L939 5197C914 5163 933 5189 901 5180L888 5214C882 5232 882 5214 875 5232C869 5257 907 5352 946 5361L939 5318C965 5292 965 5309 965 5300L971 5300C978 5240 978 5283 958 5249C965 5214 971 5232 978 5189ZM3794 5180C3769 5189 3743 5249 3731 5275C3699 5352 3718 5352 3699 5395C3660 5386 3654 5378 3667 5343L3628 5309C3590 5352 3603 5455 3647 5472C3641 5447 3628 5455 3628 5412L3679 5395C3673 5429 3692 5421 3660 5429L3660 5464C3762 5455 3705 5472 3769 5404C3801 5369 3826 5335 3833 5283L3858 5275L3865 5275C3839 5240 3852 5257 3833 5257C3826 5300 3826 5326 3782 5318C3769 5283 3788 5275 3801 5249C3788 5223 3814 5249 3782 5223L3794 5180ZM2574 5352C2606 5335 2574 5343 2594 5326L2619 5318C2619 5318 2626 5318 2626 5309C2600 5283 2606 5300 2613 5240C2581 5240 2606 5249 2568 5257L2523 5232C2536 5197 2523 5223 2555 5206L2491 5180C2523 5249 2517 5206 2466 5257C2466 5300 2466 5283 2485 5318L2517 5300L2523 5326C2562 5343 2536 5335 2574 5352ZM2453 5197C2459 5189 2459 5197 2466 5180C2466 5154 2472 5180 2447 5163L2453 5197ZM895 5163L856 5171C875 5214 888 5180 895 5163ZM3916 5146C4005 5214 3788 5412 3756 5472C3731 5524 3788 5601 3865 5610C3960 5610 4018 5541 4018 5490C3973 5490 3941 5515 3884 5507C3890 5472 3897 5490 3929 5472C3986 5447 4012 5369 4018 5335L3960 5343C3967 5309 3973 5326 3986 5300C4012 5223 3960 5197 3980 5103C3929 5103 3935 5120 3897 5154C3865 5180 3852 5189 3858 5240L3884 5232C3897 5189 3858 5257 3916 5146ZM895 5146C952 5171 920 5163 958 5163C939 5120 952 5128 895 5120C895 5103 895 5103 901 5085L869 5077C882 5034 882 5042 869 5025C856 5051 856 5077 856 5111L895 5146ZM645 5077L658 4999L626 4991C620 5008 620 5025 620 5034C601 5068 601 5025 601 5068L645 5077ZM614 4931C594 4948 601 4939 594 4974C633 4956 633 4956 614 4931ZM5468 4862C5436 4871 5436 4871 5430 4905C5468 4888 5461 4896 5468 4862ZM4855 5068C4855 5025 4848 5051 4842 5008C4874 4982 4861 4999 4867 4956C4836 4974 4842 4965 4823 4999C4791 4991 4797 4999 4772 4982C4778 4939 4823 4956 4855 4931C4848 4905 4848 4914 4829 4905C4842 4879 4855 4879 4797 4845L4797 4819C4797 4793 4797 4810 4791 4802L4752 4810C4746 4862 4752 4974 4772 5017C4791 5025 4765 5017 4810 5017C4797 5051 4797 5025 4804 5060C4848 5051 4823 5042 4855 5068ZM5327 4914L5346 4922L5359 4896L5417 4914C5391 4888 5404 4879 5417 4845C5378 4845 5404 4836 5372 4853L5359 4828C5289 4819 5276 4836 5219 4845L5232 4888C5276 4888 5263 4888 5289 4914L5327 4914ZM96 4956L134 4939C134 4974 134 4965 128 4982C128 4991 122 4991 122 4991L186 5025C192 5068 192 5051 211 5085C230 5077 230 5077 256 5085C269 5128 301 5137 345 5120C371 5154 377 5163 416 5094C384 5094 396 5103 377 5094C390 5051 396 5060 377 5025C364 4991 358 4974 333 4948L301 4956C294 4922 301 4948 307 4922C281 4888 237 4879 198 4896C179 4871 198 4862 122 4871C109 4845 83 4836 58 4819C58 4828 64 4853 71 4862L83 4871C90 4871 90 4871 96 4879C90 4922 90 4888 83 4922L96 4956ZM5040 4793L5072 4776C5059 4742 5085 4767 5046 4742C5053 4724 5059 4716 5053 4690L5040 4664C5034 4656 5034 4656 5027 4647C4995 4638 5021 4638 4989 4656L4989 4613C4963 4647 4989 4630 4950 4630L4944 4595L4925 4604L4950 4699C4963 4673 4957 4681 4976 4673L4963 4724L4982 4750L5021 4733C5008 4776 5014 4733 5008 4776L5040 4793ZM2862 6874C2862 6874 2868 6874 2862 6840C2894 6840 2881 6848 2900 6823C2855 6788 2855 6797 2843 6805L2862 6874Z" />
	<path id="Layer" fill-rule="evenodd" class="shp0" d="M2817 3933C2887 3950 2849 4019 3085 3968C3143 3950 3092 3968 3124 3942C3207 3873 3520 3839 3641 3890C3762 3942 3750 3916 3871 3916C3929 3916 4043 3916 4082 3873C4139 3796 4114 3641 4075 3555C4063 3529 4063 3529 4075 3495L4095 3460C4190 3477 4216 3684 4344 3615C4350 3563 4299 3495 4242 3486C4254 3546 4299 3512 4312 3581C4248 3581 4280 3581 4242 3546C4216 3520 4210 3538 4184 3495C4158 3452 4114 3409 4063 3409C4043 3529 4037 3477 4031 3503C4012 3546 4127 3675 4050 3864C4005 3882 3769 3890 3718 3882C3686 3882 3635 3847 3590 3839C3456 3813 3264 3856 3149 3890C3060 3925 3002 3976 2887 3942L2875 3899C2734 3890 2772 3950 2715 3993C2657 4002 2638 3959 2549 3968C2581 3916 2709 3847 2772 3830C2824 3813 2868 3813 2919 3804C2970 3796 2996 3770 3047 3761C3296 3727 3200 3804 3513 3727C3616 3701 3622 3718 3622 3675L3469 3701C3494 3649 3533 3675 3545 3641C3526 3624 3456 3632 3449 3718L3239 3727C3264 3692 3277 3727 3283 3675C3251 3675 3232 3692 3213 3710C3143 3727 3053 3735 2990 3744C2945 3761 2939 3778 2894 3787C2862 3787 2830 3787 2792 3796C2689 3813 2574 3882 2511 3959C2491 3985 2491 3968 2498 4002C2555 4019 2568 3993 2613 4002C2670 4028 2683 4028 2747 4028C2766 3985 2779 3950 2817 3933Z" />
	<path id="Layer" fill-rule="evenodd" class="shp0" d="M2919 958C2926 1035 2855 1095 2862 1164L2983 1216C2996 1259 2990 1276 2958 1302C2907 1302 2868 1267 2824 1250C2798 1267 2811 1259 2798 1293C2747 1405 2734 1482 2657 1422C2657 1362 2721 1259 2715 1207C2670 1181 2606 1164 2574 1130C2581 1095 2574 1095 2600 1070C2657 1070 2709 1113 2760 1121C2804 1070 2804 872 2919 958ZM2753 1190C2753 1276 2689 1328 2696 1388C2734 1379 2772 1267 2785 1233C2862 1224 2875 1250 2945 1267C2939 1207 2881 1216 2830 1181C2811 1104 2907 1035 2881 975C2830 958 2830 1070 2792 1130C2747 1181 2664 1087 2613 1095C2613 1156 2709 1164 2753 1190Z" />
	<path id="Layer" fill-rule="evenodd" class="shp0" d="M5174 4767C5174 4638 5155 4595 5212 4475C5232 4432 5257 4415 5283 4389C5302 4372 5315 4355 5321 4337L5346 4277L5372 4277C5404 4320 5404 4415 5404 4466C5391 4552 5302 4673 5238 4733C5212 4759 5200 4819 5129 4853C5129 4802 5142 4810 5174 4767ZM5353 4406C5302 4406 5327 4398 5295 4432L5302 4466C5257 4466 5302 4458 5263 4458C5200 4527 5212 4630 5206 4716C5244 4699 5225 4690 5225 4647C5238 4656 5238 4656 5244 4656C5251 4664 5257 4664 5270 4664L5263 4613L5295 4630C5302 4595 5334 4561 5346 4527C5315 4501 5315 4527 5315 4484C5346 4484 5327 4492 5359 4492L5366 4441L5340 4441C5327 4423 5334 4432 5353 4406Z" />
	<path id="Layer" fill-rule="evenodd" class="shp0" d="M3366 5395C3341 5421 3315 5447 3283 5464C3258 5472 3200 5507 3181 5507C3124 5438 3213 5300 3251 5249C3283 5214 3430 5103 3481 5111C3475 5146 3469 5154 3430 5171C3418 5249 3418 5335 3366 5395ZM3258 5404L3271 5421C3226 5438 3232 5404 3239 5455C3354 5395 3264 5412 3322 5369C3309 5352 3303 5352 3296 5326C3322 5326 3347 5335 3366 5352L3366 5309C3322 5309 3303 5318 3290 5266C3354 5292 3309 5300 3379 5275C3366 5232 3373 5275 3347 5232C3303 5292 3303 5223 3245 5318C3220 5352 3194 5412 3200 5455C3200 5455 3213 5412 3258 5404Z" />
	<path id="Layer" fill-rule="evenodd" class="shp0" d="M4452 3305C4516 3314 4567 3323 4625 3340C4618 3383 4612 3366 4618 3417C4593 3426 4586 3417 4574 3443C4567 3452 4574 3452 4554 3477C4510 3477 4529 3460 4478 3460C4484 3495 4491 3486 4510 3512L4497 3546L4433 3546C4350 3443 4325 3598 4395 3615L4388 3563C4452 3581 4414 3598 4510 3581L4535 3529L4580 3520L4599 3452L4669 3452C4669 3409 4657 3417 4657 3391C4644 3348 4663 3357 4638 3305C4593 3288 4580 3305 4548 3288C4510 3271 4497 3271 4452 3280L4452 3305Z" />
	<path id="Layer" fill-rule="evenodd" class="shp0" d="M2881 3417L2804 3434C2804 3452 2855 3503 2875 3546C2849 3572 2817 3606 2779 3624C2715 3658 2670 3649 2632 3667C2657 3735 2785 3649 2824 3632L2843 3649C2894 3658 2881 3658 2926 3675C2919 3658 2926 3649 2900 3632C2887 3624 2875 3632 2849 3615L2900 3563C2875 3529 2913 3546 2855 3460C2900 3443 2894 3434 2926 3400C2907 3348 2868 3254 2798 3262C2804 3297 2875 3305 2881 3417Z" />
	<path id="Layer" fill-rule="evenodd" class="shp0" d="M3258 3211C3239 3348 3379 3460 3411 3495C3443 3538 3520 3581 3571 3615C3603 3641 3679 3692 3724 3684C3724 3649 3705 3649 3667 3632C3641 3624 3616 3606 3590 3589C3469 3512 3424 3477 3341 3366C3322 3340 3271 3228 3277 3202L3258 3211Z" />
	<path id="Layer" fill-rule="evenodd" class="shp0" d="M1303 2153C1361 2136 1354 2084 1444 2076C1418 2102 1437 2093 1406 2102C1393 2110 1399 2110 1386 2127C1444 2162 1425 2162 1463 2153L1463 2110L1495 2110C1508 2145 1501 2136 1501 2170L1412 2188C1393 2170 1386 2145 1361 2162C1393 2213 1444 2213 1501 2188C1540 2196 1546 2205 1597 2205C1591 2153 1565 2170 1533 2127C1489 2067 1482 2110 1444 2076L1546 2067C1565 2084 1559 2093 1591 2084L1591 2059C1508 2033 1329 2050 1303 2153Z" />
	<path id="Layer" fill-rule="evenodd" class="shp0" d="M3328 89C3335 115 3335 132 3309 150C3277 175 3117 98 3105 46C3162 -48 3290 21 3328 89ZM3290 115C3277 64 3188 38 3156 46C3175 81 3245 107 3290 115Z" />
	<path id="Layer" fill-rule="evenodd" class="shp0" d="M4012 3013C4050 3022 4043 3004 4088 3082C4095 3099 4178 3237 4075 3245L4075 3237C4069 3254 4075 3219 4063 3194C3999 3211 4056 3280 4120 3271C4171 3219 4158 3142 4127 3082C4114 3047 4095 3030 4075 3004C4043 2961 4063 2944 4037 2910C4012 2936 4024 2927 4012 2979L4012 3013Z" />
	<path id="Layer" fill-rule="evenodd" class="shp0" d="M2721 3280C2689 3297 2657 3297 2626 3314C2638 3357 2689 3340 2715 3323C2760 3297 2753 3262 2747 3219C2792 3219 2817 3237 2843 3228C2849 3194 2855 3211 2836 3176C2798 3168 2772 3194 2734 3211C2715 3176 2657 3125 2619 3125C2619 3176 2645 3159 2677 3194C2728 3245 2702 3245 2721 3280Z" />
	<path id="Layer" fill-rule="evenodd" class="shp0" d="M2645 3718C2651 3744 2651 3744 2670 3753C2619 3735 2511 3761 2491 3778C2530 3813 2555 3778 2594 3778C2632 3770 2632 3778 2677 3778C2709 3770 2696 3761 2728 3753C2772 3761 2868 3787 2881 3718C2830 3718 2824 3744 2760 3727C2715 3718 2696 3701 2645 3718Z" />
	<path id="Layer" fill-rule="evenodd" class="shp0" d="M3098 4243C3053 4243 3079 4234 3060 4260C3098 4277 3226 4277 3277 4277C3328 4277 3430 4303 3475 4277C3443 4234 3315 4251 3271 4251L3098 4243Z" />
	<path id="Layer" fill-rule="evenodd" class="shp0" d="M3922 3701C3992 3701 4050 3555 3973 3520C3954 3555 4005 3624 3941 3649C3941 3606 3935 3529 3890 3512C3877 3538 3897 3563 3903 3598C3909 3641 3903 3675 3922 3701Z" />
	<path id="Layer" fill-rule="evenodd" class="shp0" d="M3073 4217C3098 4234 3092 4234 3124 4234L3175 4234C3226 4234 3430 4260 3469 4234C3430 4208 3322 4208 3277 4217L3124 4200C3079 4200 3092 4200 3073 4217Z" />
	<path id="Layer" fill-rule="evenodd" class="shp0" d="M2913 4251C2881 4226 2549 4217 2523 4226C2549 4260 2562 4243 2606 4251C2664 4251 2881 4277 2913 4251Z" />
	<path id="Layer" fill-rule="evenodd" class="shp0" d="M2542 4355C2542 4355 2542 4363 2536 4363C2555 4363 2549 4372 2587 4372L2747 4380C2868 4389 2926 4406 2926 4363C2855 4355 2792 4355 2728 4355C2696 4355 2664 4346 2632 4346C2600 4346 2581 4337 2555 4355L2542 4355Z" />
	<path id="Layer" fill-rule="evenodd" class="shp0" d="M1623 3237C1655 3219 1719 3176 1687 3133C1667 3151 1674 3176 1648 3194C1629 3219 1616 3202 1597 3228C1591 3262 1597 3254 1584 3288C1476 3323 1482 3237 1437 3211C1437 3211 1412 3202 1444 3271C1469 3331 1565 3314 1623 3305L1623 3237Z" />
	<path id="Layer" fill-rule="evenodd" class="shp0" d="M2606 4122C2491 4114 2523 4122 2511 4140C2542 4148 2875 4165 2907 4157C2900 4122 2855 4140 2817 4131L2606 4122Z" />
	<path id="Layer" fill-rule="evenodd" class="shp0" d="M1265 5567C1252 5550 1233 5541 1214 5541C1220 5593 1444 5705 1501 5705C1501 5696 1514 5679 1444 5662C1399 5653 1412 5644 1374 5636C1380 5610 1386 5601 1374 5584L1348 5610L1297 5584C1303 5558 1291 5576 1316 5550C1291 5550 1291 5550 1265 5567Z" />
	<path id="Layer" fill-rule="evenodd" class="shp0" d="M3456 4165C3424 4157 3079 4140 3053 4148C3060 4183 3105 4165 3143 4174L3258 4174C3303 4174 3437 4208 3456 4165Z" />
	<path id="Layer" fill-rule="evenodd" class="shp0" d="M3654 4398C3686 4423 3647 4406 3692 4423L3814 4432L3897 4432C3986 4432 3960 4423 3973 4406C3929 4389 3711 4398 3654 4398Z" />
	<path id="Layer" fill-rule="evenodd" class="shp0" d="M2849 4423C2785 4415 2626 4389 2606 4423C2619 4441 2606 4441 2683 4441L2760 4441C2811 4449 2868 4458 2919 4449C2907 4415 2887 4423 2849 4423Z" />
	<path id="Layer" fill-rule="evenodd" class="shp0" d="M3833 2884C3858 2876 3845 2876 3871 2867C3922 2893 3929 2961 3960 2970C3967 2936 3948 2910 3935 2884C3903 2833 3897 2841 3858 2824C3833 2781 3845 2764 3782 2755C3794 2815 3794 2764 3820 2807C3833 2841 3820 2850 3833 2884Z" />
	<path id="Layer" fill-rule="evenodd" class="shp0" d="M2370 4355C2338 4329 2025 4320 2012 4337C2025 4355 2000 4355 2051 4355L2281 4363C2357 4363 2344 4372 2370 4355Z" />
	<path id="Layer" fill-rule="evenodd" class="shp0" d="M2785 5705L2830 5722C2836 5679 2843 5705 2817 5679C2817 5670 2836 5610 2836 5601L2811 5541C2785 5558 2760 5576 2753 5610C2792 5653 2785 5627 2785 5705Z" />
	<path id="Layer" fill-rule="evenodd" class="shp0" d="M2600 3529C2638 3572 2766 3512 2779 3391C2734 3391 2734 3434 2702 3469C2664 3512 2626 3495 2600 3529Z" />
	<path id="Layer" fill-rule="evenodd" class="shp0" d="M3232 4458C3194 4449 3117 4423 3085 4458C3092 4466 3073 4466 3117 4475L3232 4475C3315 4475 3379 4501 3392 4466C3360 4441 3277 4458 3232 4458Z" />
	<path id="Layer" fill-rule="evenodd" class="shp0" d="M1980 5481C1974 5421 1987 5472 1987 5421C1961 5404 1974 5412 1942 5412C1910 5472 1987 5567 2025 5576C2025 5515 1993 5576 2019 5472C1980 5472 2000 5472 1980 5481Z" />
	<path id="Layer" fill-rule="evenodd" class="shp0" d="M2383 2927C2389 2953 2383 2944 2396 2979C2472 2996 2434 2961 2428 2944C2428 2936 2421 2918 2421 2901C2383 2893 2332 2850 2300 2858C2287 2901 2325 2884 2383 2927Z" />
	<path id="Layer" fill-rule="evenodd" class="shp0" d="M837 4277C799 4269 760 4269 722 4269C709 4312 786 4303 824 4303C869 4303 927 4312 958 4294C946 4269 939 4277 901 4277L837 4277Z" />
	<path id="Layer" fill-rule="evenodd" class="shp0" d="M2862 2936C2830 2961 2817 2979 2836 3013C2868 2996 2913 2936 2875 2867C2849 2833 2862 2841 2824 2833C2824 2850 2830 2867 2830 2867L2862 2936Z" />
	<path id="Layer" fill-rule="evenodd" class="shp0" d="M2926 4475C2887 4449 2804 4458 2747 4458C2683 4449 2709 4458 2696 4475C2728 4484 2772 4484 2811 4492C2875 4492 2900 4501 2926 4475Z" />
	<path id="Layer" fill-rule="evenodd" class="shp0" d="M3699 2781L3667 2807C3667 2841 3679 2850 3718 2858C3711 2807 3769 2704 3679 2695C3679 2747 3699 2729 3699 2781Z" />
	<path id="Layer" fill-rule="evenodd" class="shp0" d="M3449 3082C3437 3030 3405 2918 3341 2918C3341 2944 3373 2970 3386 3004C3405 3047 3392 3082 3449 3082Z" />
	<path id="Layer" fill-rule="evenodd" class="shp0" d="M2044 4398C2063 4406 2038 4398 2076 4406L2172 4415L2242 4415C2319 4432 2293 4415 2306 4406C2281 4380 2076 4380 2044 4398Z" />
	<path id="Layer" fill-rule="evenodd" class="shp0" d="M3731 4475C3743 4492 3807 4492 3839 4492C3890 4492 3922 4501 3954 4484C3935 4458 3756 4449 3731 4475Z" />
	<path id="Layer" fill-rule="evenodd" class="shp0" d="M1559 2850L1546 2798C1578 2781 1578 2790 1578 2772L1489 2764C1476 2729 1469 2721 1437 2721C1444 2755 1457 2772 1489 2790C1546 2824 1501 2833 1559 2850Z" />
	<path id="Layer" fill-rule="evenodd" class="shp0" d="M2364 2781C2364 2815 2376 2807 2415 2815C2428 2858 2434 2876 2485 2867C2479 2824 2453 2841 2472 2798C2428 2781 2421 2781 2364 2781Z" />
	<path id="Layer" fill-rule="evenodd" class="shp0" d="M3366 2747C3354 2704 3296 2626 3239 2626C3245 2661 3271 2652 3290 2695C3315 2738 3303 2747 3366 2747Z" />
	<path id="Layer" fill-rule="evenodd" class="shp0" d="M3194 2729C3188 2772 3162 2798 3200 2807C3207 2790 3226 2729 3226 2712C3194 2695 3143 2686 3117 2712C3079 2747 3188 2729 3194 2729Z" />
	<path id="Layer" fill-rule="evenodd" class="shp0" d="M3060 3254C3137 3305 3124 3151 3117 3133C3060 3125 3105 3159 3060 3254Z" />
	<path id="Layer" fill-rule="evenodd" class="shp0" d="M2421 3856C2428 3899 2479 3890 2517 3882C2600 3856 2587 3839 2594 3821C2549 3830 2542 3847 2511 3847C2472 3864 2459 3847 2421 3856Z" />
	<path id="Layer" fill-rule="evenodd" class="shp0" d="M3833 3108C3852 3082 3884 2918 3820 2901C3814 2953 3839 2953 3833 3013C3826 3047 3801 3082 3833 3108Z" />
	<path id="Layer" fill-rule="evenodd" class="shp0" d="M3635 3125C3667 3116 3641 3108 3679 3082C3731 3185 3686 3176 3718 3194C3769 3125 3673 3065 3654 3047C3635 3073 3622 3099 3635 3125Z" />
	<path id="Layer" fill-rule="evenodd" class="shp0" d="M3941 3185L3929 3073C3922 3039 3897 3022 3865 3013C3871 3065 3903 3030 3903 3090C3903 3142 3897 3168 3941 3185Z" />
	<path id="Layer" fill-rule="evenodd" class="shp0" d="M2089 4432C2102 4458 2191 4466 2223 4466C2274 4458 2249 4458 2261 4449C2223 4423 2127 4423 2089 4432Z" />
	<path id="Layer" fill-rule="evenodd" class="shp0" d="M4063 3383L4101 3383C4120 3357 4120 3340 4114 3314C4075 3314 4107 3314 4075 3348C4037 3331 4063 3314 4018 3314C4012 3348 4037 3366 4063 3383Z" />
	<path id="Layer" fill-rule="evenodd" class="shp0" d="M2421 3546L2408 3632C2434 3632 2434 3641 2447 3606C2466 3563 2447 3503 2389 3495C2396 3520 2396 3529 2421 3546Z" />
	<path id="Layer" fill-rule="evenodd" class="shp0" d="M2472 3108L2472 3082C2447 3082 2428 3082 2408 3073C2370 3056 2402 3047 2351 3056C2357 3108 2428 3133 2472 3108Z" />
	<path id="Layer" fill-rule="evenodd" class="shp0" d="M2421 3391C2447 3434 2479 3391 2485 3503C2511 3503 2517 3512 2517 3477C2523 3426 2453 3366 2421 3391Z" />
	<path id="Layer" fill-rule="evenodd" class="shp0" d="M1431 4312C1444 4329 1431 4329 1476 4329L1584 4329C1629 4329 1616 4329 1629 4320C1616 4303 1457 4294 1431 4312Z" />
	<path id="Layer" fill-rule="evenodd" class="shp0" d="M1795 3357C1802 3314 1789 3305 1789 3254C1789 3194 1814 3202 1789 3168C1763 3202 1744 3331 1795 3357Z" />
	<path id="Layer" fill-rule="evenodd" class="shp0" d="M3941 3426C3960 3409 3948 3391 3935 3340C3922 3314 3922 3280 3897 3254C3884 3280 3916 3409 3941 3426Z" />
	<path id="Layer" fill-rule="evenodd" class="shp0" d="M4005 2325C4107 2334 4063 2342 4095 2360C4127 2360 4127 2360 4146 2342C4146 2342 4012 2256 4005 2325Z" />
	<path id="Layer" fill-rule="evenodd" class="shp0" d="M1476 2824L1412 2815L1361 2747C1354 2755 1329 2738 1361 2798C1399 2858 1469 2850 1476 2824Z" />
	<path id="Layer" fill-rule="evenodd" class="shp0" d="M1565 3030C1546 2987 1476 3004 1450 2953C1431 2918 1463 2936 1425 2918L1431 2970C1463 3004 1521 3039 1565 3030Z" />
	<path id="Layer" fill-rule="evenodd" class="shp0" d="M3801 3357L3839 3331C3839 3280 3826 3202 3769 3194C3769 3237 3794 3202 3807 3262C3820 3340 3801 3323 3801 3357Z" />
	<path id="Layer" fill-rule="evenodd" class="shp0" d="M2970 3125L2958 3168C2990 3168 2970 3176 2990 3159C3002 3125 3002 3099 2996 3047L2970 3030C2964 3047 2970 3099 2970 3125Z" />
	<path id="Layer" fill-rule="evenodd" class="shp0" d="M1623 1912C1623 1861 1584 1801 1540 1783C1540 1835 1546 1818 1578 1852C1610 1895 1572 1912 1623 1912Z" />
	<path id="Layer" fill-rule="evenodd" class="shp0" d="M2178 3727L2210 3727C2210 3692 2210 3692 2191 3667C2166 3641 2172 3641 2127 3641C2134 3692 2127 3649 2159 3684C2178 3710 2159 3701 2178 3727Z" />
	<path id="Layer" fill-rule="evenodd" class="shp0" d="M1335 2987C1297 2961 1316 2953 1291 2944C1252 2996 1380 3056 1406 3022C1386 3004 1361 3004 1335 2987Z" />
	<path id="Layer" fill-rule="evenodd" class="shp0" d="M3973 3228C3986 3228 4012 3245 4005 3159C4005 3133 3992 3108 3980 3090C3967 3108 3948 3056 3967 3125C3973 3133 3980 3133 3980 3159C3980 3176 3973 3211 3973 3228Z" />
	<path id="Layer" fill-rule="evenodd" class="shp0" d="M1252 2824C1310 2747 1284 2815 1297 2772C1278 2764 1271 2772 1246 2755C1214 2729 1246 2729 1201 2712C1208 2764 1214 2729 1227 2764C1239 2807 1214 2807 1252 2824Z" />
	<path id="Layer" fill-rule="evenodd" class="shp0" d="M2479 2755C2485 2721 2459 2729 2428 2712C2396 2704 2376 2695 2338 2704C2332 2738 2370 2712 2408 2729C2440 2747 2421 2764 2479 2755Z" />
	<path id="Layer" fill-rule="evenodd" class="shp0" d="M1559 2918C1540 2910 1527 2893 1514 2893L1514 2927C1546 2944 1623 2979 1636 2910C1604 2910 1591 2927 1559 2918Z" />
	<path id="Layer" fill-rule="evenodd" class="shp0" d="M3647 4183C3673 4200 3635 4200 3743 4200C3865 4200 3814 4200 3833 4174L3647 4183Z" />
	<path id="Layer" fill-rule="evenodd" class="shp0" d="M3162 3555C3207 3546 3220 3477 3207 3434C3175 3443 3181 3452 3175 3486C3168 3512 3162 3529 3162 3555Z" />
	<path id="Layer" fill-rule="evenodd" class="shp0" d="M1980 2979C2025 2953 2038 2884 1993 2850C1980 2867 1993 2901 1993 2936C1987 2936 1993 2936 1974 2944C1974 2944 1968 2953 1961 2953C1968 2979 1955 2961 1980 2979Z" />
	<path id="Layer" fill-rule="evenodd" class="shp0" d="M1450 3684C1463 3649 1444 3581 1399 3572C1399 3606 1406 3615 1418 3641C1431 3675 1412 3675 1450 3684Z" />
	<path id="Layer" fill-rule="evenodd" class="shp0" d="M2983 3649C3002 3667 3002 3658 3028 3675C3060 3701 3041 3710 3079 3701C3079 3649 3002 3606 2983 3649Z" />
	<path id="Layer" fill-rule="evenodd" class="shp0" d="M2300 3555L2344 3563L2344 3624C2383 3624 2402 3555 2338 3538C2300 3520 2306 3529 2300 3555Z" />
	<path id="Layer" fill-rule="evenodd" class="shp0" d="M2376 3839C2402 3856 2332 3856 2440 3839C2491 3830 2479 3847 2491 3804C2440 3804 2415 3796 2376 3839Z" />
	<path id="Layer" fill-rule="evenodd" class="shp0" d="M3290 3581C3303 3606 3309 3589 3322 3615C3341 3649 3309 3649 3354 3658C3379 3615 3335 3581 3322 3572C3290 3563 3296 3572 3290 3581Z" />
	<path id="Layer" fill-rule="evenodd" class="shp0" d="M1955 3065C1955 3030 1948 2987 1910 2979C1897 3004 1910 2996 1917 3030C1910 3056 1904 3039 1904 3065L1955 3065Z" />
	<path id="Layer" fill-rule="evenodd" class="shp0" d="M3149 3434C3181 3426 3181 3409 3181 3374C3181 3348 3175 3323 3149 3314L3149 3434Z" />
	<path id="Layer" fill-rule="evenodd" class="shp0" d="M3149 3606C3156 3632 3168 3632 3175 3649C3188 3692 3162 3675 3194 3701C3239 3667 3188 3589 3149 3606Z" />
	<path id="Layer" fill-rule="evenodd" class="shp0" d="M1489 3649C1514 3606 1482 3555 1437 3546C1444 3572 1476 3641 1489 3649Z" />
	<path id="Layer" fill-rule="evenodd" class="shp0" d="M1738 1878C1782 1869 1763 1861 1789 1844C1789 1801 1802 1801 1763 1783C1750 1818 1763 1809 1757 1835C1750 1869 1744 1826 1738 1878Z" />
	<path id="Layer" fill-rule="evenodd" class="shp0" d="M2293 3667C2306 3624 2268 3589 2230 3598C2230 3624 2274 3667 2293 3667Z" />
	<path id="Layer" fill-rule="evenodd" class="shp0" d="M1533 3151C1572 3185 1648 3142 1616 3090C1597 3108 1604 3116 1578 3133C1565 3142 1552 3142 1533 3151Z" />
	<path id="Layer" fill-rule="evenodd" class="shp0" d="M3769 2996C3820 2979 3762 2884 3731 2867C3737 2893 3743 2901 3756 2927C3775 2961 3756 2970 3769 2996Z" />
	<path id="Layer" fill-rule="evenodd" class="shp0" d="M1642 1852C1648 1878 1661 1869 1667 1887C1693 1921 1661 1921 1706 1930C1719 1895 1674 1835 1642 1852Z" />
	<path id="Layer" fill-rule="evenodd" class="shp0" d="M3564 2772C3558 2738 3507 2695 3475 2686C3481 2721 3494 2704 3513 2738C3533 2764 3533 2772 3564 2772Z" />
	<path id="Layer" fill-rule="evenodd" class="shp0" d="M1859 4389C1840 4363 1782 4363 1757 4380C1776 4398 1750 4398 1808 4398C1846 4398 1846 4398 1859 4389Z" />
	<path id="Layer" fill-rule="evenodd" class="shp0" d="M1450 1844C1437 1826 1386 1801 1374 1792C1374 1844 1406 1869 1450 1844Z" />
	<path id="Layer" fill-rule="evenodd" class="shp0" d="M907 5292C927 5275 939 5249 933 5214L907 5214C907 5232 901 5249 901 5249C882 5300 895 5283 907 5292Z" />
	<path id="Layer" fill-rule="evenodd" class="shp0" d="M1687 3452C1725 3477 1763 3460 1776 3417C1744 3434 1699 3426 1687 3452Z" />
	<path id="Layer" fill-rule="evenodd" class="shp0" d="M3335 2901C3328 2876 3322 2867 3322 2850C3322 2824 3335 2841 3315 2807C3283 2824 3283 2884 3335 2901Z" />
	<path id="Layer" fill-rule="evenodd" class="shp0" d="M3251 2858C3283 2841 3271 2858 3277 2815C3277 2798 3283 2790 3283 2772C3245 2781 3239 2824 3251 2858Z" />
	<path id="Layer" fill-rule="evenodd" class="shp0" d="M1674 3520C1616 3529 1591 3512 1552 3469C1552 3520 1667 3572 1674 3520Z" />
	<path id="Layer" fill-rule="evenodd" class="shp0" d="M3641 4234C3660 4260 3788 4260 3801 4243L3641 4234Z" />
	<path id="Layer" fill-rule="evenodd" class="shp0" d="M1367 1869C1380 1895 1406 1912 1437 1895C1425 1878 1425 1887 1412 1869C1354 1835 1367 1869 1367 1869Z" />
	<path id="Layer" fill-rule="evenodd" class="shp0" d="M2421 3262C2421 3219 2402 3211 2364 3202C2370 3237 2389 3262 2421 3262Z" />
	<path id="Layer" fill-rule="evenodd" class="shp0" d="M1469 3520C1501 3520 1521 3486 1527 3452C1495 3469 1469 3477 1469 3520Z" />
	<path id="Layer" fill-rule="evenodd" class="shp0" d="M3424 2678C3418 2643 3366 2592 3322 2592L3424 2678Z" />
	<path id="Layer" fill-rule="evenodd" class="shp0" d="M3871 5911C3845 5911 3845 5920 3826 5928C3826 5971 3826 5963 3852 5971L3871 5911Z" />
	<path id="Layer" fill-rule="evenodd" class="shp0" d="M1572 1904C1572 1869 1533 1844 1508 1852C1508 1878 1508 1861 1533 1878C1559 1904 1533 1904 1572 1904Z" />
	<path id="Layer" fill-rule="evenodd" class="shp0" d="M1316 1921C1316 1887 1303 1878 1271 1878C1271 1912 1284 1930 1316 1921Z" />
	<path id="Layer" fill-rule="evenodd" class="shp0" d="M1968 5318C1980 5335 1948 5326 1993 5335C2019 5335 2019 5326 2032 5318C2025 5309 2051 5309 2012 5309C1955 5292 1980 5309 1968 5318Z" />
	<path id="Layer" fill-rule="evenodd" class="shp0" d="M4216 5455C4229 5455 4235 5447 4242 5429C4248 5386 4235 5395 4229 5395C4210 5412 4203 5438 4216 5455Z" />
	<path id="Layer" fill-rule="evenodd" class="shp0" d="M4005 3753C4043 3744 4050 3735 4050 3692C4018 3701 4012 3727 4005 3753Z" />
	<path id="Layer" fill-rule="evenodd" class="shp0" d="M1584 3572C1572 3563 1527 3555 1508 3555C1521 3589 1559 3598 1584 3572Z" />
	<path id="Layer" fill-rule="evenodd" class="shp0" d="M3973 3718C4012 3710 4012 3701 4012 3667C3980 3675 3973 3675 3973 3718Z" />
	<path id="Layer" fill-rule="evenodd" class="shp0" d="M333 5034L320 5077C384 5060 352 5017 320 5008L333 5034Z" />
	<path id="Layer" fill-rule="evenodd" class="shp0" d="M1987 5386C2019 5386 2006 5395 2025 5378C2019 5352 2012 5352 1980 5352L1987 5386Z" />
	<path id="Layer" fill-rule="evenodd" class="shp0" d="M633 5567L607 5567C614 5593 614 5610 633 5619C639 5610 652 5636 633 5567Z" />
	<path id="Layer" fill-rule="evenodd" class="shp0" d="M1265 1955C1265 1921 1252 1921 1220 1921C1227 1955 1233 1955 1265 1955Z" />
	<path id="Layer" fill-rule="evenodd" class="shp0" d="M5334 4845C5308 4862 5315 4862 5315 4896L5340 4888C5346 4862 5346 4871 5334 4845Z" />
	<path id="Layer" fill-rule="evenodd" class="shp0" d="M2702 5644C2709 5610 2709 5619 2689 5601C2689 5601 2670 5601 2677 5627C2683 5662 2683 5644 2702 5644Z" />
	<path id="Layer" fill-rule="evenodd" class="shp0" d="M3596 2592C3584 2557 3584 2566 3552 2566C3558 2592 3571 2609 3596 2592Z" />
	<path id="Layer" fill-rule="evenodd" class="shp0" d="M3475 3228C3488 3254 3494 3254 3526 3254C3513 3228 3507 3219 3475 3228Z" />
	<path id="Layer" fill-rule="evenodd" class="shp0" d="M1521 5541C1552 5524 1552 5541 1552 5490C1527 5507 1527 5507 1521 5541Z" />
	<path id="Layer" fill-rule="evenodd" class="shp0" d="M479 4122C505 4131 505 4131 524 4114C518 4105 531 4105 505 4105C454 4105 492 4105 479 4122Z" />
	<path id="Layer" fill-rule="evenodd" class="shp0" d="M262 5060L294 5060C294 5034 294 5034 262 5034L262 5060Z" />
	<path id="Layer" fill-rule="evenodd" class="shp0" d="M3820 6143C3833 6143 3845 6152 3845 6126C3845 6109 3839 6117 3820 6109L3820 6143Z" />
	<path id="Layer" fill-rule="evenodd" class="shp0" d="M3526 3323C3520 3288 3513 3288 3494 3262C3494 3288 3501 3314 3526 3323Z" />
	<path id="Layer" fill-rule="evenodd" class="shp0" d="M4248 5386C4280 5386 4280 5386 4267 5352C4242 5369 4248 5343 4248 5386Z" />
	<path id="Layer" fill-rule="evenodd" class="shp0" d="M3858 3366C3890 3348 3884 3331 3858 3314L3858 3366Z" />
	<path id="Layer" fill-rule="evenodd" class="shp0" d="M1156 5472C1156 5438 1156 5447 1125 5447C1131 5472 1125 5472 1156 5472Z" />
	<path id="Layer" fill-rule="evenodd" class="shp0" d="M2549 5318C2581 5318 2574 5318 2574 5292L2542 5292L2549 5318Z" />
	<path id="Layer" fill-rule="evenodd" class="shp0" d="M2479 5283L2511 5283C2504 5257 2517 5257 2485 5257L2479 5283Z" />
	<path id="Layer" fill-rule="evenodd" class="shp0" d="M2843 3391C2836 3366 2843 3366 2817 3357C2804 3383 2817 3383 2843 3391Z" />
	<path id="Layer" fill-rule="evenodd" class="shp0" d="M716 5163C716 5137 722 5137 690 5137C697 5171 690 5163 716 5163Z" />
	<path id="Layer" fill-rule="evenodd" class="shp0" d="M3245 3649C3264 3632 3264 3641 3251 3615C3239 3624 3239 3606 3239 3624C3226 3658 3245 3641 3245 3649Z" />
	<path id="Layer" fill-rule="evenodd" class="shp0" d="M3820 5980C3814 5954 3820 5971 3807 5963C3794 5980 3794 5954 3801 5980C3801 6006 3801 5988 3814 5997C3820 5988 3826 6006 3820 5980Z" />
	<path id="Layer" fill-rule="evenodd" class="shp0" d="M3782 5963C3794 5937 3794 5954 3782 5928C3762 5937 3769 5920 3769 5945C3762 5971 3769 5954 3782 5963Z" />
	<path id="Layer" fill-rule="evenodd" class="shp0" d="M256 4931C262 4922 269 4939 269 4914C262 4879 269 4914 256 4896C243 4914 237 4905 256 4931Z" />
	<path id="Layer" fill-rule="evenodd" class="shp0" d="M2855 5670C2881 5679 2894 5679 2875 5644C2868 5653 2868 5636 2855 5670Z" />
	<path id="Layer" fill-rule="evenodd" class="shp0" d="M4280 5412C4280 5395 4280 5412 4273 5395C4261 5404 4261 5395 4261 5412C4254 5447 4261 5429 4267 5429C4280 5421 4273 5438 4280 5412Z" />
	<path id="Layer" fill-rule="evenodd" class="shp0" d="M2102 5498C2121 5490 2121 5490 2115 5472C2102 5472 2102 5464 2095 5481C2089 5515 2102 5498 2102 5498Z" />
	<path id="Layer" fill-rule="evenodd" class="shp0" d="M1968 5300C1993 5257 1974 5275 1968 5257C1955 5283 1955 5275 1968 5300Z" />
	<path id="Layer" fill-rule="evenodd" class="shp0" d="M2728 6401L2747 6367C2709 6375 2709 6375 2728 6401Z" />
	<path id="Layer" fill-rule="evenodd" class="shp0" d="M575 5636C588 5610 575 5610 569 5610C550 5627 562 5644 562 5644C569 5636 575 5636 575 5636Z" />
	<path id="Layer" fill-rule="evenodd" class="shp0" d="M1073 6324C1093 6307 1086 6324 1093 6298C1073 6298 1080 6289 1067 6307C1061 6324 1073 6324 1073 6324Z" />
	<path id="Layer" fill-rule="evenodd" class="shp0" d="M141 4922C147 4931 122 4939 154 4931C173 4922 160 4922 166 4914C134 4896 147 4914 141 4922Z" />
	<path id="Layer" fill-rule="evenodd" class="shp0" d="M1948 5988C1961 5971 1961 5980 1948 5963C1923 5971 1923 5980 1948 5988Z" />
	<path id="Layer" fill-rule="evenodd" class="shp0" d="M2063 5490C2070 5464 2076 5490 2063 5464C2038 5481 2051 5498 2057 5498L2063 5490Z" />
	<path id="Layer" fill-rule="evenodd" class="shp0" d="M1425 5576C1431 5593 1412 5576 1437 5593C1457 5601 1444 5593 1450 5584C1437 5567 1450 5567 1425 5576Z" />
	<path id="Layer" fill-rule="evenodd" class="shp0" d="M3750 5378C3775 5369 3775 5378 3775 5352C3750 5361 3756 5352 3750 5378Z" />
	<path id="Layer" fill-rule="evenodd" class="shp0" d="M1910 5275C1923 5283 1910 5283 1923 5283C1936 5283 1936 5275 1942 5266C1904 5266 1929 5257 1910 5275Z" />
	<path id="Layer" fill-rule="evenodd" class="shp0" d="M2740 5670C2753 5653 2753 5670 2740 5644C2715 5662 2721 5662 2740 5670Z" />
	<path id="Layer" fill-rule="evenodd" class="shp0" d="M3750 5894C3750 5894 3718 5877 3743 5920C3756 5894 3762 5920 3750 5894Z" />
	<path id="Layer" fill-rule="evenodd" class="shp0" d="M262 5008C281 5017 275 5017 288 4999C262 4982 269 4991 262 5008Z" />
	<path id="Layer" fill-rule="evenodd" class="shp0" d="M2542 5292C2536 5249 2542 5275 2530 5266C2511 5292 2523 5283 2542 5292Z" />
	<path id="Layer" fill-rule="evenodd" class="shp0" d="M3756 5283C3769 5266 3762 5300 3762 5266C3762 5249 3769 5266 3756 5249C3750 5266 3737 5257 3756 5283Z" />
	<path id="Layer" fill-rule="evenodd" class="shp0" d="M1220 5524L1220 5498C1195 5515 1188 5524 1220 5524Z" />
	<path id="Layer" fill-rule="evenodd" class="shp0" d="M1093 5412C1105 5395 1099 5412 1093 5386C1073 5404 1067 5404 1093 5412Z" />
	<path id="Layer" fill-rule="evenodd" class="shp0" d="M3782 5885C3788 5894 3788 5902 3788 5902C3807 5920 3788 5902 3807 5911L3801 5894C3788 5868 3807 5894 3782 5885Z" />
	<path id="Layer" fill-rule="evenodd" class="shp0" d="M1374 5507C1412 5507 1386 5515 1399 5490C1354 5498 1380 5498 1374 5507Z" />
	<path id="Layer" fill-rule="evenodd" class="shp0" d="M1795 4432C1782 4406 1776 4415 1763 4432L1795 4432Z" />
	<path id="Layer" fill-rule="evenodd" class="shp0" d="M5257 4527C5289 4527 5270 4552 5276 4509C5244 4518 5257 4492 5257 4527Z" />
	<path id="Layer" fill-rule="evenodd" class="shp0" d="M5244 4578C5257 4561 5257 4578 5244 4552C5232 4561 5219 4544 5244 4578Z" />
	<path id="Layer" fill-rule="evenodd" class="shp0" d="M1367 5558L1354 5524C1335 5550 1348 5541 1367 5558Z" />
	<path id="Layer" fill-rule="evenodd" class="shp0" d="M3731 5412C3750 5386 3737 5404 3731 5386C3718 5412 3705 5395 3731 5412Z" />
	<path id="Layer" fill-rule="evenodd" class="shp0" d="M1348 5481C1335 5438 1354 5464 1329 5455C1335 5481 1316 5464 1348 5481Z" />
	<path id="Layer" fill-rule="evenodd" class="shp0" d="M1827 5945C1846 5954 1840 5963 1859 5954C1846 5945 1853 5937 1827 5945Z" />
	<path id="Layer" fill-rule="evenodd" class="shp0" d="M722 5507C735 5515 722 5524 748 5507C722 5490 729 5507 722 5507Z" />
	<path id="Layer" fill-rule="evenodd" class="shp0" d="M4273 5490L4280 5472C4254 5472 4248 5481 4273 5490Z" />
	<path id="Layer" fill-rule="evenodd" class="shp0" d="M1508 2618C1540 2643 1527 2626 1540 2618L1508 2618Z" />
	<path id="Layer" fill-rule="evenodd" class="shp0" d="M5302 4544C5340 4544 5321 4561 5327 4527L5302 4544Z" />
	<path id="Layer" fill-rule="evenodd" class="shp0" d="M5212 4630C5238 4638 5225 4630 5238 4630C5200 4604 5225 4621 5212 4630Z" />
	<path id="Layer" fill-rule="evenodd" class="shp0" d="M3622 5361C3647 5378 3641 5378 3641 5352L3622 5361Z" />
	<path id="Layer" fill-rule="evenodd" class="shp0" d="M1853 5911C1878 5928 1840 5911 1878 5928C1865 5902 1885 5911 1853 5911Z" />
	<path id="Layer" fill-rule="evenodd" class="shp0" d="M1699 6023C1731 6023 1719 6031 1719 6006L1699 6023Z" />
	<path id="Layer" fill-rule="evenodd" class="shp0" d="M4152 5472L4158 5490C4178 5515 4146 5481 4171 5490C4165 5472 4190 5490 4152 5472Z" />
	<path id="Layer" fill-rule="evenodd" class="shp0" d="M3251 5343C3271 5335 3251 5352 3271 5326L3271 5318C3245 5326 3283 5292 3251 5343Z" />
	<path id="Layer" fill-rule="evenodd" class="shp0" d="M1425 5627C1457 5653 1437 5636 1450 5627L1425 5627Z" />
	<path id="Layer" fill-rule="evenodd" class="shp0" d="M2083 5455L2076 5429C2063 5447 2076 5429 2070 5447C2070 5472 2063 5438 2083 5455Z" />
	<path id="Layer" fill-rule="evenodd" class="shp0" d="M409 5378C435 5352 416 5369 409 5352L409 5378Z" />
	<path id="Layer" fill-rule="evenodd" class="shp0" d="M1629 6023C1629 6023 1636 6031 1642 6014C1642 6006 1629 6006 1629 6023Z" />
	<path id="Layer" fill-rule="evenodd" class="shp0" d="M1367 5464C1393 5447 1380 5464 1386 5447C1348 5455 1386 5447 1367 5464Z" />
	<path id="Layer" fill-rule="evenodd" class="shp0" d="M218 5017C237 5008 224 5017 230 4999C211 5008 224 4999 218 5017Z" />
	<path id="Layer" fill-rule="evenodd" class="shp0" d="M2689 5679L2715 5679C2689 5662 2709 5670 2689 5679Z" />
	<path id="Layer" fill-rule="evenodd" class="shp0" d="M2651 5644C2670 5636 2657 5644 2664 5627C2638 5636 2664 5619 2651 5644Z" />
	<path id="Layer" fill-rule="evenodd" class="shp0" d="M3935 5146C3960 5137 3948 5146 3954 5128L3935 5146Z" />
	<path id="Layer" class="shp0" d="M5008 5223L4982 5232L5008 5223Z" />
</svg>