<svg xmlns="http://www.w3.org/2000/svg" viewBox="0 0 11028 11228" width="11028" height="11228">
	<style>
		tspan { white-space:pre }
		.shp0 { fill: #000000 } 
	</style>
	<g id="Layer_x0020_1">
		<g id="_1159344080">
			<path id="Layer" fill-rule="evenodd" class="shp0" d="M7892 1306C7887 1287 7882 1293 7877 1271C7894 1282 7926 1306 7924 1329L7922 1340C7923 1348 7965 1405 7972 1415L8079 1567C8117 1620 8151 1667 8180 1725C8203 1771 8223 1807 8253 1846C8297 1903 8311 1867 8352 1829C8364 1818 8370 1816 8382 1804C8396 1790 8394 1788 8416 1783C8429 1839 8490 1994 8511 2047C8537 2113 8599 2237 8650 2271C8650 2221 8637 2155 8642 2115C8646 2086 8651 2072 8667 2055C8679 2041 8703 2025 8725 2023C8725 2111 8755 2192 8755 2282C8787 2260 8803 2220 8834 2197C8878 2165 8901 2171 8959 2157C8957 2184 8843 2422 8820 2466C8893 2466 8968 2454 9037 2478C9062 2486 9072 2495 9098 2501C9088 2540 8986 2548 8954 2551C8890 2557 8840 2568 8785 2581C8821 2650 8825 2626 8853 2657C8876 2682 8921 2798 8924 2830C8883 2830 8794 2820 8769 2806C8733 2787 8719 2733 8685 2710C8695 2753 8695 2807 8705 2849L8526 2839C8537 2860 8543 2863 8558 2882C8637 2983 8736 3073 8772 3201C8783 3239 8799 3274 8816 3306C8848 3366 8886 3445 8940 3485C9097 3601 9049 3633 9135 3748C9233 3879 9161 3673 9273 3978C9303 4060 9286 3996 9358 4032C9407 4056 9456 4092 9477 4142C9486 4163 9494 4167 9510 4184C9549 4223 9565 4216 9535 4276C9524 4297 9513 4300 9502 4317C9536 4340 9552 4372 9582 4392C9582 4373 9578 4352 9571 4343C9568.86 4340.06 9567.29 4339.05 9566.22 4338.93C9566.46 4338.41 9566.72 4337.77 9567 4337L9593 4334C9607 4330 9606 4326 9622 4323C9662 4350 9736 4419 9775 4454L9933 4590C9958 4609 9959 4618 9979 4638C9997 4656 10011 4670 10029 4688C10064 4722 10103 4731 10139 4768C10187 4817 10243 4855 10288 4908C10302 4925 10314 4949 10327 4968C10385 5055 10407 5071 10469 5139C10470 5140 10471 5141 10471 5142C10592 5272 10567 5208 10664 5402C10675 5424 10685 5442 10695 5465C10756 5612 10802 5762 10806 5931L10812 6024C10819 6074 10825 6148 10870 6160L10870 6230L10850 6230C10863 6256 10851 6274 10850 6300L10865 6300C10863 6374 10828 6342 10856 6603C10862 6661 10884 6720 10885 6738C10889 6788 10885 6856 10885 6907C10910 6890 10970 6819 10920 6902C10855 7011 10860 7196 10885 7316C10868 7303 10856 7278 10844 7261C10833 7244 10820 7220 10809 7208C10783 7239 10776 7271 10812 7294L10895 7350L10900 7360C10917 7393 10922 7418 10934 7445C10917 7471 10908 7472 10915 7528C10927 7613 10909 7688 10851 7750C10838 7764 10851 7757 10834 7763L10810 7483C10799 7395 10824 7424 10757 7386C10665 7335 10679 7361 10644 7345C10646 7368 10675 7435 10685 7458C10726 7552 10751 7594 10738 7713C10733 7758 10734 7811 10734 7863C10724 7869 10522 8015 10520 8032C10519 8043 10560 8081 10569 8088C10589 8103 10613 8112 10636 8125L10774 8201C10774 8387 10742 8510 10560 8510C10544 8480 10525 8457 10506 8429L10463 8368C10451 8355 10456 8366 10445 8351C10452 8337 10475 8303 10489 8296L10509 8292C10537 8265 10515 8199 10466 8171C10451 8162 10440 8152 10425 8148C10425 8111 10425 8075 10425 8038C10425 7995 10430 7973 10430 7934C10430 7899 10432 7859 10430 7824C10428 7796 10421 7752 10420 7724C10301 7724 10210 7746 10121 7699C10121 7805 10135 7773 10169 7790C10201 7805 10231 7845 10250 7867L10078 7831L10174 7969L10121 7978L10119 8024L10165 8023L10174 7971C10205 7985 10222 8041 10252 8052C10307 8016 10271 7947 10254 7873C10294 7911 10341 7988 10340 8042C10339 8117 10271 8175 10260 8221C10242 8216 10240 8207 10226 8195C10186 8159 10148 8151 10090 8151L10050 8041L9783 8049C9661 8031 9672 8040 9577 7976C9537 7997 9505 8058 9469 8025C9457 8014 9413 7925 9408 7906C9391 7917 9374 7941 9362 7960C9309 8044 9345 8192 9383 8195C9406 8193 9417 8174 9445 8167C9474 8160 9505 8168 9527 8170C9522 8190 9493 8248 9479 8261C9464 8275 9451 8276 9430 8268C9401 8256 9345 8224 9321 8202C9296 8179 9262 8130 9254 8095C9238 8107 9239 8118 9234 8140C9200 8140 9209 8147 9184 8160C9163 8116 9177 8102 9154 8090C9139 8082 9086 8081 9064 8075C9064 8225 9100 8183 9205 8217C9242 8229 9269 8244 9303 8259C9326 8269 9381 8296 9408 8299L9385 8396C9366 8491 9366 8599 9289 8668L9221 8719C9118 8787 9063 8743 8973 8775C8952 8782 8946 8790 8925 8792L8895 8653C8862 8661 8821 8687 8790 8688C8786 8670 8759 8626 8750 8608C8740 8587 8715 8545 8710 8523C8794 8568 8875 8644 8984 8628C9025 8622 9045 8610 9078 8593C9047 8459 8975 8478 8894 8439C8903 8401 8929 8365 8939 8325C8934 8318 8887 8279 8869 8256C8815 8189 8779 8174 8703 8133C8680 8121 8639 8085 8626 8066L8700 8091C8719 8097 8758 8107 8775 8115L8797 8013C8812 7956 8953 7867 9002 7840C9140 7763 9179 7726 9233 7564C9356 7197 9082 7127 9013 6832C9045 6853 9217 7079 9253 7119C9295 7167 9341 7342 9342 7414C9343 7472 9338 7507 9326 7553C9307 7624 9266 7693 9216 7747C9154 7814 9085 7867 9015 7924C8999 7937 8987 7948 8971 7960C8888 8025 8871 8064 8894 8166C8912 8250 8996 8275 9003 8365C9058 8360 9155 8331 9177 8410C9190 8456 9194 8508 9212 8555C9217 8570 9223 8583 9227 8600C9245 8595 9290 8569 9299 8552C9314 8522 9306 8476 9301 8442C9289 8360 9260 8331 9198 8296C9095 8237 8979 8232 8979 8017C9033 8005 9186 7883 9235 7840C9244 7832 9251 7825 9258 7818C9365 7707 9420 7567 9396 7391C9383 7291 9365 7187 9343 7091C9383 7118 9432 7208 9447 7261C9458 7301 9462 7334 9470 7377C9478 7420 9489 7450 9498 7489C9515 7476 9508 7447 9512 7423C9532 7273 9466 7087 9389 6971C9474 6971 9516 7021 9553 7086C9584 7140 9608 7197 9624 7259L9631 7281C9631 7282 9632 7283 9633 7284C9633 7156 9574 7029 9519 6955L9425 6830C9393 6787 9367 6731 9384 6656C9420 6675 9444 6694 9472 6722C9497 6747 9526 6780 9552 6801C9612 6849 9716 6921 9766 6976C9889 7110 9867 7237 9867 7418C9898 7383 9897 7307 9897 7264C9897 7199 9882 7157 9864 7108C9833 7020 9773 6935 9753 6846C9784 6849 9859 6904 9879 6924C9901 6946 9911 6954 9927 6980C9937 6995 9958 7038 9967 7045L9967 6931C9994 6932 10026 6942 10045 6952C10072 6967 10072 6992 10075 7026C10079 7067 10072 7175 10106 7200C10111 7177 10118 7165 10123 7138C10160 6936 9982 6744 9851 6614C9718 6483 9658 6316 9599 6139C9566 6040 9516 5959 9464 5871C9401 5764 9337 5705 9277 5575L9252 5520C9252 5519 9251 5518 9250 5517C9251 5577 9311 5703 9334 5752C9369 5826 9409 5894 9444 5965C9493 6065 9588 6208 9546 6325C9531 6367 9512 6401 9479 6423C9458 6409 9418 6356 9409 6329C9405 6318 9400 6270 9399 6254C9399 6239 9399 6231 9397 6216L9392 6186C9392 6185 9391 6183 9391 6182C9391 6181 9390 6180 9390 6178C9379 6226 9355 6465 9355 6502L9345 6502C9343 6473 9325 6439 9317 6410C9263 6197 9312 6131 9247 5992L9121 5745C9053 5607 9015 5546 8996 5378C8980 5235 9008 5127 8993 5022C8987 4980 8996 4943 8987 4904C8965 4929 8959 4970 8950 5002C8887 5235 8977 5532 9043 5759C9048 5776 9055 5799 9056 5816C8999 5803 8992 5775 8966 5756C8977 5803 8985 5860 8990 5911C8999 5988 9007 6263 8967 6325C8958 6338 8957 6338 8945 6347C8935 6355 8925 6362 8916 6368L8903 6197C8879 6036 8927 6020 8833 5760C8827 5745 8823 5740 8822 5721C8797 5728 8819 5730 8787 5731C8792 5741 8796 5759 8800 5773C8870 5988 8851 5980 8862 6209L8882 6463C8891 6573 8861 6646 8862 6722C8863 6821 9010 7029 9069 7127C9078 7141 9083 7152 9091 7165C9132 7233 9179 7316 9186 7399C9198 7552 9084 7663 8988 7758L8751 7964C8692 8009 8539 8106 8445 8106L8455 8091C8433 8096 8436 8099 8435 8106C8434 8112 8450 8098 8433 8114C8419 8127 8403 8115 8386 8111C8386 8133 8396 8178 8400 8197C8407 8228 8415 8249 8432 8269C8452 8292 8467 8289 8483 8322C8493 8343 8500 8380 8500 8409C8452 8398 8386 8338 8360 8290C8330 8234 8315 8152 8342 8081C8354 8049 8367 8020 8387 7997C8398 7984 8405 7975 8418 7963C8476 7910 8509 7916 8571 7857C8599 7830 8599 7843 8605 7821C8551 7807 8578 7758 8585 7676C8588 7639 8582 7615 8580 7587C8578 7554 8589 7527 8590 7498C8609 7511 8604 7521 8623 7518C8623 7518 8624 7517 8625 7518C8656 7652 8655 7569 8655 7727C8655 7763 8647 7769 8645 7797L8689 7761C8703 7745 8700 7720 8704 7697C8736 7508 8737 7384 8660 7210C8596 7065 8624 6984 8582 6879C8570 6848 8542 6793 8520 6777L8495 6976C8469 6957 8445 6858 8422 6805C8413 6784 8401 6769 8396 6747C8368 6754 8360 6743 8338 6725C8290 6687 8237 6631 8224 6566C8193 6420 8142 6209 8066 6082L7959 5910C7943 5883 7901 5821 7894 5791C7907 5800 7916 5816 7930 5830C7945 5844 7955 5855 7970 5870C8017 5917 8085 5971 8125 6023C8178 6091 8159 6073 8188 6115C8186 6005 8019 5796 7964 5702C7881 5559 7845 5331 7868 5163L7874 4851C7874 4437 7796 4433 7750 4094C7747 4071 7740 4041 7740 4020C7757 4033 7818 4216 7825 4238C7886 4436 7889 4568 7889 4781C7889 4831 7889 4881 7889 4930L7910 5287C7940 5519 7932 5607 8089 5795L8143 5855C8169 5884 8206 5935 8236 5956C8226 5833 8129 5725 8075 5619C7971 5415 8001 5189 8002 4955L7992 4716C7990 4641 7963 4439 7962 4373C7962 4334 7952 4294 7952 4254C7960 4266 7990 4389 7994 4406C8052 4638 8037 4721 8037 4961C8037 5158 8034 5325 8091 5499C8103 5535 8136 5609 8161 5628C8145 5561 8130 5581 8109 5426C8093 5311 8102 5176 8101 5055C8101 4973 8111 4896 8111 4811C8111 4768 8111 4725 8111 4682C8111 4647 8109 4598 8104 4565C8101 4545 8102 4525 8099 4505C8086 4417 8067 4331 8041 4244C8031 4212 8021 4181 8011 4149C8000 4116 7991 4086 7979 4051C7957 3985 7942 3919 7926 3850C7945 3863 7967 3891 7981 3910C8073 4037 8100 4199 8127 4352C8138 4417 8137 4504 8145 4573C8153 4641 8146 4947 8146 5040L8157 5263C8161 5293 8165 5334 8173 5367C8181 5401 8194 5428 8201 5459L8212 5400C8214 5383 8215 5353 8218 5332L8226 5191C8225 5091 8226 4992 8226 4892C8226 4788 8221 4698 8221 4598C8221 4548 8221 4498 8221 4449C8221 4394 8226 4358 8226 4305L8236 4305C8241 4327 8246 4341 8253 4363C8310 4551 8295 4796 8296 4997C8296 5049 8291 5090 8291 5146L8296 5405C8296 5431 8292 5424 8306 5434C8310 5417 8315 5412 8322 5395C8327 5381 8332 5365 8336 5350C8414 5054 8355 4444 8284 4162C8266 4090 8204 3860 8147 3821C8133 3851 8099 3934 8077 3950C8061 3881 8055 3815 8011 3762C7996 3743 7987 3729 7967 3716C7949 3728 7937 3758 7933 3782C7930 3803 7938 3817 7922 3828L7920 3829L7911 3834C7906.98 3836.72 7904.44 3838.61 7902.99 3839.85C7896.87 3768.91 7802.96 3701.97 7749 3666C7749 3712 7764 3751 7764 3800L7654 3740C7654 3828 7707 3894 7714 3979C7701 3969 7626 3841 7619 3815C7580 3815 7528 3812 7490 3815C7422 3821 7438 3807 7385 3835C7456 3942 7550 4261 7572 4385C7603 4557 7604 4677 7604 4846C7604 5104 7546 5374 7687 5609L7825 5845C7841 5872 7854 5895 7868 5921L7937 6037C7996 6134 8115 6322 8088 6436C8080 6471 8070 6498 8064 6536C8058 6574 8057 6612 8057 6654C8057 6693 8059 6734 8063 6773C8068 6818 8092 6955 8092 6993C8044 7006 7960 7174 7953 7207L7943 7207C7941 7188 7929 7151 7922 7133L7875 6981C7867 6952 7860 6932 7853 6903C7796 6890 7722 6873 7664 6868C7671 6882 7684 6940 7688 6958C7710 7055 7735 7148 7750 7250C7759 7314 7770 7387 7784 7450C7791 7480 7798 7511 7806 7543C7813 7571 7828 7614 7828 7640C7814 7631 7736 7561 7731 7548L7717 7323C7706 7240 7689 7132 7634 7068C7634 7244 7630 7390 7673 7557C7679 7580 7688 7596 7689 7621C7543 7523 7598 7395 7577 7255C7538 6998 7460 7080 7386 6969C7414 6976 7447 7002 7476 7009C7471 6988 7459 6923 7450 6911C7434 6889 7392 6876 7377 6855C7389 6837 7412 6825 7432 6815C7432 6783 7418 6773 7403 6755C7388 6737 7375 6721 7357 6706L7351 6710C7336 6717 7360 6713 7333 6716C7327 6692 7271 6606 7255 6579C7226 6531 7208 6483 7170 6445C7146 6421 7135 6421 7134 6377L7124 6058C7114 6060 7096 6065 7086 6070C7067 6078 7070 6078 7064 6098C7057 6120 7045 6151 7029 6163C7025 6118 6991 6033 6977 5986C6967 5954 6961 5929 6951 5898C6942 5870 6935 5833 6924 5810C6849 5846 6899 5799 6842 5873C6833 5885 6827 5888 6819 5900L6681 5874C6646 5865 6581 5845 6541 5845C6529 5862 6527 5893 6511 5905C6491 5921 6355 6005 6337 6010C6338 5962 6371 5925 6407 5900C6403 5881 6396 5879 6392 5860C6336 5865 6318 5916 6293 5956C6220 6076 6263 6199 6284 6331L6297 6468C6273 6475 6206 6517 6183 6533C6177 6519 6170 6490 6165 6472C6158 6448 6154 6430 6146 6406C6116 6314 6084 6190 5998 6136C5980 6125 5960 6119 5940 6109C5927 6103 5905 6088 5891 6078L5807 5992C5762 5928 5705 5735 5670 5711C5670 5809 5680 5907 5680 6010L5628 5997C5598 5979 5561 5954 5525 5945C5527 5917 5544 5895 5552 5868C5579 5774 5585 5686 5585 5582C5549 5634 5507 5781 5492 5837C5469 5919 5436 6034 5436 6135C5443 6133 5450 6132 5456 6130C5499 6117 5515 6052 5560 6040C5560 6088 5566 6127 5571 6174C5580 6262 5605 6312 5664 6370C5685 6391 5718 6429 5740 6443C5737 6410 5707 6348 5695 6314C5680 6272 5665 6224 5646 6184C5696 6188 5769 6234 5807 6262C5921 6347 5923 6467 5946 6601C5954 6650 5966 6695 5986 6740L6000 6770C6003 6775 6006 6778 6009 6781L6048 6661C6058 6633 6094 6580 6123 6572L6123 6697C6120 6744 6110 6776 6113 6826C6116 6881 6168 7105 6184 7173C6194 7215 6197 7247 6212 7284C6219 7302 6224 7315 6235 7330C6259 7364 6294 7347 6340 7434C6417 7578 6451 7717 6348 7852C6327 7879 6309 7906 6286 7929C6271 7944 6268 7952 6254 7966C6198 8024 6138 8093 6118 8179C6130 8187 6132 8191 6146 8201C6158 8209 6163 8213 6175 8222C6216 8252 6264 8269 6314 8282C6330 8286 6339 8288 6354 8292C6373 8297 6383 8296 6392 8309C6362 8316 6332 8334 6306 8347C6269 8365 6259 8372 6238 8403C6288 8404 6353 8420 6403 8427C6432 8431 6433 8431 6411 8456C6310 8568 6419 8548 6437 8617C6399 8617 6375 8622 6332 8622L6350 8659C6358 8672 6363 8680 6373 8691C6395 8714 6432 8723 6437 8742C6406 8745 6365 8762 6342 8777C6345 8815 6348 8805 6338 8843C6331 8869 6319 8878 6317 8902C6402 8922 6441 8953 6474 9033C6503 9103 6503 9155 6539 9257L6635 9519C6645 9545 6642 9548 6668 9561C6694 9574 6746 9603 6769 9609C6764 9626 6725 9659 6704 9654C6677 9636 6660 9585 6644 9554C6619 9554 6594 9561 6571 9566L6466 9587C6428 9594 6425 9569 6379 9545C6385 9517 6404 9493 6385 9450C6378 9434 6256 9355 6238 9343C6118 9263 6005 9178 5855 9158C5834 9155 5785 9161 5773 9168C5739 9185 5759 9318 5691 9369C5655 9396 5611 9416 5574 9441C5588 9463 5633 9485 5657 9502C5690 9526 5706 9548 5728 9580C5706 9595 5665 9647 5633 9648C5614 9649 5633 9649 5616 9644L5599 9640L5625 9561L5480 9556C5480 9537 5481 9517 5479 9498C5477 9483 5471 9460 5470 9442C5411 9485 5422 9563 5321 9571C5321 9710 5316 9834 5316 9974C5244 9926 5313 9927 5172 9894L5072 10013C5032 9992 4997 9959 4958 9938C4953 9949 4950 9966 4945 9980C4932 10018 4920 10068 4903 10103C4921 10115 4940 10137 4957 10154C4974 10172 4985 10202 4988 10233C4913 10233 4856 10228 4784 10228C4791 10254 4820 10275 4835 10297C4845 10311 4844 10311 4844 10333C4754 10354 4732 10367 4678 10290C4664 10270 4659 10257 4630 10253C4545 10241 4420 10232 4341 10213C4339 10233 4336 10236 4336 10263C4282 10267 4320 10296 4257 10258C4233 10244 4207 10227 4182 10213C4182 10167 4173 10034 4187 10004C4157 10005 4175 10005 4164 10011C4142 10024 4119 10028 4097 10039C4090 10010 4080 9974 4072 9945C4062 9913 4048 9877 4048 9845C4024 9851 3902 9972 3760 9839C3745 9825 3710 9777 3704 9755C3805 9701 3769 9710 3819 9632C3851 9582 3889 9544 3938 9512L3938 9233C3955 9237 4018 9253 4030 9260C4055 9276 4058 9315 4062 9348C4081 9522 4021 9560 3925 9677C3876 9737 3891 9797 3953 9830C3966 9806 3972 9783 3981 9754C3989 9727 3996 9703 4011 9680C4044 9631 4100 9616 4161 9616C4168 9586 4186 9382 4196 9372C4214 9354 4315 9442 4330 9501L4340 9501C4365 9393 4379 9411 4302 9295C4282 9265 4266 9241 4246 9211C4236 9196 4229 9184 4219 9168C4209 9151 4201 9138 4200 9112C4214 9104 4222 9101 4235 9092C4282 9133 4335 9160 4392 9214L4438 9263C4450 9276 4455 9284 4468 9298C4481 9312 4484 9321 4499 9332C4499 9210 4469 9099 4459 8978C4448 8842 4470 8721 4488 8614C4509 8491 4504 8362 4459 8271C4447 8248 4437 8228 4424 8207C4404 8173 4305 8052 4300 8033C4400 8056 4435 8062 4500 8136C4516 8155 4530 8176 4547 8193L4596 8243C4607 8252 4612 8257 4621 8268C4632 8283 4635 8284 4647 8297C4676 8328 4708 8382 4743 8405C4716 8445 4733 8481 4743 8544C4762 8658 4787 8717 4754 8834C4723 8943 4713 8997 4775 9100C4831 9193 4868 9235 4836 9354C4825 9395 4803 9451 4803 9490C4863 9446 4903 9328 4903 9256C4916 9259 4918 9263 4929 9269C4963 9289 4986 9293 4987 9345C5003 9326 5021 9296 5027 9270L4895 9208C4875 9194 4866 9176 4857 9152C4850 9134 4835 9095 4834 9076C4844 9081 4854 9085 4865 9090C4923 9120 4974 9158 5024 9200C5038 9212 5032 9214 5053 9215C5060 9133 5130 9040 5007 8952C4991 8940 4978 8936 4961 8924C4913 8889 4924 8888 4899 8836C4873 8846 4867 8886 4841 8897C4833 8901 4750 8919 4740 8920C4744 8872 4774 8819 4802 8783C4836 8740 4892 8726 4949 8756C4939 8720 4906 8715 4894 8691L4889 8676C4879 8625 4873 8582 4874 8532C4875 8489 4881 8496 4869 8458C4863 8439 4846 8408 4845 8388C4911 8420 4946 8375 4955 8452C4957 8468 4961 8488 4963 8504C4968 8541 4974 8570 4984 8602C5026 8733 5121 8906 5277 8906C5271 8880 5271 8892 5277 8866C5259 8862 5243 8851 5225 8843C5198 8830 5202 8825 5186 8803C5145 8748 5162 8755 5168 8687C5174 8616 5162 8562 5131 8499C5122 8481 5112 8463 5093 8458C5092 8486 5080 8530 5063 8543C5055 8526 5048 8465 5048 8438C5096 8437 5182 8422 5238 8442C5286 8460 5321 8508 5322 8562C5305 8543 5288 8522 5264 8511C5253 8506 5190 8489 5178 8488C5178 8617 5252 8628 5276 8733C5284 8766 5291 8797 5305 8823C5344 8890 5488 8863 5517 8832C5518 8831 5530 8815 5530 8815C5540 8797 5529 8776 5521 8746C5517 8731 5512 8715 5501 8706C5474 8713 5466 8761 5433 8719C5414 8695 5389 8653 5386 8621C5439 8621 5487 8611 5545 8611C5531 8581 5508 8526 5505 8486C5500 8424 5515 8379 5515 8327C5494 8327 5466 8333 5449 8336C5405 8341 5263 8349 5236 8362C5245 8327 5286 8316 5314 8301C5426 8239 5405 8262 5371 8173C5353 8127 5363 8048 5335 8005C5328 7994 5322 7987 5312 7979C5302 7971 5291 7961 5281 7955C5257 8057 5304 8106 5274 8197C5257 8250 5197 8333 5157 8359C5120 8382 5085 8374 5037 8369C4976 8363 4990 8343 4975 8291C4963 8250 4913 8108 4912 8070C4934 8070 4929 8074 4952 8075C4971 8076 4983 8073 4997 8080C5019 8087 4998 8078 5008 8095C5014 8105 5021 8109 5024 8118C5031 8135 5027 8164 5037 8185C5053 8174 5048 8177 5057 8160L5075 8177C5075 8178 5076 8179 5077 8180C5096 8099 5094 8087 5065 7998C5058 7978 5052 7961 5047 7941L5122 7866L5085 7763C5073 7727 5063 7690 5047 7657C5080 7660 5132 7685 5152 7701C5178 7722 5212 7751 5241 7766C5220 7677 5161 7627 5105 7563C5092 7548 5088 7541 5073 7526C5049 7502 5033 7473 5017 7443C5048 7444 5141 7483 5171 7498C5163 7465 5155 7437 5143 7407C5131 7378 5122 7350 5108 7322C5061 7224 4987 7082 4972 6975C4953 6836 4990 6659 4933 6531C4895 6443 4831 6412 4795 6365C4752 6310 4717 6298 4662 6254C4647 6242 4645 6237 4634 6223C4443 5986 4405 5677 4217 5430C4198 5405 4182 5389 4163 5365C4134 5327 4073 5278 4033 5251C3937 5189 3789 5129 3668 5129C3668 5114 3670 5111 3673 5099C3620 5099 3588 5099 3583 5149C3563 5144 3567 5141 3558 5124C3545 5133 3544 5135 3528 5144C3539 5096 3552 5095 3517 5065C3504 5053 3511 5054 3493 5049C3484 5066 3484 5072 3469 5085C3460 5093 3445 5105 3433 5109C3439 5130 3453 5132 3469 5148L3551 5220C3589 5257 3635 5297 3667 5338C3714 5397 3764 5450 3805 5514C3869 5615 3925 5726 3926 5861C3926 5913 3911 5949 3911 6000C3910 6098 3915 6184 3950 6270C3990 6370 3987 6427 3963 6534C3939 6647 3903 6755 3865 6864C3859 6881 3864 6881 3847 6885C3847 6828 3861 6768 3867 6715C3886 6544 3904 6378 3843 6212C3747 5947 3773 5985 3773 5725C3773 5658 3742 5603 3712 5548C3618 5380 3439 5266 3276 5173C3197 5128 3140 5052 3100 4971L3067 4909C3062 4902 3025 4875 3015 4866C2989 4845 2857 4725 2844 4703L2842 4691C2842 4685 2851 4699 2841 4678C2809 4616 2700 4537 2645 4496L2586 4455C2527 4419 2471 4380 2409 4349C2324 4307 2243 4262 2155 4225C1948 4139 1743 4063 1513 4006C1408 3980 1315 3958 1204 3936C1156 3926 1174 3933 1129 3942C1077 3953 1007 3952 955 3941C928 3935 903 3921 877 3919C877 3975 868 4035 867 4088C866 4166 878 4349 891 4423C924 4617 968 4813 1041 4995C1084 5102 1128 5207 1180 5309C1213 5374 1303 5556 1350 5592C1381 5615 1428 5641 1454 5668C1512 5731 1505 5791 1531 5860C1570 5963 1556 6028 1567 6098C1574 6146 1559 6210 1566 6269C1575 6347 1576 6443 1580 6524C1581 6552 1585 6573 1585 6609C1585 6644 1590 6657 1590 6693C1590 6731 1595 6749 1595 6782C1595 6943 1569 6947 1652 7083C1682 7132 1689 7148 1689 7225C1688 7347 1717 7485 1779 7588C1793 7612 1804 7619 1831 7625C2112 7692 2103 7586 2135 7432C2154 7341 2206 7259 2303 7242C2358 7232 2415 7255 2470 7255C2479 7238 2487 7219 2495 7201C2513 7161 2564 7074 2574 7036C2594 7051 2626 7125 2634 7155C2641 7180 2647 7202 2639 7230C2628 7267 2610 7266 2604 7289C2638 7298 2675 7341 2684 7374C2627 7387 2635 7389 2608 7433C2545 7537 2521 7638 2579 7748C2623 7748 2664 7750 2695 7725C2705 7717 2714 7710 2723 7703C2767 7672 2808 7653 2867 7653C2876 7635 2887 7605 2892 7583C2972 7583 3021 7605 3086 7618C3121 7625 3153 7636 3181 7617C3206 7600 3239 7596 3266 7583C3309 7647 3380 7664 3380 7787L3260 7821C3155 7846 3046 7864 2944 7899C2924 7906 2903 7917 2882 7917C2882 7970 2887 8008 2887 8056C3127 8112 3122 8012 3231 8066C3248 8075 3302 8107 3308 8123C3317 8145 3312 8233 3305 8250C3295 8272 3264 8290 3247 8327C3194 8442 3220 8516 3115 8534C3050 8545 3061 8517 3024 8647C3003 8722 2986 8789 2986 8883C2986 8966 3011 9041 3044 9094C3073 9143 3063 9135 3121 9152C3156 9162 3193 9179 3231 9182C3232 9154 3243 9117 3246 9087C3280 9087 3321 9078 3357 9073C3449 9060 3461 9132 3545 9132C3581 9132 3613 9109 3654 9113C3671 9115 3680 9123 3686 9141C3690 9154 3695 9178 3692 9194C3686 9228 3665 9256 3649 9281C3570 9398 3557 9525 3523 9662C3516 9689 3472 9849 3474 9863C3478 9890 3551 10000 3572 10018C3616 10055 3689 10074 3770 10074C3736 10023 3658 10020 3608 9922C3597 9901 3575 9828 3576 9800C3577 9769 3606 9704 3626 9690L3661 9949C3677 9949 3696 9954 3713 9956C3736 9960 3751 9957 3775 9959C3810 9961 3851 9966 3889 9969C4060 9982 4131 10073 4073 10247C4047 10326 4015 10342 3914 10342L3914 10213C3933 10215 3927 10217 3949 10218C3954 10201 3952 10209 3962 10196L4014 10128C3948 10123 3943 10082 3830 10138C3736 10184 3652 10186 3547 10152L3387 10073C3373 10063 3346 10021 3337 10004C3197 9735 3596 9535 3277 9322C3273 9331 3271 9338 3267 9347C3204 9317 3224 9330 3159 9291L3066 9219C3038 9192 2998 9136 2980 9101C2889 8918 2933 8712 3002 8531C3019 8486 3006 8500 3047 8501C3054 8471 3070 8449 3078 8412C3087 8368 3079 8342 3077 8302C3074 8232 3092 8250 2952 8183C2907 8161 2924 8157 2901 8114C2869 8055 2829 8013 2780 7966C2764 7951 2747 7940 2733 7919C2776 7918 2834 7899 2877 7899C2880 7914 2876 7906 2887 7914C2887 7865 2917 7826 2917 7750L2823 7795C2774 7816 2691 7847 2634 7851C2610 7853 2629 7856 2611 7847C2565 7823 2601 7832 2520 7799C2399 7750 2395 7800 2354 7756C2328 7729 2266 7675 2261 7639C2254 7592 2288 7571 2306 7545C2268 7548 2271 7590 2244 7617C2201 7660 2101 7728 2047 7759C2039 7764 2034 7766 2024 7771C1920 7829 1794 7748 1724 7678C1705 7659 1685 7608 1683 7580C1696 7581 1697 7582 1708 7585C1607 7394 1644 7205 1620 7150C1573 7042 1534 7079 1534 6883C1534 6853 1534 6823 1534 6793L1504 6206C1504 6171 1509 6156 1509 6126C1510 6073 1496 5942 1478 5893C1448 5810 1423 5833 1398 5794L1228 5526C1198 5486 1144 5439 1125 5360L1140 5370L1057 5194C1007 5087 963 4960 925 4848C919 4829 903 4785 901 4763C876 4763 870 4758 841 4758C845 4742 864 4733 886 4718C884 4688 872 4654 865 4624C845 4539 811 4306 811 4220L811 4001C811 3980 814 3911 826 3897L695 3799C640 3755 585 3717 520 3691C478 3673 460 3693 418 3748C400 3772 344 3864 314 3873C314 3670 399 3588 414 3410C361 3409 232 3345 175 3340C188 3323 252 3297 275 3285C268 3257 250 3258 246 3230C233 3144 225 3165 312 3174C336 3177 349 3156 369 3146C344 3099 322 3090 299 3056C266 3074 3 3220 0 3096L123 3040C164 3020 200 2998 239 2977C234 2966 219 2771 219 2743C190 2741 94 2695 58 2680C41 2673 22 2663 5 2659C11 2638 72 2581 91 2566C115 2547 151 2533 179 2520L214 2505C213 2474 200 2439 199 2405C278 2407 276 2458 373 2395C382 2389 391 2384 401 2378C418 2368 448 2354 467 2350C461 2338 459 2328 454 2313C442 2279 415 2224 412 2190L621 2245C607 2183 556 2043 556 1991C582 1985 583 1991 601 2006C650 2044 685 2094 722 2144C763 2200 786 2170 870 2170C894.28 2170 918.56 2170 942.84 2170C935.65 2215.49 912.14 2316.23 931 2348C948 2375 929 2337 965 2358L965 2357C968.98 2277.42 976.92 2233.46 943.53 2170C944.02 2170 944.51 2170 945 2170C885 2045 927 2024 940 1966L960 1966C961 1982 983 2034 990 2051C998 2071 1012 2116 1027 2129C1039 2139 1092 2151 1113 2158C1143 2168 1166 2184 1194 2191C1204 2146 1321 1977 1348 1932C1358 1915 1364 1907 1375 1890L1668 1496C1774 1370 1888 1252 2009 1140C2022 1128 2030 1117 2044 1106C2061 1093 2066 1088 2081 1073L2153 1006C2172 988 2175 989 2195 978C2220 964 2210 946 2249 932C2262 927 2259 930 2272 920C2382 840 2493 769 2610 700C2823 574 3059 484 3297 416C3395 388 3651 324 3763 324L3763 349C3795 334 3806 335 3873 300C3892 290 3911 287 3934 281C3958 274 3973 268 3999 261C4173 211 4334 150 4513 118C4561 109 4615 114 4663 103C4711 92 4743 69 4789 65L4758 99C4804 100 4853 104 4896 98C4919 95 4936 94 4957 89C5070 62 4988 69 5152 70C5212 70 5322 44 5406 40C5465 37 5481 29 5526 15C5544 9 5564 8 5584 3C5642 -11 5992 40 6030 47C6106 61 6183 78 6252 109C6283 123 6313 142 6344 156C6369 168 6374 157 6397 173C6451 210 6578 273 6637 296C6676 311 6715 310 6754 318C6772 322 6812 373 6828 388L6954 471C6967 477 6994 487 7005 495C7017 503 7029 519 7040 530C7053 542 7066 549 7079 560C7116 590 7150 634 7188 665C7217 688 7246 735 7295 772L7460 891C7488 912 7519 925 7546 944L7626 1008C7679 1050 7718 1105 7770 1148C7807 1179 7809 1255 7894 1312L7892 1306ZM7902.99 3839.85C7902.99 3839.9 7903 3839.95 7903 3840C7932.59 3827.82 7893.26 3848.2 7902.99 3839.85ZM3995 10187C4008 10177 4023 10148 4025 10127L4015 10127C4013 10157 3998 10157 3995 10187ZM4292 10199L4341 10208C4340 10182 4345 10137 4329 10122C4308 10102 4290 10088 4260 10093C4252 10130 4279 10167 4292 10199ZM4738 10024C4707 10065 4694 10078 4608 10074C4549 10071 4499 10051 4449 10048L4434 10207C4543 10217 4748 10203 4815 10107C4803 10088 4759 10035 4738 10025L4738 10024ZM4608 9977C4618 9948 4603 9913 4598 9882C4582 9901 4582 9917 4591 9945L4451 9945C4488 9962 4565 9993 4608 9977ZM4837 9942C4822 9925 4800 9909 4776 9899C4738 9883 4729 9899 4722 9932L4837 9942ZM4459 9814C4466 9729 4458 9643 4499 9580C4569 9470 4692 9593 4771 9305C4779 9277 4785 9273 4768 9251C4735 9206 4722 9193 4651 9169L4685 9261C4658 9278 4613 9271 4589 9302C4577 9317 4572 9377 4555 9408C4491 9526 4334 9559 4298 9709C4293 9729 4326 9778 4343 9793C4371 9819 4418 9814 4458 9813L4459 9814ZM5019 9632C5019 9631.58 5019.01 9631.14 5019.02 9630.69C5018.67 9631.13 5018.33 9631.56 5018 9632L5019 9632ZM5097 9549C5080 9553 5042 9564 5035 9573C5026.25 9583.69 5019.4 9615.16 5019.02 9630.69C5038.59 9606.02 5083.24 9578.48 5097 9549ZM5166 9522C5160 9507 5164 9514 5154 9501L5118 9459L5107 9543L5166 9522ZM6535 9404C6505 9389 6452 9382 6410 9382C6418 9399 6484 9501 6494 9508C6513 9484 6542 9439 6534 9404L6535 9404ZM5280 9467C5306 9437 5324 9398 5349 9364C5365 9342 5379 9338 5393 9323C5445 9265 5412 9221 5360 9176C5345 9163 5327 9153 5311 9140C5293 9125 5284 9115 5269 9103C5258 9112 5251 9126 5242 9137C5212 9175 5187 9197 5179 9265C5197 9282 5213 9295 5233 9312C5248 9325 5269 9343 5284 9354C5261 9372 5222 9372 5197 9389C5213 9405 5229 9401 5244 9420L5280 9466L5280 9467ZM5566 9207L5618 9325C5630 9308 5665 9259 5667 9237L5566 9207ZM4700 9623L4700.02 9623.56L4701 9623L4700 9623ZM4671 9640L4703 9704L4700.02 9623.56L4671 9640ZM6140 9155C6126 9097 6105 9075 6042 9079L6140 9155ZM4533 9014C4570 9004 4603 9005 4583 8957C4576 8939 4556 8901 4543 8890C4505 8950 4520 8946 4532 9015L4533 9014ZM10590 8477C10630 8475 10664 8490 10688 8462C10701 8447 10718 8413 10727 8392C10757 8327 10731 8267 10699 8222C10643 8236 10613 8270 10591 8321C10577 8354 10552 8444 10546 8479L10590 8477ZM6074 8312C5974 8266 6038 8283 5912 8293C5907 8339 5898 8344 5912 8379C5944 8380 5982 8368 6011 8361C6059 8349 6059 8353 6074 8312ZM5410 8139C5444 8123 5450 8125 5452 8081C5457 7977 5423 7927 5407 7840C5383 7844 5364 7848 5348 7856C5337 7921 5397 8071 5410 8139ZM9632 7769C9614 7789 9572 7849 9574 7887C9576 7926 9643 7954 9681 7964L9632 7770L9632 7769ZM10029 7935C9979 7920 9879 7896 9845 7870C9793 7831 9790 7740 9767 7706C9759 7712 9730 7745 9720 7753L9729 7865C9795 7898 9959 7962 10038 7967C10028 7950 10025 7955 10028 7935L10029 7935ZM9897 7654C9874 7708 9834 7840 9946 7802C9992 7787 9968 7756 9954 7725C9939 7694 9940 7688 9921 7673C9917 7670 9919 7672 9912 7667C9904 7660 9905 7659 9897 7653L9897 7654ZM5716 7773C5720 7731 5722 7692 5692 7677C5674 7668 5624 7656 5602 7654C5611 7668 5703 7765 5716 7773ZM5508 7780C5497 7676 5418 7623 5299 7641L5355 7787L5369 7738C5395 7750 5397 7738 5417 7726C5450 7739 5474 7768 5507 7780L5508 7780ZM10687 7689C10665 7681 10599 7666 10587 7659C10564 7646 10538 7611 10517 7603L10496 7648L10523 7663C10545 7680 10542 7737 10541 7762C10541 7789 10540 7815 10541 7842C10542 7858 10541 7883 10546 7897C10550 7907 10547 7902 10553 7908L10651 7736C10662 7718 10678 7704 10685 7689L10687 7689ZM10489 7657C10457 7639 10385 7635 10342 7635C10343 7636 10344 7638 10345 7638C10384 7671 10437 7677 10488 7657L10489 7657ZM9523 7634C9520 7611 9506 7579 9491 7564L9455.43 7742.84C9465.86 7692.08 9496.36 7659.64 9522 7634L9523 7634ZM9455.43 7742.84C9455.28 7743.56 9455.14 7744.28 9455 7745L9455.43 7742.84ZM10492 7377L10492.25 7377.12L10492 7376L10492 7377ZM10512 7467C10524 7452 10543 7428 10545 7403L10492.25 7377.12L10512 7467ZM10491 7374C10489 7349 10478 7299 10470 7279C10461 7256 10439 7250 10399 7238L10317 7500C10405 7499 10410 7500 10428 7458C10444 7422 10468 7396 10490 7374L10491 7374ZM5213 6957C5213.32 6956.88 5213.65 6956.76 5213.98 6956.62C5213.98 6956.75 5213.99 6956.87 5214 6957L5213 6957ZM5205 6725C5200 6670 5180 6581 5148 6549C5139 6657 5136 6719 5110 6819C5059 7017 5061 7083 5225 7254C5300 7332 5331 7403 5357 7425C5384 7382 5350 7377 5412 7339C5431 7374 5436 7464 5451 7509C5498 7495 5516 7464 5582 7478C5626 7488 5667 7500 5714 7510C5756 7519 5818 7646 5864 7686C5897 7672 5936 7647 5978 7630C5988 7647 5989 7658 6001 7676C6010 7580 5967 7519 5927 7461C5857 7466 5877 7493 5840 7489C5783 7483 5684 7367 5652 7322C5605 7257 5536 7146 5594 7070C5637 7014 5634 7030 5655 7016L5663 6914C5639 6923 5595 6931 5580 6952C5562 6976 5553 7001 5531 7020C5513 6996 5490 6962 5469 6943C5446 6922 5411 6906 5388 6884C5384 6875 5401 6673 5330 6604C5311 6638 5310 6761 5299 6810C5289.1 6853.57 5246.84 6943.22 5213.98 6956.62C5209.01 6879.74 5211.99 6800.88 5205 6725ZM5818 7396C5818 7378 5797 7321 5791 7299C5769 7218 5766 7150 5743 7088C5718 7021 5732 7053 5704 7038C5703 7037 5692 7029 5688 7027C5686 7109 5679 7245 5706 7314C5728 7370 5762 7371 5818 7396ZM10645 7223C10674 7220 10720 7215 10732 7193C10745 7169 10723 7124 10708 7111C10688 7130 10655 7193 10645 7222L10645 7223ZM5980 7190C6026 7106 6007 6922 5969 6868C5934 6926 5932 7043 5953 7121L5971 7178C5979 7194 5973 7184 5979 7190L5980 7190ZM9658 7609C9771 7579 9795 7426 9796 7325C9797 7217 9750 7077 9656 7039C9672 7133 9720 7226 9723 7325C9726 7436 9681 7516 9658 7609ZM8741 7070C8715 7036 8716 6935 8691 6896C8678 7049 8736 7206 8771 7339C8827 7552 8813 7597 8789 7798C8880 7785 8970 7726 9011 7678C9067 7613 9094 7535 9090 7423C9084 7245 8996 7140 8912 7013C8901 6997 8892 6979 8882 6966C8810 6982 8789 7037 8741 7069L8741 7070ZM6001 7400C5981 7323 5941 7255 5874 7233C5892 7327 5907 7379 6001 7400ZM10677 6956C10700 6932 10684 6894 10654 6889C10647 6908 10649 6913 10657 6932C10664 6949 10663 6950 10677 6956ZM8755 6833C8771 6733 8783 6641 8767 6536C8754 6455 8718 6351 8671 6307C8668 6310 8667 6310 8663 6316C8659 6321 8662 6317 8659 6322C8657 6326 8653 6332 8650 6338C8643 6351 8638 6358 8631 6369C8578 6457 8569 6451 8587 6503C8614 6580 8652 6646 8672 6716C8692 6786 8675 6813 8755 6833ZM5664 6756C5700 6661 5721 6548 5657 6466C5617 6414 5511 6350 5418 6331C5422 6480 5416 6451 5476 6527C5498 6524 5533 6509 5559 6534C5596 6568 5580 6692 5664 6756ZM5414 6326C5413.79 6325.95 5413.58 6325.91 5413.37 6325.86C5413.58 6326.24 5413.79 6326.62 5414 6327L5414 6326ZM5351 6239C5336 6251 5327 6274 5328 6296C5345.86 6312.87 5386.36 6319.89 5413.37 6325.86C5397.27 6297.16 5369.75 6265.65 5351 6239ZM5116 6234C5103 6168 5092 6151 5023 6142C5053 6166 5090 6218 5116 6234ZM4758 6034C4755 6004 4677 5801 4656 5767L4573 5626C4574 5693 4661 5881 4694 5948C4714 5987 4722 6011 4757 6034L4758 6034ZM10594 6581L10594.26 6579.01C10594.85 6579.71 10595.43 6580.37 10596 6581L10594 6581ZM10529 6471C10492 6407 10468 6345 10413 6318C10350 6287 10362 6365 10298 6165C10238 5977 10209 5771 10051 5703C10058 5739 10078 5790 10087 5832C10117 5967 10133 6118 10172 6245C10214 6386 10249 6476 10331 6589C10344 6606 10354 6620 10367 6638C10373 6646 10378 6654 10383 6661L10404 6684C10385 6547 10327 6495 10350 6326C10368 6331 10350 6333 10371 6331C10385 6330 10369 6331 10381 6329L10386 6328C10386 6327 10388 6327 10389 6328C10424 6401 10448 6547 10469 6635C10500 6761 10543 6785 10696 6791L10662 6516C10644 6511 10621 6516 10602 6519L10594.26 6579.01C10575.1 6556.43 10544.52 6499.13 10529 6471ZM6153 6084C6152.9 6083.92 6152.8 6083.84 6152.71 6083.77C6152.47 6083.84 6152.23 6083.92 6152 6084L6153 6084ZM6199 6042C6195 6027 6163 6000 6152 5994C6138 6001 6140 6000 6132 6014C6118 6007 6118 5985 6096 6007C6087 6016 6082 6032 6082 6049C6106 6044 6107 6032 6126 6025C6129.98 6064.84 6129.01 6065 6152.71 6083.77C6176.62 6075.9 6207.91 6070.72 6199 6042ZM5998 6004C5961 6006 5960 6000 5931 5995C5952 6038 5966 6061 6019 6073L5998 6004ZM7094 5880L7092.4 5879.33C7092.61 5879.56 7092.81 5879.78 7093 5880L7094 5880ZM7056 5843C7039 5830 7021 5833 7006 5843L7092.4 5879.33C7084.09 5870 7065.76 5849.83 7056 5843ZM10318 6829C10333 6773 10314 6746 10284 6714C10189 6614 10159 6560 10078 6447C10045 6400 10048 6396 10040 6326C10035 6279 10030 6231 10024 6183C10012 6069 9999 5947 9978 5836C9967 5779 9954 5784 9900 5755C9840 5722 9818 5698 9779 5637C9776 5633 9738 5593 9709 5552C9688 5522 9467 5210 9443 5192L9539 5545L9476 5572L9539 5646C9568 5674 9642 5761 9650 5799C9662 5850 9657 5852 9687 5891C9727 5943 9740 5930 9762 5950C9802 5987 9853 6175 9869 6231C9912 6380 9947 6466 10049 6574L10187 6700C10231 6737 10308 6822 10318 6828L10318 6829ZM6818 5824C6819 5792 6800 5802 6813 5766L6704 5765C6714 5812 6704 5793 6697 5823C6730 5829 6787 5832 6818 5824ZM10703 5842C10725 5806 10691 5776 10667 5743L10691 5855L10703 5842ZM6609 4668C6564 4652 6473 4458 6467 4374C6465 4348 6469 4282 6465 4265C6461 4248 6344 4170 6297 4110C6219 4011 6232 3956 6106 3868C6037 3820 5908 3755 5817 3724C5680 3677 5567 3690 5479 3771C5387 3854 5390 3938 5334 4059C5286 4161 5261 4104 5279 4209C5289 4269 5300 4329 5311 4390C5318 4431 5312 4450 5343 4468L5545 4589L5475 4768C5510 4801 5577 4826 5606 4857C5573 4851 5522 4826 5502 4810C5447 4768 5446 4697 5353 4586C5348 4580 5342 4573 5337 4568C5323 4554 5331 4559 5313 4552C5320 4668 5367 4763 5418 4840C5473 4922 5488 4895 5490 4963C5491 5023 5490 5089 5496 5148C5507 5131 5521 5065 5590 5032C5603 5055 5626 5082 5642 5108C5693 5190 5733 5274 5764 5369C5831 5576 5812 5630 5822 5819C5844 5787 5871 5665 5884 5620L6215 5665C6232 5647 6269 5582 6283 5557C6364 5415 6375 5331 6428 5184C6500 4984 6569 4945 6608 4677C6624 4688 6618 4684 6634 4718C6641 4732 6646 4749 6651 4766C6666 4816 6654 4896 6691 4980C6700 5001 6734 5050 6737 5054L6721 4713C6747 4722 6759 4740 6787 4749C6810 4757 6846 4764 6870 4768C6887 5048 6981 5449 7145 5573C7137 5552 7133 5554 7124 5543C7118 5536 7122 5543 7118 5534C7097 5492 7130 5433 7134 5422C7174 5294 7093 4746 7035 4645C7030 4695 7035 4784 7036 4838C7037 4904 7037 4972 7039 5037C7043 5140 7101 5296 7062 5379C7008 5319 6985 5156 6971 5058C6958 4964 6947 4899 6905 4817C6900 4807 6889 4792 6886 4786C6874 4759 6882 4782 6886 4774C6891 4764 6893 4790 6891 4762C6890 4748 6786 4507 6772 4473C6758 4441 6652 4242 6627 4212C6621 4245 6624 4277 6621 4311C6617 4351 6588 4336 6600 4381C6612 4426 6662 4473 6684 4500L6630 4569C6615 4598 6613 4635 6610 4670L6609 4668ZM10435 6160C10434.61 6159.77 10434.24 6159.56 10433.89 6159.36C10433.93 6159.58 10433.97 6159.79 10434 6160L10435 6160ZM10363 5884C10350 5940 10344 5994 10363 6049C10373 6077 10400 6128 10422 6150C10433.61 6161.61 10423.7 6153.57 10433.89 6159.36C10427.42 6121.48 10376.92 5903.89 10363 5884ZM10478 5959C10477.33 5957.85 10476.68 5956.72 10476.05 5955.61C10476.04 5956.76 10476.03 5957.88 10476 5959L10478 5959ZM10305 5712C10406 5766 10332 5737 10368 5770L10395 5791C10375 5868 10370 5850 10359 5856L10364 5875C10364 5875 10368 5868 10370 5866C10372.26 5863.46 10373 5862.36 10373.18 5861.92C10373.69 5861.84 10375.18 5861.23 10379 5859C10467.57 5889.51 10437.02 5887.09 10476.05 5955.61C10476.46 5871.83 10419.44 5719.89 10305 5712ZM6560 5608C6529 5618 6517 5638 6524 5676C6546 5667 6562 5634 6560 5608ZM4714 6221C4684 6091 4672 6102 4637 6004C4621 5960 4605 5944 4583 5909C4573 5893 4565 5879 4555 5862C4545 5845 4538 5831 4528 5814C4499 5767 4425 5611 4388 5545L4348 5471C4290 5364 4216 5258 4129 5172C4103 5146 4079 5124 4050 5102C3990 5058 3935 5023 3860 4993C3799 4969 3699 4937 3618 4937C3618 4898 3623 4906 3546 4879C3516 4869 3491 4858 3463 4848L3299 4788C3324 4826 3341 4833 3362 4854L3439 4912C3522 4965 3646 5024 3737 5062C3845 5106 3881 5106 3992 5161L4101 5231C4157 5277 4188 5305 4234 5362C4336 5491 4361 5554 4430 5703L4509 5887C4551 5983 4627 6165 4712 6222L4714 6221ZM6623 5678L6690 5683L6699 5602C6643 5612 6629 5617 6623 5678ZM4375 5106C4378 5117 4498 5312 4509 5360C4586 5360 4587 5356 4610 5413C4623 5445 4650 5485 4683 5494C4688 5471 4698 5463 4698 5434C4670 5421 4654 5416 4628 5399C4645 5366 4688 5309 4693 5289C4664 5274 4554 5220 4519 5219C4521 5191 4532 5197 4534 5169C4494 5150 4461 5162 4375 5104L4375 5106ZM4421 5471L4420 5472C4420 5472 4422 5471 4421 5471ZM4495 5463C4494.77 5462.85 4494.54 5462.69 4494.32 5462.53L4495 5464L4495 5463ZM4427 5318C4377 5226 4290 5068 4215 4992C4196 4973 4184 4951 4161 4936C4156 4950 4119 4969 4103 4973C4078 4979 4051 4961 4021 4961C4027 4939 4069 4889 4076 4861C3989 4802 3826 4717 3713 4717C3777 4813 3968 4891 3987 4916L3654 4831C3666 4849 3678 4866 3689 4886C3815 4886 4026 4991 4126 5086C4234 5189 4255 5213 4344 5346C4356 5364 4395 5436 4406 5444C4403 5431 4401 5429 4396 5419C4412 5419 4446 5423 4457 5427C4476.69 5434.88 4479.9 5452.45 4494.32 5462.53L4427 5318ZM4411 5451L4410 5452C4410 5452 4412 5451 4411 5451ZM4983 5857C5039 5792 5000 5660 4967 5596C4939 5542 4863 5420 4828 5396C4835 5433 4974 5846 4983 5858L4983 5857ZM6701 5411C6700 5390 6696 5375 6671 5379C6645 5384 6672 5386 6636 5404C6638 5427 6645 5437 6668 5440L6662 5397L6701 5411ZM8845 5075C8729 5072 8737 5242 8746 5339C8754 5430 8775 5474 8823 5541L8856 5589C8857 5590 8858 5593 8859 5592C8859 5591 8861 5594 8863 5595L8845 5074L8845 5075ZM10665 5731L10664.03 5729.35C10664.02 5729.9 10664.01 5730.45 10664 5731L10665 5731ZM10449 5306C10461 5350 10573 5557 10608 5634L10664.03 5729.35C10665.89 5597.4 10533.65 5406.58 10449 5306ZM7320 5108C7224 5260 7355 5541 7428 5600L7320 5108ZM7219 5004C7169 5071 7173 5213 7188 5305C7199 5371 7242 5530 7279 5570L7219 5004ZM6641 5279C6661 5271 6674 5228 6678 5206C6663 5215 6660 5226 6652 5238C6643 5250 6637 5256 6641 5279ZM9897 6523C9876 6416 9813 6203 9768 6107C9741 6048 9706 5980 9672 5929C9641 5882 9647 5895 9599 5868C9561 5846 9561 5825 9532 5800C9545 5847 9596 5935 9618 5988C9646 6053 9670 6113 9694 6181C9733 6289 9779 6472 9897 6523ZM5189 5497C5206 5430 5190 5336 5167 5280C5150 5238 5094 5151 5058 5136C5059 5163 5068 5217 5078 5239C5105 5297 5120 5235 5189 5497ZM4506 5476L4505 5477C4505 5477 4507 5476 4506 5476ZM4366 5090C4365.96 5089.97 4365.93 5089.95 4365.89 5089.92C4365.94 5090.31 4365.97 5090.67 4366 5091L4366 5090ZM4341 5011C4371 5014 4441 5046 4467 5059C4516 5083 4540 5093 4540 5165C4564 5159 4574 5150 4595 5145C4586 5132 4573 5126 4561 5114L4448 5003C4447 5002 4446 5001 4445 5001C4365 4934 4378 4952 4311 4901C4215 4829 4105 4730 3997 4682C3886 4632 3844 4640 3737 4549L3370 4249C3376 4319 3405 4330 3435 4353C3565 4449 3578 4484 3714 4592C3736 4610 3756 4625 3779 4642C3858 4701 3834 4675 3935 4715C3952 4722 3959 4726 3973 4732C3980 4735 3987 4738 3993 4741C4249.66 4875.82 4337.77 5069.49 4365.89 5089.92C4364.04 5075.17 4345.87 5021.72 4341 5011ZM3399 5081C3395 5062 3388 5050 3384 5031C3380 5012 3378 4994 3374 4977C3290 4977 3309 4995 3333 5018C3354 5038 3377 5067 3399 5081ZM10363 5385C10351 5271 10197 5084 10126 4995C10083 4941 9969 4818 9926 4777C9713 4576 9767 4710 9658 4636C9616 4607 9590 4552 9556 4533C9570 4656 9688 4798 9774 4884C9791 4901 9813 4926 9831 4941C10121 5181 9963 5065 10136 5313C10181 5378 10296 5504 10367 5533C10317 5408 10159 5387 10134 5165C10260 5208 10330 5351 10363 5385ZM4783 4861L4769 4897C4793 4915 4791 4920 4807 4937L4813 4872L4783 4861ZM8858 4863C8835 4868 8797 4880 8786 4897C8795 4910 8819 4924 8832 4940C8848 4959 8861 4998 8862 4996C8862 4995 8863 4998 8864 4999L8858 4864L8858 4863ZM8455 4828C8376 4914 8342 5346 8425 5433L8455 4828ZM4924 5090C4923.94 5089.87 4923.89 5089.74 4923.83 5089.61C4923.56 5089.74 4923.28 5089.87 4923 5090L4924 5090ZM4953 5016L4866 4376C4846 4521 4836 4798 4869 4946C4882.96 5010.83 4901.9 5038.86 4923.83 5089.61C4957.02 5073.83 4957.96 5063.61 4953 5016ZM4416 5461L4415 5462C4415 5462 4417 5461 4416 5461ZM9880 5185C9874 5132 9823 5045 9798 5014C9765 4973 9718 4926 9667 4899C9679 4924 9862 5170 9880 5185ZM4589 4627C4577 4605 4530 4526 4514 4513C4521 4592 4562 4727 4589 4797C4619 4874 4665 4988 4735 5010C4730 4946 4709 4859 4697 4794C4689 4750 4671 4612 4655 4586L4646 4623L4590 4627L4589 4627ZM8558 4558C8558 4433 8538 4330 8476 4226L8451 4194C8445 4333 8469 4511 8480 4652C8492 4804 8498 4961 8497 5116C8495 5386 8493 5462 8572 5763C8599 5867 8666 6091 8721 6161L8730 6136C8781 5788 8527 5643 8526 5081C8526 4904 8557 4733 8558 4558ZM2658 3904C2658.03 3903.38 2658.06 3902.74 2658.11 3902.1C2657.74 3902.07 2657.37 3902.03 2657 3902L2658 3904ZM2762 3932C2736 3971 2754 3961 2727 3962C2737 3976 2750 3984 2763 3996C2778 4010 2788 4017 2803 4031C2821 4047 2826 4046 2842 4067C2853 4082 2862 4094 2874 4110L2973 4230C2984 4240 3010 4247 3027 4251C3001 4141 2911 4094 2903 4062C2913 4063 2909 4063 2915 4065C2938 4073 2972 4100 3002 4107C2993 4068 2911 3964 2902 3933C3028 3962 3017 3989 3056 3998C3053 3985 3038 3964 3029 3950C3018 3931 3006 3921 3001 3898C3061 3927 3101 3930 3193 3985C3224 4003 3252 4017 3281 4037C3310 4056 3337 4074 3365 4093C3361 4077 3334 4040 3323 4025C3305 4001 3289 3985 3270 3964L3242 3937C3230 3925 3228 3922 3213 3911C3139 3856 3083 3824 2988 3798L2878 3773C2833 3763 2832 3774 2832 3729C2791 3729 2735 3746 2698 3749C2696 3769 2684 3804 2678 3824C2672.16 3844.43 2659.7 3879.06 2658.11 3902.1C2692.72 3905.5 2726.38 3929.03 2762 3932ZM6391 5747L6337 5748L6322 5793L6391 5747ZM9420 4198C9430 4119 9406 4127 9329 4091C9338 4109 9336 4113 9342 4130L9390 4182C9404 4194 9418 4195 9420 4197L9420 4198ZM4387 4462C4342 4435 4276 4349 4243 4303C4225 4278 4215 4270 4196 4251C4187 4242 4179 4231 4169 4223L4092 4150C4071 4128 4012 4062 3991 4051C4002 4071 4016 4088 4030 4108C4044 4128 4055 4145 4067 4166C4086 4198 4118 4254 4125 4294C4068 4277 3967 4215 3927 4171C3896 4137 3905 4134 3838 4138C3913 4172 3935 4176 3979 4233C4007 4269 4042 4338 4053 4395C3849 4356 3646 4082 3516 4069L3715 4244C3764 4290 4030 4510 4047 4535C3938 4517 3825 4432 3737 4376C3707 4356 3674 4330 3642 4317C3657 4348 3682 4372 3702 4396C3749 4451 3861 4538 3925 4581C3975 4614 4231 4761 4277 4775C4222 4655 4107 4629 4057 4541C4211 4564 4254 4658 4338 4691C4280 4557 4373 4554 4384 4465L4387 4462ZM3256 4171C3245 4139 3207 4102 3183 4083C3162 4066 3113 4032 3086 4021C3103 4042 3246 4167 3255 4171L3256 4171ZM3991 3461C3963 3441 3936 3361 3787 3372C3671 3380 3684 3325 3553 3316C3561 3343 3590 3379 3606 3400C3666 3475 3766 3453 3806 3587C3772 3582 3716 3554 3689 3537C3626 3495 3606 3447 3560 3412C3514 3376 3445 3347 3385 3336C3419 3537 3868 3726 4011 3872C4076 3938 4102 4035 4189 4075C4186 4038 4142 3951 4126 3921C4101 3878 4065 3831 4032 3801C4013 3784 3996 3767 3973 3750C3920 3710 3834 3656 3812 3592C3968 3622 4113 3788 4195 3902C4215 3929 4273 4019 4297 4033C4285 3956 4245 3869 4210 3812C4175 3754 4098 3657 4085 3631C4122 3641 4182 3673 4213 3689C4253 3710 4292 3740 4313 3773C4344 3822 4369 3979 4420 4030C4404 3876 4323 3790 4305 3726C4295 3693 4278 3649 4274 3615C4310 3630 4312 3650 4348 3613C4449 3739 4544 3973 4556 4176C4574 4001 4500 3808 4426 3689C4383 3620 4352 3566 4267 3535C4225 3520 4198 3502 4170 3478C4164 3473 4154 3464 4149 3459C4104 3404 4115 3428 4091 3401L3991 3460L3991 3461ZM6579 4124C6578.5 4123.38 6577.97 4122.74 6577.41 4122.09C6577.61 4122.73 6577.81 4123.37 6578 4124L6579 4124ZM6470 3953C6475 3986 6497 4028 6514 4053C6533.17 4081.76 6564.3 4106.85 6577.41 4122.09C6561.42 4071.62 6499.62 3978.67 6470 3953ZM4700 4383C4739 4340 4723 4198 4711 4137C4696 4056 4673 3992 4648 3918L4699 4383L4700 4383ZM2990 4763C2984 4739 2964 4695 2962 4668C2960 4648 2973 4663 2952 4642C2876 4564 2807 4462 2752 4413C2662 4334 2599 4295 2502 4230C2486 4219 2467 4209 2449 4199C2429 4188 2415 4180 2395 4169C2309 4122 2248 4097 2162 4058C2066 4015 1879 3953 1778 3925L1358 3827C1323 3820 1326 3830 1304 3848C1290 3860 1262 3875 1253 3887C1297 3887 1587 3962 1647 3981C1690 3994 1730 4005 1773 4020L2013 4104C2094 4135 2168 4168 2244 4202C2412 4277 2608 4392 2753 4509C2852 4589 2841 4591 2911 4679C2931 4705 2964 4747 2990 4764L2990 4763ZM2682 4280C2679 4242 2653 4233 2611 4202C2439 4073 2153 3945 1950 3878C1931 3872 1907 3865 1891 3857L1891 3897C1936 3908 2059 3954 2109 3972C2297 4041 2473 4137 2638 4249C2654 4260 2667 4270 2682 4280ZM2785 4235C2753 4187 2529 4035 2471 4001C2432 3978 2392 3956 2352 3936C2174 3847 2077 3811 1896 3750C1873 3742 1843 3736 1824 3727C1811 3747 1795 3752 1784 3767C1859 3773 2174 3900 2255 3933L2378 3994C2520 4070 2587 4107 2716 4208C2730 4219 2768 4230 2784 4234L2785 4235ZM2866 4199C2865.51 4198.89 2865.03 4198.78 2864.55 4198.67C2864.74 4199.15 2864.89 4199.59 2865 4200L2866 4199ZM2766 4075C2682 4008 2641 3970 2548 3909C2443 3840 2364 3803 2256 3748C2237 3739 2223 3734 2205 3725C2134 3690 2143 3759 2048 3668C2032 3653 1971 3632 1950 3627C1933 3638 1891 3667 1885 3687C1909 3688 2002 3724 2025 3731C2118 3762 2265 3825 2355 3869C2436 3910 2578 3993 2648 4044L2776 4145C2825.6 4184.68 2805.33 4185 2864.55 4198.67C2856.43 4177.72 2779.68 4085.75 2766 4075ZM5131 5063C5130.66 5062.81 5130.32 5062.63 5129.99 5062.44C5129.99 5062.63 5130 5062.81 5130 5063L5131 5063ZM5077 4742C5059 4626 5064 4510 5052 4393C5022 4116 4881 3914 4874 3834C4872 3871 4897 3946 4908 3985C4938 4099 4970 4354 4981 4469C4993.97 4612.67 4982.05 4979.33 5129.99 5062.44C5127.87 4960.56 5091.97 4840.82 5077 4742ZM7455 5341C7455.2 5340.8 7455.41 5340.6 7455.61 5340.39L7455 5341ZM7537 4928C7547 4772 7546 4610 7533 4454C7500 4069 7418 4036 7383 3868C7373 3819 7361 3830 7314 3813C7286 3803 7253 3790 7225 3782C7233 3815 7339 4055 7362 4109C7408 4220 7437 4353 7448 4483C7466 4706 7411 4774 7429 4909C7449 5055 7455 5187.99 7456 5339.99C7456 5339.99 7456 5339.99 7456 5339.99C7455.87 5340.12 7455.74 5340.26 7455.61 5340.39L7456 5340C7456 5340 7456 5339.99 7456 5339.99C7505.35 5288.4 7531.04 5021.37 7537 4928ZM1706 3842L1704.95 3841.77C1704.96 3841.85 1704.98 3841.92 1705 3842L1706 3842ZM1580 3773L1422 3737L1387 3772L1704.95 3841.77C1691.88 3787.01 1650.9 3790.97 1580 3773ZM2657 3902L2647 3902C2656 3915 2652 3918 2657 3902ZM2305 3696L2480 3743L2518 3625C2500 3614 2489 3607 2477 3593C2436 3545 2455 3580 2416 3514C2406 3497 2401 3483 2388 3470L2278 3512C2350 3573 2326 3525 2362 3626C2335 3667 2315 3672 2304 3695L2305 3696ZM2303 3702L2304 3696C2290 3701 2287 3697 2303 3702ZM5172 4416C5171.65 4415.65 5171.35 4415.35 5171.07 4415.09C5171.05 4415.39 5171.02 4415.7 5171 4416L5172 4416ZM5081 3927C5031 3794 4961 3671 4839 3601C4859 3635 4915 3703 4954 3771C5072 3977 5087 4094 5136 4311C5141 4332 5153 4389 5165 4407C5168.65 4413.4 5168.14 4412.28 5171.07 4415.09C5178.62 4312.23 5113.9 4014.74 5081 3927ZM7396 3762C7389 3727 7389 3702 7356 3690C7334 3681 7292 3673 7266 3674C7264 3688 7274 3715 7277 3734L7396 3762ZM1571 3707C1566 3702 1573 3707 1562 3701C1557 3698 1559 3699 1552 3696C1509 3674 1496 3670 1480 3693C1514 3694 1535 3708 1570 3708L1571 3707ZM2736 3697L2831 3717C2831 3679 2826 3660 2826 3627C2800 3621 2756 3612 2726 3612C2726 3630 2732 3681 2736 3697ZM6825 3944C6824.6 3942.61 6824.1 3941.14 6823.52 3939.59C6824.37 3941.42 6825.19 3943.22 6826 3945L6825 3944ZM6693 3772C6647 3733 6583 3666 6551 3614C6580 3697 6648 3828 6666 3929L6574 3851C6554 3832 6502 3785 6489 3765L6845 4466C6883 4448 6871 4417 6858 4378C6843 4330 6786 4154 6784 4128C6879 4247 6896 4290 6934 4447C6950 4426 6980 4397 6984 4364C6987 4335 6971 4286 6973 4247C6998 4304 7025 4366 7052 4424C7068 4460 7113 4577 7133 4599L7097 4289C7150 4328 7252 4744 7287 4793L7236 4266C7289 4323 7303 4521 7320 4610C7328 4653 7339 4682 7351 4720C7354 4716 7354 4717 7357 4709L7362 4674C7383 4456 7361 4286 7290 4078C7273 4029 7208 3826 7168 3802C7148 3790 7094 3775 7068 3772L7226 4239C7217 4218 7202 4194 7191 4168C7119 3995 7116 3868 6971 3731C6942 3703 6949 3704 6906 3689C6884 3703 6890 3721 6854 3765L6849 3759C6848 3758 6847 3757 6847 3756L6840 3742C6828 3711 6833 3694 6809 3683C6796 3677 6731 3659 6716 3655C6718.72 3742.92 6778.95 3848.1 6815.52 3922.87C6790.16 3876.98 6726.1 3800 6693 3772ZM6815.52 3922.87C6818.95 3929.08 6821.68 3934.72 6823.52 3939.59C6821.02 3934.21 6818.34 3928.63 6815.52 3922.87ZM5089 3721C5093 3689 5078 3682 5048 3679C5053 3702 5065 3722 5089 3721ZM2829 3621C2835 3570 2814 3542 2784 3527L2829 3621ZM3800 3854C3778 3833 3754 3806 3731 3782L3452 3499C3370 3415 3390 3414 3330 3423L3147 3450C3155 3540 3214 3543 3238 3627C3205 3621 3162 3589 3138 3574C3099 3549 3074 3542 3019 3541C3022 3569 3039 3627 3036 3647C3033 3668 3013 3707 3006 3732C3021 3746 3037 3755 3054 3768C3140 3836 3300 3966 3418 3970C3389 3923 3297 3861 3275 3815L3544 3927C3524 3855 3450 3820 3386 3785C3335 3757 3260 3695 3246 3634L3386 3698L3275 3498C3358 3511 3541 3659 3612 3718C3677 3772 3736 3808 3799 3855L3800 3854ZM6025 3719C6033 3666 6026 3672 5995 3653C5923 3608 5842 3533 5799 3461C5785 3438 5772 3425 5755 3410C5735 3392 5727 3385 5701 3370L5644 3335C5657 3449 5764 3562 5844 3620C5905 3664 5953 3689 6024 3720L6025 3719ZM3754 4051C3744 3990 3740 3999 3679 3993C3696 4009 3732 4042 3754 4051ZM705 3327C704.82 3327.14 704.64 3327.29 704.45 3327.43C704.63 3327.62 704.82 3327.81 705 3328L705 3327ZM572 3278C509 3273 471 3288 423 3309C430 3346 439 3344 476 3354C502 3361 528 3369 557 3369C598.7 3369.99 678.83 3347.33 704.45 3327.43C675.33 3297.79 622.68 3280.98 572 3278ZM2186 3370C2183 3301 2176 3254 2156 3192C2100 3015 2103 3028 2015 3036C1745 3061 1551 3211 1266 3181C1232 3177 1092 3159 1084 3192C1083 3198 1084 3195 1082 3201C1078 3214 1078 3206 1073 3223C1198 3244 1264 3262 1399 3239C1499 3222 1591 3192 1691 3173C1889 3137 1970 3146 2089 3284C2107 3305 2158 3356 2186 3370ZM5972 3458C5965 3444 5935 3414 5923 3403C5909 3390 5883 3372 5866 3360C5826 3332 5802 3296 5739 3288C5754 3421 5837 3443 5972 3458ZM1447 3327C1327 3322 1301 3353 1269 3349C1209 3342 1049 3229 1003 3221C948 3211 891 3251 871 3279C886 3284 1046 3346 1062 3358C1032 3386 978 3414 952 3443C998 3472 1126 3452 1189 3459L1205 3486C1209 3497 1203 3500 1197 3515C1189 3535 1182 3559 1176 3578C1113 3579 943 3490 896 3462C863 3442 863 3445 827 3463C770 3492 680 3526 628 3557C643 3587 707 3641 731 3664C775 3644 812 3594 831 3587C856 3625 851 3654 849 3703L871 3686C884 3698 876 3698 896 3702C925 3671 904 3636 950 3609C983 3696 985 3727 1035 3795C1123 3738 1121 3680 1140 3652C1190 3705 1160 3741 1225 3743C1240 3725 1252 3706 1264 3681C1295 3618 1265 3605 1415 3547C1426 3421 1443 3404 1449 3327L1447 3327ZM2409 3359C2421 3397 2461 3449 2500 3462C2637 3509 2686 3210 2617 3072C2557 3145 2586 3326 2593 3425C2504 3420 2477 3374 2410 3360L2409 3359ZM5465 3211C5464 3184 5463 3103 5457 3082C5451 3056 5405 3037 5380 3028C5372 3049 5324 3275 5325 3298C5359 3282 5438 3221 5464 3211L5465 3211ZM6056 3418C6055.9 3417.97 6055.8 3417.94 6055.7 3417.9C6055.8 3418.27 6055.9 3418.63 6056 3419L6056 3418ZM5932 3254C5897 3224 5802 3168 5745 3155C5746 3249 5760 3185 5895 3291C5938.93 3324.94 5996.8 3398.75 6055.7 3417.9C6037.27 3351.29 5970.79 3286.82 5932 3254ZM1813 3298C1805 3288 1803 3288 1795 3280L1777 3262C1762 3277 1749 3303 1746 3325C1757 3328 1768 3333 1777 3338C1791 3330 1807 3321 1814 3298L1813 3298ZM7112 3255C7124 3239 7133 3194 7138 3174C7145 3148 7154 3118 7158 3092L7046 3119C7055 3136 7058 3130 7073 3144C7080 3151 7089 3161 7094 3173C7100 3187 7110 3237 7112 3255ZM6759 3210C6772 3188 6786 3135 6785 3103C6784 3066 6754 3075 6686 3076C6689 3100 6707 3126 6719 3143C6771 3212 6735 3168 6758 3210L6759 3210ZM3280 3217C3292 3205 3327 3145 3334 3128C3358 3063 3344 3076 3335 3014C3240 3019 3156 3018 3062 3017C3018 3016 2972 3016 2931 3023C2904 3028 2846 3050 2835 3066C2804 3110 2851 3425 2926 3521L2932 3103C2971 3102 3012 3100 3048 3091C3087 3082 3110 3066 3141 3055C3155 3087 3167 3137 3190 3159C3201 3169 3264 3210 3280 3217ZM4834 2985C4786 3024 4723 3120 4877 3125C4861 3087 4848 3090 4826 3065L4834 2985ZM3812 3000C3807 3028 3795 3046 3784 3067C3866 3121 3890 3066 3908 2993L3811 2999L3812 3000ZM6378 3186C6424 3180 6419 3126 6424 3113C6445 3059 6573 2998 6633 2962C6588 2963 6532 2972 6485 2977C6458 2980 6378 2980 6362 3015C6356 3068 6370 3135 6378 3187L6378 3186ZM6996 2926C6974 2929 6946 2950 6934 2964C6955 2978 6975 2995 7002 3002L6996 2926ZM649 2952C633 2918 642 2930 629 2921L567 2945C586 2954 624 2955 648 2953L649 2952ZM4419 3183C4417 3127 4397 3040 4387 2981C4372 2890 4379 2859 4315 2826C4286 2895 4301 2969 4330 3029L4419 3184L4419 3183ZM6840 2931C6837 2919 6813 2905 6801 2902C6758 2893 6672 2936 6643 2959L6840 2931ZM4997 2959C4996 2994 5010 3026 5016 3059C5069 3039 5055 3075 5076 3004C5083 2981 5098 2938 5099 2915C5073 2932 5073 2920 5061 2914C5042 2929 5014 2943 4997 2959ZM6044 2981C6043.59 2981.41 6043.01 2981.48 6042.4 2981.57C6042.6 2981.71 6042.8 2981.86 6043 2982L6044 2981ZM5944 2912C5789 2849 5743 2928 5897 2969C5919 2975 5944 2979 5968 2982C5974 2983 6036 2991 6040 2983C6040.59 2981.82 6041.53 2981.68 6042.4 2981.57C6013.66 2960.59 5988.69 2930.87 5944 2912ZM2735 3134C2752 2978 2781 2994 2815 2919L2686 2983C2690 3011 2724 3110 2735 3135L2735 3134ZM7751 3070C7764 3027 7748 2976 7728 2935C7709 2896 7684 2870 7630 2865L7716 3073L7751 3070ZM1182 2855C1199 2855 1201 2851 1217 2850C1232 2849 1246 2851 1261 2849C1282 2847 1320 2842 1341 2840C1341 2758 1342 2690 1359 2624C1373 2571 1387 2480 1436 2467C1441 2490 1453 2515 1460 2537C1482.66 2606.96 1517.95 2680.81 1605.09 2675.3L1672 2891L1880 2869C1877 2838 1841 2766 1819 2762C1790 2757 1772 2795 1680 2766C1694 2753 1750 2733 1766 2726C1948 2656 1967 2691 1983 2577C1782.56 2569.18 1727.43 2641.66 1611.97 2672C1684.91 2598.45 1755.34 2541.46 1854 2502C1929 2472 2109 2424 2192 2422L2286 2567C2319 2621 2381 2759 2404 2817C2409 2830 2411 2839 2416 2850C2524 2825 2511 2821 2523 2783L2570 2656C2507 2656 2459 2661 2401 2661C2401 2622 2406 2602 2406 2561C2406 2526 2406 2491 2406 2456C2334 2408 2314 2442 2200 2309C2189 2296 2182 2292 2177 2277C2270 2277 2325 2327 2352 2288C2372 2260 2348 2267 2386 2247L2437 2350C2444 2363 2449 2374 2455 2386C2476 2375 2493 2360 2520 2357C2560 2352 2576 2361 2596 2380C2641 2424 2648 2460 2719 2426C2719 2343 2632 2279 2570 2242C2555 2233 2545 2225 2527 2216L2346 2123C2309 2104 2088 2010 2072 1989C2246 1989 2299 2008 2452 2082C2468 2090 2506 2121 2525 2079C2534 2058 2519 2079 2530 2054C2607 2054 2656 2074 2709 2074C2709 2015 2678 1987 2664 1964C2625 1903 2672 1852 2620 1849C2503 1842 2522 1825 2464 1766C2452 1754 2435 1736 2430 1720L2569 1740C2513 1657 2486 1677 2415 1635C2402 1627 2371 1611 2365 1595C2505 1628 2543 1632 2695 1683L2911 1751C3017 1784 3030 1801 3068 1873C3083 1902 3106 1938 3131 1954C3131 1811 3089 1803 2977 1745C2877 1693 2868 1670 2736 1618C2640 1580 2503 1533 2398 1503C2372 1495 2350 1491 2327 1480C2305 1470 2215 1430 2206 1417C2231 1417 2272 1425 2298 1430L2817 1553C2839 1557 2887 1567 2913 1567C2909 1552 2914 1561 2901 1549C2863 1515 2780 1490 2734 1478C2697 1468 2667 1458 2634 1443C2603 1429 2575 1410 2549 1388C2681 1388 2793 1429 2883 1472C2907 1483 2930 1495 2952 1508C3031 1554 3014 1552 3048 1621C3060 1645 3071 1674 3091 1687C3091 1661 3085 1649 3076 1632C3102 1626 3116 1614 3151 1612C3205 1609 3194 1624 3226 1632C3187 1559 3140 1518 3069 1476C2911 1381 2771 1359 2612 1306C2581 1295 2399 1245 2380 1219C2642 1219 2780 1292 3018 1357C3042 1364 3087 1378 3112 1378C3052 1288 2876 1204 2788 1204L2788 1199C2949 1199 3171 1282 3317 1347C3425 1395 3681 1518 3772 1574C3798 1590 3878 1631 3907 1638L3846 1580C3814 1548 3787 1519 3749 1493C3619 1407 3598 1404 3471 1343L3113 1209C3079 1199 3052 1189 3018 1179C2932 1154 2598 1061 2518 1061L2518 1056C2546 1056 2561 1059 2587 1061C2606 1063 2633 1064 2656 1067L2788 1084C2912 1100 3047 1124 3159 1166C3248 1199 3284 1217 3383 1241L3508 1270C3485 1173 3388 1156 3291 1124L3098 1048C3086 1042 3079 1040 3066 1035C3060 1032 3054 1029 3049 1027L3034 1017C3108 1017 3214 1044 3273 1061L3701 1205C3813 1247 3859 1298 3889 1305C3884 1325 3878 1320 3881 1343C3883 1360 3889 1367 3889 1385C4056 1385 4246 1532 4272 1539C4252 1465 4003 1312 3921 1262C3891 1244 3809 1197 3794 1175L3926 1222C3969 1240 4008 1257 4049 1278C4265 1386 4456 1536 4663 1660C4678 1669 4709 1689 4724 1693C4691 1644 4586 1568 4533 1531C4405 1442 4425 1359 4246 1245C4236 1239 4230 1235 4218 1228C4198 1215 4184 1204 4165 1191C4105 1150 4071 1118 4027 1061C4010 1039 3982 1025 4027 1030C4119 1039 4211 1078 4281 1130C4484 1282 4508 1253 4564 1285C4613 1313 4667 1371 4707 1411L4882 1594C4882 1524 4873 1534 4872 1504C4899 1510 4925 1518 4952 1524C4922 1479 4881 1447 4850 1402C4809 1343 4757 1259 4693 1226C4638 1198 4519 1129 4504 1072L4604 1097C4553 1001 4540 1027 4520 987C4512 972 4507 953 4500 937C4484 937 4402 941 4402 941C4385 937 4316 851 4302 832L4271 789C4261 778 4270 780 4252 778C4239 805 4260 803 4267 828C4234 825 4211 813 4172 813C4179 787 4187 804 4186 779C4186 770 4176 751 4172 743L4192 743C4191 742 4189 740 4189 741C4188 742 4186 740 4185 740C4147 725 4152 718 4117 653C4107 661 4088 690 4078 704C4075 708 4073 711 4069 715C4068 716 4067 717 4067 718L4057 728C4042 744 4053 743 4033 749L4013 574C4008 545 4004 540 4064 548C4097 553 4120 554 4150 561C4235 583 4353 656 4441 664C4441 819 4446 714 4461 769C4487 757 4534 741 4569 756C4591 766 4624 806 4630 829C4647 817 4645 812 4645 784C4652.76 786.91 4654.64 784.41 4654.86 784.03C4654.69 784.43 4653.68 787.53 4655 799C4677 799 4679 801 4695 794C4670 757 4470 632 4441 615C4355 565 4242 517 4134 489C4011 457 3902 446 3745 445C3636 444 3477 469 3392 470C3366 470 3364 475 3342 475C3352 462 3352 465 3371 459L3402 445C3373 447 3278 477 3244 487C3165 510 2951 587 2874 625C2851 637 2827 646 2803 658C2755 682 2715 703 2669 728L2357 924C2298 966 2312 949 2327 969C2317 970 2307 971 2297 974C2275 978 2287 974 2271 988L2204 1041C2195 1048 2188 1052 2182 1059C2175 1067 2164 1106 2163 1120C2082 1120 2143 1097 2052 1173L1706 1534L1474 1839C1374 1990 1253 2171 1174 2330C1147 2386 1110 2445 1082 2507C1066 2542 975 2721 968 2751L938 2745L938 2825C953 2829 1053 2895 1062 2910C971 2954 968 2915 954 2956C949 2971 944 2984 943 2999C1009 2999 1058 2993 1122 2994C1175 2995 1173 3002 1172 2949C1171 2917 1177 2897 1177 2859L1182 2855ZM1605.09 2675.3L1605 2675L1604 2674C1606.69 2673.36 1609.34 2672.69 1611.97 2672C1610.98 2673 1609.99 2674 1609 2675C1607.69 2675.12 1606.38 2675.22 1605.09 2675.3ZM7162 2888C7162 2887 7161 2886 7161 2885C7157 2870 7158 2876 7164 2854L7069 2891C7078 2907 7072 2910 7078 2920L7165 2897L7163 2888L7162 2888ZM5111 2834L5111.22 2834.04C5111.14 2833.69 5111.07 2833.35 5111 2833L5111 2834ZM5220 2975C5251 2993 5278 2968 5301 2951C5328 2930 5334 2918 5345 2876L5111.22 2834.04C5126.38 2906.35 5166.26 2943.15 5220 2975ZM541 2770C531 2758 516 2742 506 2736C480 2767 493 2778 424 2862C413 2875 418 2867 411 2882C447 2880 488 2881 515 2863C532 2852 567 2824 576 2809L542 2770L541 2770ZM7361 2860C7378 2848 7409 2824 7422 2805C7384 2814 7374 2829 7361 2860ZM747 2867C763 2849 773 2829 780 2804L738 2803L747 2868L747 2867ZM4075 3153C4085 3111 4094 3069 4103 3027C4121 2941 4110 2951 4156 2931C4251 2890 4251 2865 4257 2722C4065 2760 4030 3075 4075 3154L4075 3153ZM2539 3031C2531 3011 2486 2975 2462 2973C2433 2970 2423 2985 2402 2965C2350 2918 2341 2795 2262 2760C2267 2811 2293 2924 2289 2964C2268 2985 2226 3013 2214 3043C2203 3071 2222 3140 2231 3171C2431 3197 2372 3206 2493 3237C2493 3209 2495 3121 2482 3105C2468 3091 2401 3101 2354 3069L2540 3031L2539 3031ZM3914 2025C3897 2020 3854 1998 3840 1989C3821 1977 3818 1940 3804 1916C3790 1892 3775 1874 3759 1852C3740 1828 3743 1822 3687 1810L3778 2084L4079 2124C3995 2158 3741 2185 3632 2200C3558 2211 3477 2215 3406 2233C3349 2247 3272 2283 3250 2335C3373 2406 3471 2383 3608 2345C3708 2317 3873 2282 3979 2322C3888 2374 3604 2403 3477 2443C3349 2483 3099 2537 3088 2672C3191 2669 3299 2657 3401 2647C3448 2643 3497 2629 3530 2607C3572 2579 3575 2555 3594 2507C3613 2516 3623 2529 3638 2542C3655 2556 3663 2558 3656 2585C3721 2580 3820 2525 3890 2513C3903 2535 3912 2571 3923 2596C3972 2710 3987 2705 3995 2869C4006 2862 4121 2733 4127 2719C4113 2696 4096 2675 4069 2660C4041 2644 4012 2636 4021 2591C4146 2582 4180 2610 4226 2612C4259 2613 4343 2539 4357 2520C4350 2510 4328 2493 4316 2484C4294 2468 4164 2443 4146 2431C4135 2424 4119 2382 4115 2369C4255 2324 4294 2365 4391 2428C4411 2441 4429 2452 4450 2464C4484 2484 4478 2480 4514 2464C4555 2446 4602 2429 4644 2410C4674 2425 4701 2468 4786 2491C4851 2508 4913 2507 4980 2516C5049 2525 5097 2545 5139 2581C5173 2610 5213 2658 5261 2678C5316 2701 5367 2719 5419 2744C5631 2844 5512 2823 5630 2774C5710 2741 5721 2783 5830 2700C5836 2695 5841 2692 5847 2687L5857 2676C5857 2674 5859 2674 5859 2673C5740 2592 5350 2581 5234 2495C5181 2456 5157 2411 5079 2386C5082 2356 5111 2310 5123 2281C5106 2273 5092 2273 5073 2267C5052 2260 5051 2253 5033 2246L5055 2350C4953 2346 4945 2346 4897 2404C4861 2395 4809 2369 4771 2354C4689 2323 4704 2341 4683 2270L4888 2292C4905 2227 4913 2165 4877 2113C4863 2094 4786 2014 4771 2004C4771 2046 4777 2091 4797 2123C4809 2141 4813 2148 4828 2162C4837 2171 4851 2181 4857 2196C4710 2207 4740 2227 4695 2130C4661 2139 4623 2180 4550 2196C4571 2098 4760 1889 4768 1848L4525 1984C4497 1999 4496 1984 4439 1966C4327 1930 4112 1904 3983 1914C3963 1937 3928 1996 3914 2024L3914 2025ZM2940 2786C2951 2816 2955 2818 2983 2831C3002 2840 3023 2848 3045 2854C3100 2870 3151 2863 3208 2863C3319 2863 3311 2888 3354 2857C3375 2842 3389 2840 3401 2819C3410 2803 3424 2775 3429 2758C3325 2762 3025 2769 2940 2786ZM2051 2763C2057 2721 2025 2682 1977 2700C1946 2712 1911 2747 1898 2771L2050 2764L2051 2763ZM6876 2886C6941 2880 6963 2870 7005 2839L7096 2761C7045 2766 7006 2786 6966 2805C6912 2832 6905 2814 6876 2886ZM1812 2963C1724 2957 1629 2955 1584 2902C1543 2855 1515 2776 1467 2732L1484 3030C1401 3021 1421 3006 1329 3031C1286 3042 1259 3056 1230 3086L1218 3105C1284 3128 1306 3138 1387 3129C1444 3122 1499 3107 1552 3095C1606 3083 1661 3073 1715 3059C1742 3052 1767 3045 1784 3028C1795 3016 1812 2982 1813 2963L1812 2963ZM8204 2752C8188 2741 8149 2713 8123 2718L8052 2758C8052 2757 8050 2760 8049 2761C8139 2834 8156 2810 8203 2752L8204 2752ZM6077 2665C6037 2657 5996 2641 5950 2656C5904 2671 5832 2799 6017 2747C6072 2731 6071 2722 6078 2665L6077 2665ZM3831 2830C3831 2830.01 3830.99 2830.03 3830.99 2830.04C3831.33 2830.03 3831.66 2830.01 3832 2830L3831 2830ZM3647 2901C3568 2956 3567 2988 3476 2979L3461 2940C3497 2903 3617 2846 3679 2824C3777 2789 3831 2769 3842 2648C3686 2662 3582 2731 3499 2808C3464 2840 3409 2884 3393 2951C3378 3017 3422 3095 3461 3122C3472 3116 3493 3095 3506 3084C3631.99 2977.01 3794.97 2973 3830.99 2830.04C3734.8 2834.17 3705.79 2859.15 3647 2901ZM4586 2667C4559 2593 4422 2621 4348 2631C4358 2683 4391 2763 4411 2813C4426 2850 4467 2960 4491 2976L4493 2706C4516 2696 4569 2683 4586 2667ZM964 2602C938 2602 934 2607 914 2612C919 2633 928 2642 934 2667C948 2657 961 2621 964 2602ZM267 2650C277 2650 293 2653 299 2644C301 2641 299 2619 298 2616C295 2604 271 2590 258 2582C218 2557 173 2585 133 2597C147 2627 154 2606 140 2646L268 2651L267 2650ZM2802 2592C2731 2625 2742 2631 2730 2681C2760 2704 2841 2729 2879 2699C2910 2675 2927 2611 2934 2560C2888 2566 2840 2575 2802 2592ZM7399 2576C7357 2517 7181 2505 7153 2720C7177 2712 7220 2684 7246 2670L7272 2651C7266 2637 7255 2629 7246 2621L7399 2577L7399 2576ZM2194 2751C2189 2690 2150 2579 2148 2553L2075 2561C2083 2595 2104 2639 2116 2674C2141 2749 2122 2727 2194 2751ZM4968 2682C4967.67 2682 4967.33 2682 4967 2682C4967 2682 4967 2682 4967 2682L4968 2682ZM4796 2589C4741 2571 4649 2535 4594 2524C4606 2556 4635 2572 4666 2590C4693 2606 4723 2619 4754 2631C4808.72 2651.89 4902.04 2681.69 4967 2682C4942 2629 4862 2610 4796 2589ZM6973 2492C6954 2509 6946 2534 6926 2540C6911 2544 6866 2532 6845 2529C6797 2524 6717 2517 6668 2520C6678 2552 6687 2535 6680 2579C6793 2633 6891 2648 7024 2613L6973 2492ZM2490 2525L2491.94 2525.18C2491.3 2524.79 2490.65 2524.39 2490 2524L2490 2525ZM2562 2561C2558 2545 2561 2551 2564 2532L2491.94 2525.18C2514.24 2538.79 2535.76 2552.25 2562 2561ZM744 2454C745 2483 753 2521 769 2538C792 2539 848 2505 860 2489L743 2453L744 2454ZM508 2446L518 2525C535 2516 556 2496 554 2464L508 2445L508 2446ZM8193 2491C8192 2464 8181 2454 8176 2424C8160 2431 8151 2438 8143 2458C8154 2469 8172 2486 8193 2491ZM7225 2462C7215 2413 7204 2396 7172 2373C7035 2270 7059 2412 7107 2439C7118 2445 7206 2459 7225 2463L7225 2462ZM943.53 2170C943.3 2170 943.07 2170 942.84 2170C942.9 2169.66 942.95 2169.33 943 2169C943.18 2169.33 943.35 2169.67 943.53 2170ZM7639 2350C7808 2320 7717 2089 7691 2065C7671 2101 7650 2287 7639 2350ZM5820 2457C5807 2318 5718 2311 5669 2229C5641 2182 5636 2145 5623 2086C5612 2035 5590 1996 5582 1940C5554 1949 5545 1960 5507 1964C5522 1994 5586 2029 5554 2136C5518 2256 5505 2211 5429 2243C5463 2254 5462 2204 5570 2316C5491 2338 5320 2311 5287 2435C5321 2448 5350 2479 5402 2476C5439 2474 5488 2455 5528 2449C5648 2430 5712 2460 5822 2458L5820 2457ZM6760 2700C6740 2690 6667 2675 6639 2668C6598 2658 6558 2647 6518 2635C6436 2609 6377 2575 6315 2534C6277 2509 6239 2491 6233 2462L6163 2072L6071 2086C6071 2103 6087 2122 6098 2135C6114 2156 6126 2154 6139 2169C6156 2188 6157 2271 6159 2303L5850 2303C5860 2346 5918 2418 5946 2442C5991 2480 6039 2492 6109 2508C6123 2591 6146 2648 6138 2738C6099 2760 5953 2805 5933 2824C6019 2871 6065 2857 6159 2833C6248 2811 6259 2838 6323 2719C6341 2726 6350 2742 6369 2755C6517 2856 6724 2761 6762 2700L6760 2700ZM3184 2095C3038 2141 3082 2112 3082 2222C3171 2232 3200 2214 3263 2180C3314 2153 3365 2137 3382 2073C3306 2054 3252 2074 3183 2095L3184 2095ZM6889 2357C7012 2325 7012 2195 7042 2074C7017 2119 6989 2167 6965 2213C6944 2253 6901 2319 6889 2357ZM3031 2263C3019 2246 2992 2223 2976 2209C2956 2193 2942 2176 2922 2159C2875 2119 2886 2083 2801 2063L2869 2348L3031 2263ZM5865 2062C5838 2076 5817 2111 5808 2115C5868 2111 5859 2088 5865 2062ZM7254 1984C7240 1962 7193 1920 7184 1993C7197 1993 7207 1992 7220 1991C7225 1991 7234 1990 7238 1989L7254 1984ZM5790 2172L5800 2126C5786 2133 5788 2133 5777 2144L5758 2169L5790 2171L5790 2172ZM6002 1945C5984 1931 5962 1908 5943 1897C5912 1926 5911 1958 5858 1972C5856 1999 5859 2033 5869 2055C5884 2052 5902 2043 5917 2038C5945 2028 5933 2033 5948 2009C5963 1985 5987 1967 6002 1946L6002 1945ZM5808 1916C5686 1939 5703 1946 5729 2046C5764 2031 5763 2027 5784 1995C5803 1966 5804 1958 5808 1917L5808 1916ZM6840 1860L6806 1931C6805 1931 6803 1929 6802 1929C6786 1922 6786 1915 6774 1948C6719 2101 6766 2144 6587 2244C6553 2263 6444 2327 6435 2365C6423 2414 6537 2478 6571 2496L6633 2439C6785 2285 6769 2156 6815 2023C6852 1915 6880 1944 6861 1899C6856 1888 6846 1869 6840 1859L6840 1860ZM4746 2785C4721 2737 4631 2710 4555 2726L4548 2789C4578 2803 4609 2829 4651 2820C4672 2815 4732 2795 4746 2785ZM3167 1752C3167.31 1752.07 3167.62 1752.14 3167.93 1752.21C3167.59 1751.79 3167.28 1751.39 3167 1751L3167 1752ZM3356 1885C3433 1936 3488 1980 3585 1980C3586 1948 3588 1970 3595 1945C3559 1937 3529 1915 3486 1920C3463 1922 3468 1928 3450 1930C3421 1932 3369 1875 3341 1856C3346 1838 3346 1850 3351 1831C3341 1817 3341 1824 3336 1806C3386 1806 3530 1835 3580 1836C3568 1784 3532 1769 3499 1753C3423 1717 3426 1707 3385 1736C3277 1812 3295 1808 3225 1778C3203.3 1769.12 3190.35 1757.32 3167.93 1752.21C3189.94 1779.48 3318.57 1860.37 3356 1885ZM2861 1873C2812 1777 2722 1743 2581 1742C2612 1763 2679 1789 2720 1809C2760 1828 2823 1860 2861 1873ZM4749 1707C4761 1738 4775 1735 4783 1773C4792 1816 4795 1812 4782 1833C4776 1843 4780 1835 4776 1843C4804 1826 4787 1842 4794 1821C4805 1786 4826 1794 4843 1752L4749 1707ZM3551 1686C3543 1635 3542 1635 3501 1615C3475 1602 3442 1591 3409 1585C3425 1654 3481 1669 3551 1686ZM4924 1611C4912 1600 4906 1597 4889 1596L4889 1606C4906 1606 4908 1609 4924 1611ZM5848 1609C5847.99 1608.99 5847.97 1608.99 5847.96 1608.98C5847.97 1609.32 5847.99 1609.66 5848 1610L5848 1609ZM5749 1541C5764 1558 5779 1564 5798 1577C5810.98 1585.99 5835.94 1603.96 5847.96 1608.98C5845.42 1554.91 5798.69 1547.96 5749 1541ZM3190 1405C3202 1421 3228 1436 3244 1445L3242 1426L3261 1413L3191 1405L3190 1405ZM5142 1391L5142.51 1391.11C5142.35 1390.76 5142.18 1390.39 5142 1390L5142 1391ZM5153 1407L5227 1472L5233 1411L5142.51 1391.11C5147.71 1402.6 5143.3 1396.33 5153 1407ZM3800 1347C3810 1390 3830 1385 3870 1382L3800 1347ZM5171 1236C5131 1180 5010 1044 4954 1019C4994 1100 4975 1131 4975 1132L4855 1130L4818 1059C4819 1080 4821 1109 4837 1122C4857 1138 4843 1111 4879 1160C4935 1236 5048 1344 5134 1385C5078 1252 4986 1283 4973 1210C4971 1200 4968 1167 4970 1158C4972 1148 4964 1150 4995 1127C5120 1165 5090 1193 5172 1237L5171 1236ZM4574 867C4519 877 4524 878 4511 928L4569 928L4574 867ZM4661 859C4665 878 4681 904 4696 914C4702 901 4711 883 4711 864C4689 864 4688 859 4661 859ZM5378 880C5362 831 5256 716 5215 679C5057 541 4730 310 4514 302C4549 337 4692 395 4752 426C4942 523 5026 589 5187 713C5222 740 5250 769 5283 796C5316 823 5345 857 5378 880ZM4848 922C4816 858 4783 820 4710 793L4716 865L4848 922ZM4208 751C4208.14 750.69 4208.28 750.37 4208.42 750.04C4208.28 750.02 4208.14 750.01 4208 750L4208 751ZM4263 765C4243 727 4258 698 4208 641C4208 672.42 4215.71 731.81 4208.42 750.04C4232.05 752.13 4236.16 763.01 4263 765ZM5356 1042C5319 940 5059 733 4971 692C4988 750 5108 850 5151 883L5356 1042ZM6376 599C6339 569 6332 535 6237 520C6255 537 6362 594 6376 599ZM2068 2877C2030 2891 1978 2905 1952 2924C2021 2991 2169 2888 2188 2861C2157 2824 2114 2861 2068 2877ZM6217 509C6182 476 6169 430 6090 428L6217 509ZM3626 395L3622.37 396.04C3623.58 396.01 3624.79 396 3626 396L3626 395ZM3511 415C3502 417 3503 416 3494 418C3492 418 3488 420 3486 420C3475 424 3481 421 3476 425C3502 425 3532 419 3556 415L3622.37 396.04C3586.39 396.78 3547.76 408.23 3511 415ZM3626 396L3646 396C3637 390 3657 390 3636 392C3625 393 3632 393 3626 396ZM3661 386C3656 381 3642 394 3655 389C3655 389 3669 395 3661 386ZM4965 688C4924 600 4708 486 4611 446C4485 393 4283 334 4128 337C4170 384 4478 451 4566 496C4635 531 4689 566 4757 604C4815 636 4888 679 4965 688ZM5445 281C5450 285 5496 310 5504 312L5507 256L5446 281L5445 281ZM4505 296C4490 276 4463 269 4438 261C4395 247 4399 246 4350 249C4359 272 4483 309 4505 296ZM6447 473C6390 364 6032 256 5890 217C5816 197 5850 209 5797 217L5804 265L5577 216C5586 248 5589 254 5616 267C5658 286 5795 313 5836 315C5813 305 5793 307 5811 267C5872 263 5940 282 5984 306C5986 326 5988 331 5979 345C6015 350 6015 357 6044 351C6081 344 6250 462 6446 473L6447 473ZM3995 10187L3990 10197L3995 10187ZM8454 8096L8464 8091L8454 8096ZM8182 6119L8185 6130L8182 6119ZM8158 5631L8163 5641L8158 5631ZM1135 5365L1140 5375L1135 5365ZM4365 5091L4370 5101L4365 5091ZM4575 5626L4572 5615L4575 5626ZM2992 4762L2997 4767L2992 4762ZM4370 5101L4375 5106L4370 5101ZM820 3892L830 3898L820 3892ZM1571 3707L1581 3713L1571 3707ZM2647 3902L2637 3896L2647 3902ZM3162 1746L3167 1751L3162 1746ZM3142 1731L3147 1736L3142 1731ZM3137 1726L3142 1731L3137 1726ZM3132 1721L3137 1726L3132 1721ZM3122 1716L3132 1721L3122 1716ZM3117 1711L3122 1716L3117 1711ZM3112 1706L3117 1711L3112 1706ZM3107 1701L3112 1706L3107 1701ZM3102 1696L3107 1701L3102 1696ZM3097 1691L3102 1696L3097 1691ZM3092 1686L3097 1691L3092 1686ZM3417 436L3416 437L3415 438L3417 436Z" />
			<path id="Layer" fill-rule="evenodd" class="shp0" d="M2407 5386C2406.57 5385.32 2406.12 5384.65 2405.68 5383.99L2408 5384L2407 5386ZM2005 5382L1936 5543C1987 5571 1968 5574 2005 5574C2094 5574 2118 5621 2172 5585C2195 5570 2212 5556 2244 5554C2307 5550 2394 5551 2458 5552C2562 5553 2560 5549 2605 5488C2563 5440 2448 5420 2412 5383C2472 5383 2643 5403 2707 5403C2701 5431 2687 5441 2676 5462C2666 5483 2667 5512 2657 5533C2689 5541 2731 5552 2755 5575C2826 5641 2733 5816 2692 5887C2682 5904 2673 5927 2657 5937C2657 5915 2691 5814 2701 5767C2707 5739 2711 5692 2709 5672C2704 5621 2701 5622 2668 5604C2656 5626 2648 5650 2638 5674C2609 5745 2633 5708 2633 5754C2634 5840 2457 5914 2394 5933C2330 5952 2294 5958 2210 5958C2225 6140 2421 6105 2439 6112C2435 6124 2439 6116 2430 6123L2380 6147C2357 6155 2331 6164 2295 6161C2199 6153 2160 6053 2138 5974C2130 5946 2136 5957 2133 5939C2128 5912 2105 5901 2087 5886C2067 5870 2056 5853 2036 5838C2025 5830 2023 5827 2012 5817C2001 5806 1996 5805 1985 5795C1821 5652 1896 5838 1661 5636C1646 5623 1552 5569 1533 5565C1533 5488 1517 5503 1532 5475C1545 5451 1560 5428 1592 5421C1570 5388 1511 5328 1507 5282C1543 5324 1526 5321 1599 5365C1685 5417 1674 5376 1726 5372C1723 5359 1677 5308 1665 5294C1651 5277 1612 5228 1606 5208L1720 5308C1732 5316 1774 5342 1790 5342C1800 5342 1860 5318 1870 5313C1857 5294 1838 5284 1802 5231C1781 5200 1764 5168 1755 5128L1855 5242C1956 5324 1921 5287 2004 5287C1981 5253 1890 5178 1885 5108C1896 5116 1901 5127 1909 5139C1917 5150 1923 5159 1933 5169C1950 5187 1972 5210 1991 5225C2080 5294 2042 5282 2163 5282C2153 5267 2139 5262 2124 5246C2093 5213 2042 5134 2038 5093C2053 5110 2075 5150 2109 5186C2123 5201 2136 5209 2152 5223C2247.07 5306.19 2359.8 5315.82 2405.68 5383.99L2005 5382ZM2562 5732C2540 5699 2473 5677 2418 5677C2362 5677 2310 5688 2257 5695C2212 5701 2203 5682 2204 5731C2205 5768 2199 5785 2199 5816L2264 5856C2262 5876 2248 5887 2229 5916C2314 5896 2518 5798 2562 5732Z" />
			<path id="Layer" fill-rule="evenodd" class="shp0" d="M10083 8236C10076 8262 9941 8414 9898 8430C9868 8441 9824 8449 9799 8460C9823 8563 9784 8510 9875 8588L9905 8617C9918 8627 9926 8616 9933 8644C9848 8644 9766 8615 9741 8621C9700 8630 9674 8749 9674 8784C9674 8841 9724 8860 9734 8903L9614 8859C9586 8849 9585 8846 9585 8823C9585 8800 9587 8781 9592 8760C9598 8734 9610 8727 9615 8708C9602 8689 9525 8644 9525 8633C9525 8610 9544 8550 9545 8519C9523 8509 9495 8533 9495 8414C9495 8394 9503 8387 9515 8379C9536 8393 9592 8470 9604 8494C9609 8504 9615 8518 9618 8530C9623 8552 9621 8597 9690 8612L9707 8599C9763 8547 9739 8389 9713 8334C9691 8286 9692 8322 9663 8260C9650 8233 9653 8254 9645 8233C9763 8243 9855 8305 9889 8313C9909 8300 9907 8299 9915 8274C9937 8207 9956 8202 9776 8172C9747 8167 9723 8164 9693 8155C9663 8146 9631 8130 9615 8128L9615 8118C9704 8118 9837 8065 9947 8154C9984 8184 10031 8220 10083 8232L10083 8236Z" />
			<path id="Layer" fill-rule="evenodd" class="shp0" d="M5973 4612C5949 4574 5812 4531 5805 4511C5876 4509 6062 4486 6111 4503C6214 4539 6233 4696 6228 4714C6197 4717 6199 4702 6156 4713C6165 4596 6201 4539 6052 4549C6009 4608 6020 4676 6046 4738C6088 4839 6042 4859 6052 4950C6142 4934 6203 4905 6241 4816L6257 4891C6254 4910 6148 5004 6126 5025C6023 5123 6071 5121 6023 5186C6011 5202 5996 5212 5983 5230C5892 5214 5858 5161 5897 5070C5925 5003 5959 4942 5969 4862C5972 4837 5974 4758 5960 4739C5929 4696 5689 4686 5636 4648C5730 4647 5916 4656 5975 4612L5973 4612Z" />
			<path id="Layer" fill-rule="evenodd" class="shp0" d="M2178 5030C2117 5030 1809 5034 1753 5043C1663 5058 1657 5066 1592 5101L1365 5242C1344 5255 1287 5292 1267 5293C1199 5000 1538 4945 1805 4945C1963 4945 1999 4980 2140 5008C2166 5013 2166 5011 2178 5029L2178 5030Z" />
			<path id="Layer" fill-rule="evenodd" class="shp0" d="M9276 6568C9261 6550 9138 6179 9132 6150C9119 6160 9121 6170 9117 6190C9114 6205 9110 6225 9108 6241C9080 6442 9122 6434 9122 6509C9122 6589 9137 6585 9072 6628C9067 6608 9065 6573 9063 6553L9047 6399C9038 6260 9041 6245 9056 6104C9062 6049 9066 5991 9071 5940C9074 5915 9075 5881 9076 5861C9079 5811 9086 5823 9105 5852C9240 6057 9236 6269 9267 6486C9270 6507 9275 6550 9275 6568L9276 6568Z" />
			<path id="Layer" fill-rule="evenodd" class="shp0" d="M3084 7569C3069 7565 2992 7535 2930 7519C2856 7500 2820 7425 2774 7371L2680 7261C2642 7218 2686 7200 2686 7200C2712 7200 2728 7225 2754 7256C2763 7266 2765 7270 2774 7281C2783 7291 2784 7294 2792 7303C2801 7313 2805 7315 2813 7327C2826 7344 2844 7354 2850 7375C2855 7371 2866 7365 2871 7361C2885 7349 2875 7351 2890 7340C2862 7298 2844 7286 2822 7259C2811 7246 2810 7242 2797 7229C2788 7220 2782 7213 2772 7204C2760 7193 2756 7192 2745 7182C2689 7132 2693 7139 2701 7101C2715 7094 2722 7091 2735 7096C2777 7114 2902 7257 2926 7289C2976 7357 2993 7384 3033 7456C3056 7496 3060 7455 3075 7524C3079 7542 3084 7547 3085 7569L3084 7569Z" />
			<path id="Layer" fill-rule="evenodd" class="shp0" d="M6008 4132C5951 4130 5911 4123 5865 4102C5807 4075 5778 4100 5726 4113L5733 4401C5711 4400 5631 4386 5612 4379C5521 4344 5648 4127 5678 4086C5750 3990 5839 3949 5944 4046C5961 4061 5996 4104 6007 4131L6008 4132Z" />
			<path id="Layer" fill-rule="evenodd" class="shp0" d="M3458 7664C3447 7656 3440 7642 3427 7630L3355 7568C3320 7539 3331 7530 3271 7518C3093 7481 3161 7520 3105 7525C3105 7511 3109 7438 3117 7422C3127 7402 3122 7418 3135 7400L3085 7241C3098 7246 3090 7233 3112 7274C3148 7342 3183 7414 3247 7453C3265 7464 3316 7483 3340 7485C3280 7395 3257 7364 3172 7280C3154 7262 3086 7201 3080 7183C3074 7163 3094 7135 3125 7153C3171 7181 3326 7361 3351 7395C3377 7431 3402 7470 3422 7513C3436 7544 3460 7631 3460 7665L3458 7664Z" />
			<path id="Layer" fill-rule="evenodd" class="shp0" d="M4667 8102C4788 8102 4765 8055 4796 8147C4802 8166 4815 8196 4816 8216C4730 8196 4718 8184 4665 8245C4655 8257 4656 8257 4641 8261C4641 8209 4651 8162 4651 8112C4604 8112 4591 8109 4546 8023C4499 7932 4560 7936 4576 7928C4591 7956 4606 7983 4621 8013C4634 8039 4659 8074 4666 8103L4667 8102Z" />
			<path id="Layer" fill-rule="evenodd" class="shp0" d="M4145 8495C4145 8657 4129 8653 4094 8802C4086 8835 4075 8890 4054 8912C4036 8931 3989 8961 3960 8968L4134 8480C4142 8486 4144 8481 4144 8495L4145 8495Z" />
			<path id="Layer" fill-rule="evenodd" class="shp0" d="M7758 4956L7748 4956C7747 4947 7721 4872 7714 4781C7704 4664 7717 4479 7694 4383C7685 4347 7659 4234 7659 4204C7683 4222 7708 4315 7717 4355C7762 4559 7759 4750 7759 4955L7758 4956Z" />
			<path id="Layer" fill-rule="evenodd" class="shp0" d="M9813 5901C9832 5903 9849 5906 9869 5906C9879 5906 9888 5904 9896 5903L9915 5905C9938 5967 9990 6145 9951 6214L9812 5901L9813 5901Z" />
			<path id="Layer" fill-rule="evenodd" class="shp0" d="M4513 1073C4487 1071 4208 934 4189 909C4229 906 4244 902 4299 913C4332 920 4363 932 4390 947C4446 978 4483 1017 4513 1073Z" />
			<path id="Layer" fill-rule="evenodd" class="shp0" d="M2845 7574C2794 7574 2818 7509 2706 7460C2655 7438 2643 7451 2656 7395C2662 7393 2670 7390 2671 7390C2752 7390 2870 7501 2868 7544C2868 7553 2853 7574 2845 7574Z" />
			<path id="Layer" fill-rule="evenodd" class="shp0" d="M4100 9087C4127 9138 4161 9174 4150 9221C4097 9221 4069 9194 4021 9166C4007 9158 3995 9150 3986 9136C3997 9132 4003 9124 4004 9111C4004 9104 3998 9086 3996 9076C4033 9079 4053 9086 4101 9086L4100 9087Z" />
			<path id="Layer" fill-rule="evenodd" class="shp0" d="M6280 6678C6280 6803 6229 6834 6215 6892L6205 6892C6197 6857 6194 6862 6192 6816C6188 6729 6250 6624 6255 6603C6272 6615 6280 6649 6280 6678Z" />
			<path id="Layer" fill-rule="evenodd" class="shp0" d="M8405 7599C8391 7589 8375 7578 8360 7569C8324 7548 8236 7505 8236 7464C8236 7439 8269 7419 8291 7414C8310 7426 8309 7436 8333 7457C8374 7492 8404 7536 8405 7599Z" />
			<path id="Layer" fill-rule="evenodd" class="shp0" d="M3517 7818C3484 7821 3487 7837 3447 7828C3430 7755 3480 7682 3499 7616C3511 7573 3500 7569 3517 7549L3517 7818Z" />
			<path id="Layer" fill-rule="evenodd" class="shp0" d="M2258 2128C2258 2152 2249 2163 2258 2183C2236 2181 2222 2172 2199 2167C2138 2153 2152 2169 2089 2127C2071 2115 2054 2109 2048 2088C2080 2096 2257 2096 2257 2128L2258 2128Z" />
			<path id="Layer" fill-rule="evenodd" class="shp0" d="M3662 884C3684 884 3928 951 3961 959C3952 973 3913 998 3893 997C3844 994 3736 924 3701 906C3693 902 3689 901 3681 896L3663 884L3662 884Z" />
			<path id="Layer" fill-rule="evenodd" class="shp0" d="M6236 5124C6240 5145 6258 5224 6254 5242C6249 5261 6199 5295 6181 5303C6177 5230 6176 5165 6236 5124Z" />
			<path id="Layer" fill-rule="evenodd" class="shp0" d="M4199 9047C4168 9054 4133 9052 4094 9052L4144 8978C4166 8948 4183 8913 4203 8908L4198 9047L4199 9047Z" />
			<path id="Layer" fill-rule="evenodd" class="shp0" d="M2552 1391C2487 1391 2413 1370 2361 1353L2179 1301C2229 1301 2410 1339 2473 1350C2503 1355 2539 1371 2552 1391Z" />
			<path id="Layer" fill-rule="evenodd" class="shp0" d="M7026 10157C7026 10104 7031 10064 7031 10008C7054 10014 7058 10033 7074 10049C7170 10148 7096 10102 7064 10126L7026 10157Z" />
			<path id="Layer" fill-rule="evenodd" class="shp0" d="M7838 11143C7857 11147 7906 11172 7940 11179C7951 11181 7945 11179 7955 11182C7971 11186 7952 11183 7972 11188C7963 11207 7968 11209 7972 11228C7917 11228 7843 11205 7838 11143Z" />
			<path id="Layer" fill-rule="evenodd" class="shp0" d="M3831 1078C3815 1077 3772 1059 3756 1054C3730 1045 3703 1035 3677 1028L3677 1018C3759 1018 3815 1009 3831 1078Z" />
			<path id="Layer" fill-rule="evenodd" class="shp0" d="M9605 5563L9625 5635C9568 5616 9568 5618 9546 5549C9567 5556 9578 5562 9605 5562L9605 5563Z" />
			<path id="Layer" fill-rule="evenodd" class="shp0" d="M2378 6902C2345 6910 2304 6907 2264 6907C2274 6893 2356 6861 2374 6857C2362 6881 2374 6882 2379 6902L2378 6902Z" />
			<path id="Layer" fill-rule="evenodd" class="shp0" d="M8579 8455C8591 8458 8699 8517 8708 8530C8654 8517 8633 8517 8602 8486C8590 8474 8583 8472 8578 8455L8579 8455Z" />
			<path id="Layer" fill-rule="evenodd" class="shp0" d="M1183 2860C1169 2850 1132 2820 1128 2805C1145 2809 1154 2812 1173 2815C1205 2820 1187 2822 1177 2835C1178 2848 1179 2849 1182 2860L1183 2860Z" />
			<path id="Layer" fill-rule="evenodd" class="shp0" d="M7838 11143C7821 11142 7818 11151 7818 11088L7823 11088C7823 11108 7834 11126 7838 11143Z" />
			<path id="Layer" fill-rule="evenodd" class="shp0" d="M11028 7624L11008 7630L11008 7600C11019 7604 11013 7599 11020 7608C11027 7616 11025 7615 11028 7625L11028 7624Z" />
			<path id="Layer" fill-rule="evenodd" class="shp0" d="M7320 6922C7301 6920 7303 6918 7290 6912C7271 6903 7277 6912 7265 6897C7285 6902 7309 6907 7320 6922Z" />
			<path id="Layer" fill-rule="evenodd" class="shp0" d="M7375 6967C7365 6960 7365 6958 7356 6951C7343 6941 7346 6947 7335 6932C7355 6937 7370 6947 7375 6967Z" />
			<path id="Layer" class="shp0" d="M3662 884L3657 884L3661 878L3662 884Z" />
			<path id="Layer" class="shp0" d="M8629 8072L8624 8072L8628 8066L8629 8072Z" />
			<path id="Layer" class="shp0" d="M7320 6922L7325 6922L7321 6928L7320 6922Z" />
			<path id="Layer" class="shp0" d="M7893 5797L7888 5797L7892 5791L7893 5797Z" />
			<path id="Layer" class="shp0" d="M1601 5200L1596 5200L1600 5194L1601 5200Z" />
			<path id="Layer" class="shp0" d="M8579 8455L8574 8455L8579 8449L8579 8455Z" />
			<path id="Layer" class="shp0" d="M2905 4065L2900 4065L2904 4059L2905 4065Z" />
			<path id="Layer" class="shp0" d="M3458 7664L3463 7664L3458 7669L3458 7664Z" />
			<path id="Layer" class="shp0" d="M1601 5200L1606 5204L1601 5200Z" />
			<path id="Layer" class="shp0" d="M1885 5105L1879 5095L1885 5105Z" />
		</g>
	</g>
</svg>